<svg width="213" height="150" viewBox="0 0 213 150" fill="none" xmlns="http://www.w3.org/2000/svg">
<g filter="url(#filter0_d_66_381)">
<rect x="6.96094" width="200" height="133.001" rx="5" transform="rotate(3 6.96094 0)" fill="#FDF2C2" shape-rendering="crispEdges"/>
<rect x="7.90723" y="1.05097" width="198" height="131.001" rx="4" transform="rotate(3 7.90723 1.05097)" stroke="#1A1C18" stroke-width="2" shape-rendering="crispEdges"/>
<path d="M32.7001 24.3806L33.2277 14.3144L34.7446 14.3939L37.8521 21.7066L41.707 14.7588L43.224 14.8383L42.6964 24.9045L41.1236 24.822L41.4617 18.3699L38.0338 24.6601L37.3627 24.625L34.6181 18.0112L34.28 24.4634L32.7001 24.3806ZM47.1256 27.8563L47.2065 26.3114L48.9331 26.4019L48.8522 27.9468L47.1256 27.8563ZM48.0816 25.397C47.3173 25.3569 46.6549 25.1563 46.0943 24.7952C45.5338 24.434 45.1058 23.9513 44.8104 23.347C44.5196 22.7429 44.3942 22.0588 44.4343 21.2945C44.4775 20.4696 44.6735 19.7626 45.0221 19.1733C45.371 18.5795 45.8362 18.1295 46.4177 17.8235C46.9991 17.5175 47.6604 17.384 48.4013 17.4228C49.1843 17.4638 49.8387 17.6827 50.3647 18.0794C50.8955 18.4718 51.2763 19.0081 51.507 19.6884C51.7377 20.3688 51.7968 21.1593 51.6842 22.06L50.0135 21.9724L50.0457 21.3572C50.084 20.5368 49.9709 19.9304 49.7064 19.538C49.4419 19.1456 49.0044 18.9334 48.394 18.9014C47.7042 18.8653 47.1804 19.0528 46.8224 19.464C46.4646 19.8705 46.2642 20.4838 46.2212 21.304C46.1812 22.0683 46.3179 22.6689 46.6315 23.106C46.945 23.543 47.4234 23.7783 48.0665 23.812C48.4813 23.8338 48.8425 23.7616 49.1503 23.5955C49.463 23.4249 49.7101 23.1692 49.8915 22.8282L51.5288 23.4187C51.2042 24.084 50.7291 24.5894 50.1035 24.9352C49.4826 25.2812 48.8086 25.4351 48.0816 25.397ZM45.6654 21.7445L45.7321 20.4723L50.926 20.7445L50.8593 22.0167L45.6654 21.7445ZM56.394 25.8326C55.6391 25.7931 54.9886 25.5884 54.4425 25.2187C53.8964 24.8489 53.4829 24.3576 53.2019 23.7447C52.9259 23.1274 52.8082 22.4296 52.849 21.6514C52.8905 20.8591 53.0854 20.173 53.4335 19.5931C53.7817 19.0132 54.2465 18.5703 54.828 18.2643C55.4095 17.9583 56.0707 17.8247 56.8117 17.8636C57.5713 17.9034 58.2242 18.1082 58.7702 18.4779C59.3163 18.8477 59.7297 19.3413 60.0104 19.9588C60.2914 20.5717 60.4115 21.2673 60.3707 22.0456C60.3297 22.8285 60.1349 23.5122 59.7865 24.0968C59.443 24.677 58.9804 25.1223 58.3987 25.433C57.8172 25.739 57.149 25.8722 56.394 25.8326ZM56.4768 24.2528C57.1479 24.288 57.6583 24.0904 58.008 23.6601C58.3576 23.2298 58.551 22.6605 58.5881 21.9521C58.6265 21.2205 58.4916 20.6293 58.1834 20.1785C57.8755 19.7231 57.3906 19.4781 56.7289 19.4434C56.2768 19.4197 55.8986 19.5027 55.5943 19.6924C55.2949 19.8776 55.0657 20.1483 54.9069 20.5045C54.7482 20.856 54.6565 21.2694 54.6316 21.7448C54.5932 22.4764 54.728 23.07 55.0359 23.5254C55.3488 23.9764 55.8291 24.2188 56.4768 24.2528ZM62.3199 25.0217L62.4104 23.295L64.137 23.3855L64.0465 25.1121L62.3199 25.0217ZM62.5438 21.0169L62.6343 19.2902L64.3609 19.3807L64.2704 21.1074L62.5438 21.0169ZM69.3042 26.2989L69.8317 16.2327L73.8233 16.4419C74.5037 16.4776 75.0534 16.6443 75.4724 16.9419C75.8963 17.2352 76.202 17.5993 76.3894 18.0344C76.5816 18.4697 76.6658 18.9134 76.6421 19.3655C76.6131 19.92 76.4556 20.3838 76.1697 20.7566C75.8884 21.1298 75.5182 21.3721 75.0591 21.4835L75.0774 21.134C75.7037 21.3117 76.1679 21.6374 76.4702 22.1112C76.7771 22.5853 76.9153 23.1136 76.8848 23.6961C76.8536 24.2926 76.712 24.8086 76.4602 25.244C76.2084 25.6794 75.8499 26.0111 75.3847 26.2391C74.9241 26.4673 74.3629 26.5641 73.7012 26.5294L69.3042 26.2989ZM71.093 24.8015L73.5746 24.9316C73.8682 24.9469 74.1346 24.9025 74.3737 24.7982C74.6131 24.6892 74.8036 24.531 74.9453 24.3235C75.0919 24.1115 75.1731 23.8564 75.1887 23.5581C75.2029 23.2879 75.1573 23.0425 75.052 22.822C74.9468 22.6015 74.7856 22.4225 74.5685 22.2849C74.3516 22.1427 74.0871 22.0634 73.7749 22.0471L71.2443 21.9145L71.093 24.8015ZM71.3268 20.3416L73.5916 20.4603C73.834 20.473 74.0531 20.4378 74.2491 20.3546C74.445 20.2714 74.6037 20.1418 74.7251 19.966C74.8464 19.7901 74.9141 19.5693 74.928 19.3037C74.9463 18.9542 74.8497 18.657 74.6383 18.4123C74.4268 18.1675 74.1207 18.0347 73.7199 18.0137L71.455 17.895L71.3268 20.3416ZM80.2329 29.5914L80.3139 28.0465L82.0405 28.137L81.9595 29.6819L80.2329 29.5914ZM80.2242 27.0815C79.679 27.0529 79.223 26.9262 78.8563 26.7014C78.4898 26.4719 78.2177 26.1796 78.04 25.8245C77.867 25.4696 77.7914 25.0848 77.8131 24.67C77.8322 24.3065 77.9099 23.9835 78.0462 23.7009C78.1827 23.4136 78.3823 23.1718 78.645 22.9752C78.9079 22.7741 79.2433 22.6164 79.6511 22.5022C79.9592 22.4203 80.318 22.3503 80.7276 22.2923C81.1418 22.2346 81.5883 22.1855 82.0671 22.1452C82.5508 22.1005 83.0557 22.0521 83.5818 22.0003L82.9627 22.3113C82.9947 21.7896 82.8983 21.399 82.6736 21.1396C82.4488 20.8801 82.0545 20.7356 81.4906 20.7061C81.1504 20.6882 80.8177 20.7502 80.4925 20.8921C80.1673 21.0339 79.9317 21.2949 79.7856 21.6751L78.273 21.1122C78.4928 20.4835 78.8739 19.9895 79.4161 19.63C79.963 19.2708 80.6815 19.1145 81.5716 19.1612C82.2427 19.1963 82.8265 19.3368 83.323 19.5824C83.8241 19.8283 84.1851 20.2071 84.406 20.7186C84.5272 20.9914 84.5945 21.2683 84.6078 21.5493C84.6213 21.8258 84.6196 22.1271 84.6025 22.4533L84.3596 27.088L82.8846 27.0107L82.9703 25.3749L83.2011 25.6534C82.8323 26.1808 82.4128 26.5607 81.9427 26.7931C81.4775 27.021 80.9046 27.1172 80.2242 27.0815ZM80.6301 25.7569C81.0123 25.777 81.342 25.7265 81.6194 25.6055C81.8968 25.4845 82.1198 25.3303 82.2885 25.1429C82.4619 24.9557 82.5811 24.7774 82.646 24.6079C82.7458 24.3981 82.8076 24.156 82.8313 23.8816C82.8599 23.6027 82.8788 23.377 82.8878 23.2046L83.397 23.3855C82.8849 23.4381 82.4455 23.4852 82.0788 23.5267C81.7122 23.5682 81.3969 23.6101 81.133 23.6524C80.8693 23.69 80.6356 23.7361 80.4317 23.7909C80.2324 23.8505 80.0626 23.9234 79.9226 24.0095C79.7826 24.0956 79.6721 24.1973 79.5912 24.3146C79.5149 24.4321 79.4725 24.5724 79.464 24.7355C79.4542 24.9219 79.4921 25.0898 79.5778 25.2392C79.6637 25.3839 79.7929 25.5028 79.9656 25.5959C80.143 25.6894 80.3645 25.743 80.6301 25.7569ZM91.4013 27.457L91.5918 23.822C91.6043 23.5843 91.6018 23.3201 91.5843 23.0295C91.5668 22.7389 91.5044 22.4575 91.3972 22.1856C91.2949 21.9092 91.1294 21.6785 90.9007 21.4936C90.6768 21.309 90.3644 21.2062 89.9636 21.1852C89.7492 21.1739 89.5353 21.1978 89.322 21.2567C89.1086 21.3156 88.9112 21.4267 88.7297 21.5901C88.5531 21.7491 88.4058 21.975 88.2876 22.2679C88.1697 22.5561 88.0987 22.9309 88.0745 23.3923L87.0972 22.9135C87.1309 22.2704 87.2849 21.6943 87.5593 21.1853C87.8383 20.6766 88.2282 20.2811 88.729 19.9989C89.23 19.7121 89.8347 19.5872 90.5431 19.6243C91.1023 19.6536 91.5588 19.771 91.9125 19.9765C92.2663 20.182 92.5427 20.4348 92.742 20.7349C92.9412 21.0351 93.0835 21.351 93.169 21.6826C93.2544 22.0142 93.3034 22.3275 93.316 22.6226C93.3334 22.9132 93.3374 23.1494 93.3279 23.3312L93.107 27.5464L91.4013 27.457ZM86.1655 27.1826L86.5612 19.633L88.0641 19.7117L87.9414 22.0535L88.1441 22.0641L87.8712 27.272L86.1655 27.1826ZM100.998 28.1702C100.219 28.1294 99.5642 27.9222 99.0324 27.5485C98.5008 27.1702 98.104 26.6727 97.8419 26.0561C97.5844 25.4398 97.4733 24.7517 97.5085 23.9919C97.5537 23.2185 97.741 22.5414 98.0705 21.9605C98.405 21.3752 98.8584 20.927 99.4308 20.6158C100.003 20.3 100.672 20.1622 101.436 20.2022C102.294 20.2472 103.007 20.5019 103.576 20.9663C104.15 21.4263 104.509 22.0339 104.651 22.789L102.95 23.1555C102.84 22.7432 102.64 22.4173 102.349 22.1777C102.058 21.9335 101.719 21.8012 101.332 21.781C100.894 21.758 100.528 21.8439 100.232 22.0388C99.9374 22.2289 99.7128 22.5022 99.5586 22.8586C99.4044 23.215 99.3152 23.6239 99.291 24.0853C99.2534 24.803 99.3838 25.3916 99.6821 25.8512C99.9805 26.3108 100.447 26.5572 101.08 26.5904C101.528 26.6138 101.885 26.5297 102.152 26.3381C102.424 26.1467 102.635 25.8611 102.786 25.4811L104.485 25.9557C104.212 26.7124 103.773 27.2829 103.169 27.6671C102.565 28.0467 101.841 28.2144 100.998 28.1702ZM110.018 19.7758L108.739 19.7087L109.951 17.1787L111.23 17.2457L110.018 19.7758ZM108.89 28.5838C108.135 28.5443 107.485 28.3396 106.939 27.9699C106.393 27.6001 105.979 27.1088 105.698 26.4959C105.422 25.8786 105.305 25.1808 105.345 24.4026C105.387 23.6103 105.582 22.9243 105.93 22.3444C106.278 21.7644 106.743 21.3215 107.324 21.0155C107.906 20.7095 108.567 20.5759 109.308 20.6148C110.068 20.6546 110.72 20.8594 111.267 21.2291C111.813 21.5989 112.226 22.0925 112.507 22.7101C112.788 23.3229 112.908 24.0185 112.867 24.7968C112.826 25.5797 112.631 26.2634 112.283 26.848C111.939 27.4282 111.477 27.8736 110.895 28.1842C110.314 28.4902 109.645 28.6234 108.89 28.5838ZM108.973 27.004C109.644 27.0392 110.155 26.8416 110.504 26.4113C110.854 25.981 111.047 25.4117 111.084 24.7034C111.123 23.9717 110.988 23.3805 110.68 22.9297C110.372 22.4743 109.887 22.2293 109.225 22.1946C108.773 22.1709 108.395 22.2539 108.091 22.4436C107.791 22.6288 107.562 22.8995 107.403 23.2557C107.245 23.6072 107.153 24.0207 107.128 24.496C107.09 25.2277 107.224 25.8212 107.532 26.2766C107.845 26.7276 108.325 26.9701 108.973 27.004ZM121.433 29.0309C120.93 29.098 120.438 29.1119 119.959 29.0728C119.484 29.0386 119.062 28.93 118.693 28.7471C118.325 28.5596 118.052 28.2812 117.875 27.9121C117.72 27.5769 117.646 27.2389 117.655 26.8982C117.663 26.5575 117.679 26.1728 117.701 25.7441L118.045 19.1801L119.723 19.268L119.384 25.7341C119.368 26.037 119.356 26.3028 119.349 26.5314C119.347 26.7602 119.386 26.9492 119.467 27.0983C119.62 27.3867 119.88 27.5569 120.246 27.6088C120.612 27.6607 121.033 27.6641 121.507 27.6188L121.433 29.0309ZM116.496 22.5266L116.565 21.2054L121.829 21.4813L121.76 22.8024L116.496 22.5266ZM128.278 29.3896L128.469 25.7546C128.481 25.517 128.479 25.2528 128.461 24.9622C128.444 24.6715 128.382 24.3902 128.274 24.1182C128.172 23.8418 128.007 23.6112 127.778 23.4263C127.554 23.2416 127.242 23.1388 126.841 23.1178C126.626 23.1066 126.412 23.1304 126.199 23.1893C125.986 23.2482 125.788 23.3594 125.607 23.5228C125.43 23.6818 125.283 23.9077 125.165 24.2006C125.047 24.4888 124.976 24.8636 124.952 25.325L123.974 24.8462C124.008 24.203 124.162 23.627 124.436 23.118C124.715 22.6092 125.105 22.2137 125.606 21.9316C126.107 21.6447 126.712 21.5199 127.42 21.557C127.979 21.5863 128.436 21.7037 128.79 21.9091C129.143 22.1146 129.42 22.3674 129.619 22.6676C129.818 22.9678 129.961 23.2836 130.046 23.6152C130.132 23.9468 130.181 24.2602 130.193 24.5552C130.211 24.8459 130.215 25.0821 130.205 25.2638L129.984 29.479L128.278 29.3896ZM123.043 29.1152L123.57 19.0491L125.073 19.1278L124.795 24.4266L124.998 24.4372L124.748 29.2046L123.043 29.1152ZM132.981 20.9792L135.005 18.8772L136.417 18.9513L138.21 21.2532L136.637 21.1708L135.66 19.8719L134.554 21.0616L132.981 20.9792ZM138.053 19.2964L137.663 18.4418C137.941 18.218 138.257 18.0827 138.61 18.0358C138.962 17.9888 139.291 18.0435 139.596 18.1996C139.906 18.3514 140.128 18.6224 140.262 19.0126C140.371 19.3267 140.398 19.6132 140.343 19.872C140.287 20.1261 140.178 20.347 140.014 20.5347C139.85 20.7223 139.655 20.871 139.43 20.9807C139.204 21.0857 138.977 21.1486 138.747 21.1692L138.482 20.4614C138.743 20.3956 138.96 20.2738 139.132 20.096C139.305 19.9181 139.338 19.6978 139.23 19.4352C139.16 19.2586 139.056 19.1503 138.918 19.1104C138.784 19.0707 138.639 19.0724 138.483 19.1156C138.327 19.1542 138.183 19.2144 138.053 19.2964ZM135.23 29.9642C134.465 29.9242 133.803 29.7236 133.242 29.3624C132.682 29.0012 132.254 28.5185 131.958 27.9142C131.668 27.3102 131.542 26.626 131.582 25.8617C131.626 25.0368 131.821 24.3298 132.17 23.7406C132.519 23.1467 132.984 22.6967 133.566 22.3908C134.147 22.0848 134.808 21.9512 135.549 21.99C136.332 22.0311 136.987 22.2499 137.513 22.6467C138.044 23.039 138.424 23.5753 138.655 24.2557C138.886 24.936 138.945 25.7265 138.832 26.6272L137.161 26.5396L137.194 25.9245C137.232 25.104 137.119 24.4976 136.854 24.1052C136.59 23.7129 136.152 23.5007 135.542 23.4687C134.852 23.4325 134.328 23.62 133.97 24.0312C133.613 24.4377 133.412 25.051 133.369 25.8713C133.329 26.6355 133.466 27.2362 133.78 27.6732C134.093 28.1102 134.571 28.3456 135.215 28.3793C135.629 28.401 135.991 28.3288 136.298 28.1627C136.611 27.9922 136.858 27.7364 137.04 27.3954L138.677 27.9859C138.352 28.6512 137.877 29.1567 137.252 29.5024C136.631 29.8484 135.957 30.0023 135.23 29.9642ZM132.813 26.3118L132.88 25.0395L138.074 25.3117L138.007 26.584L132.813 26.3118ZM35.0779 41.7388C34.2997 41.698 33.6446 41.4908 33.1128 41.1171C32.5812 40.7388 32.1843 40.2413 31.9222 39.6248C31.6648 39.0085 31.5537 38.3204 31.5888 37.5605C31.634 36.7871 31.8214 36.11 32.1509 35.5291C32.4853 34.9438 32.9387 34.4956 33.5111 34.1845C34.0838 33.8687 34.7522 33.7308 35.5165 33.7709C36.374 33.8158 37.0873 34.0705 37.6565 34.5349C38.2305 34.9949 38.5889 35.6025 38.7316 36.3577L37.03 36.7241C36.9208 36.3118 36.7206 35.9859 36.4294 35.7464C36.1384 35.5021 35.7996 35.3699 35.4128 35.3496C34.9747 35.3266 34.608 35.4126 34.3128 35.6074C34.0177 35.7975 33.7931 36.0708 33.6389 36.4272C33.4847 36.7837 33.3955 37.1926 33.3714 37.6539C33.3338 38.3716 33.4641 38.9602 33.7625 39.4198C34.0608 39.8794 34.5269 40.1258 35.1607 40.159C35.6081 40.1824 35.9653 40.0984 36.2324 39.9067C36.5041 39.7154 36.7153 39.4297 36.8661 39.0497L38.5656 39.5243C38.2923 40.2811 37.8535 40.8515 37.2492 41.2358C36.6452 41.6154 35.9214 41.783 35.0779 41.7388ZM45.0739 42.0524L45.2644 38.4174C45.2769 38.1797 45.2744 37.9156 45.2569 37.6249C45.2394 37.3343 45.1771 37.053 45.0698 36.781C44.9675 36.5046 44.802 36.2739 44.5734 36.089C44.3494 35.9044 44.037 35.8016 43.6362 35.7806C43.4218 35.7693 43.208 35.7932 42.9946 35.8521C42.7812 35.911 42.5838 36.0222 42.4023 36.1856C42.2258 36.3445 42.0784 36.5705 41.9603 36.8633C41.8423 37.1516 41.7713 37.5264 41.7471 37.9877L40.7698 37.5089C40.8035 36.8658 40.9576 36.2897 41.2319 35.7807C41.5109 35.272 41.9008 34.8765 42.4016 34.5943C42.9026 34.3075 43.5073 34.1826 44.2157 34.2198C44.7749 34.2491 45.2314 34.3665 45.5851 34.5719C45.9389 34.7774 46.2154 35.0302 46.4146 35.3304C46.6138 35.6305 46.7561 35.9464 46.8416 36.278C46.927 36.6096 46.976 36.9229 46.9886 37.218C47.0061 37.5086 47.01 37.7448 47.0005 37.9266L46.7796 42.1418L45.0739 42.0524ZM39.8381 41.778L40.3657 31.7118L41.8686 31.7906L41.5909 37.0893L41.7936 37.0999L41.5438 41.8674L39.8381 41.778ZM50.9432 45.0797L51.0242 43.5349L52.7438 43.625L52.6629 45.1699L50.9432 45.0797ZM51.9272 42.6219C51.1722 42.5823 50.5217 42.3776 49.9757 42.0079C49.4296 41.6381 49.0161 41.1468 48.7351 40.5339C48.459 39.9167 48.3414 39.2189 48.3822 38.4406C48.4237 37.6484 48.6185 36.9623 48.9667 36.3824C49.3149 35.8025 49.7797 35.3595 50.3612 35.0535C50.9426 34.7475 51.6039 34.614 52.3449 34.6528C53.1045 34.6926 53.7573 34.8974 54.3034 35.2671C54.8494 35.6369 55.2628 36.1305 55.5436 36.7481C55.8246 37.361 55.9446 38.0565 55.9039 38.8348C55.8628 39.6177 55.6681 40.3015 55.3197 40.886C54.9762 41.4662 54.5136 41.9116 53.9319 42.2222C53.3504 42.5282 52.6822 42.6614 51.9272 42.6219ZM52.01 41.042C52.6811 41.0772 53.1915 40.8796 53.5411 40.4494C53.8908 40.0191 54.0842 39.4497 54.1213 38.7414C54.1597 38.0097 54.0247 37.4185 53.7166 36.9678C53.4087 36.5124 52.9238 36.2673 52.2621 36.2326C51.81 36.2089 51.4318 36.2919 51.1275 36.4816C50.828 36.6668 50.5989 36.9376 50.44 37.2937C50.2814 37.6452 50.1896 38.0587 50.1647 38.534C50.1264 39.2657 50.2612 39.8592 50.5691 40.3146C50.8819 40.7656 51.3622 41.0081 52.01 41.042ZM62.4681 42.964L62.6586 39.329C62.671 39.0913 62.6685 38.8272 62.651 38.5365C62.6335 38.2459 62.5712 37.9645 62.4639 37.6926C62.3616 37.4162 62.1961 37.1855 61.9675 37.0006C61.7435 36.816 61.4311 36.7132 61.0303 36.6922C60.816 36.6809 60.6021 36.7048 60.3887 36.7637C60.1753 36.8226 59.9779 36.9337 59.7964 37.0971C59.6199 37.2561 59.4725 37.482 59.3544 37.7749C59.2364 38.0632 59.1654 38.438 59.1412 38.8993L58.1639 38.4205C58.1976 37.7774 58.3517 37.2013 58.626 36.6923C58.905 36.1836 59.2949 35.7881 59.7957 35.5059C60.2967 35.2191 60.9014 35.0942 61.6098 35.1313C62.169 35.1607 62.6255 35.278 62.9793 35.4835C63.333 35.689 63.6095 35.9418 63.8087 36.242C64.0079 36.5421 64.1503 36.858 64.2357 37.1896C64.3211 37.5212 64.3701 37.8345 64.3827 38.1296C64.4002 38.4202 64.4041 38.6564 64.3946 38.8382L64.1737 43.0534L62.4681 42.964ZM57.2322 42.6896L57.6279 35.14L59.1308 35.2187L59.0081 37.5605L59.2108 37.5711L58.9379 42.779L57.2322 42.6896ZM74.0186 43.5693L74.2091 39.9343C74.2216 39.6967 74.2191 39.4325 74.2016 39.1418C74.1841 38.8512 74.1217 38.5699 74.0145 38.2979C73.9122 38.0215 73.7467 37.7909 73.518 37.606C73.294 37.4213 72.9817 37.3185 72.5809 37.2975C72.3665 37.2863 72.1526 37.3101 71.9393 37.369C71.7259 37.4279 71.5285 37.5391 71.347 37.7025C71.1704 37.8615 71.0231 38.0874 70.9049 38.3803C70.787 38.6685 70.716 39.0433 70.6918 39.5047L69.7145 39.0259C69.7482 38.3827 69.9022 37.8067 70.1766 37.2977C70.4556 36.7889 70.8455 36.3934 71.3463 36.1113C71.8473 35.8244 72.452 35.6996 73.1604 35.7367C73.7196 35.766 74.1761 35.8834 74.5298 36.0888C74.8835 36.2943 75.16 36.5471 75.3593 36.8473C75.5585 37.1475 75.7008 37.4633 75.7862 37.7949C75.8717 38.1265 75.9207 38.4399 75.9333 38.7349C75.9507 39.0256 75.9547 39.2618 75.9452 39.4435L75.7243 43.6587L74.0186 43.5693ZM68.7828 43.2949L69.1785 35.7453L70.6814 35.8241L70.5587 38.1659L70.7614 38.1765L70.4885 43.3843L68.7828 43.2949ZM82.7703 44.028L82.9608 40.393C82.9732 40.1553 82.9707 39.8912 82.9532 39.6005C82.9358 39.3099 82.8734 39.0285 82.7662 38.7566C82.6638 38.4802 82.4983 38.2495 82.2697 38.0646C82.0457 37.88 81.7333 37.7772 81.3325 37.7562C81.1182 37.7449 80.9043 37.7688 80.6909 37.8277C80.4775 37.8866 80.2801 37.9977 80.0987 38.1611C79.9221 38.3201 79.7747 38.546 79.6566 38.8389C79.5387 39.1272 79.4676 39.5019 79.4434 39.9633L78.4662 39.4845C78.4999 38.8414 78.6539 38.2653 78.9282 37.7563C79.2073 37.2476 79.5972 36.8521 80.0979 36.5699C80.599 36.2831 81.2037 36.1582 81.912 36.1953C82.4713 36.2247 82.9277 36.342 83.2815 36.5475C83.6352 36.753 83.9117 37.0058 84.1109 37.3059C84.3101 37.6061 84.4525 37.922 84.5379 38.2536C84.6233 38.5852 84.6723 38.8985 84.6849 39.1936C84.7024 39.4842 84.7064 39.7204 84.6968 39.9022L84.4759 44.1174L82.7703 44.028ZM77.5345 43.7536L78.062 33.6874L79.5649 33.7662L79.2872 39.0649L79.49 39.0755L79.2401 43.843L77.5345 43.7536ZM86.8957 35.5242L86.9766 33.9794L88.6613 34.0677L88.5803 35.6125L86.8957 35.5242ZM86.4399 44.2203L86.8356 36.6707L88.5203 36.759L88.1246 44.3086L86.4399 44.2203ZM91.37 35.8218L93.3938 33.7199L94.8059 33.7939L96.5989 36.0959L95.026 36.0134L94.0497 34.7145L92.9359 35.9039L91.37 35.8218ZM96.4521 34.6161L95.5111 31.9733L96.7904 32.0403L97.7314 34.6832L96.4521 34.6161ZM93.6399 44.8079C92.8756 44.7679 92.2132 44.5673 91.6526 44.2061C91.0921 43.8449 90.6641 43.3622 90.3687 42.7579C90.0779 42.1539 89.9525 41.4697 89.9926 40.7054C90.0358 39.8806 90.2317 39.1735 90.5804 38.5843C90.9293 37.9904 91.3945 37.5405 91.9759 37.2345C92.5574 36.9285 93.2187 36.7949 93.9596 36.8337C94.7426 36.8748 95.397 37.0937 95.923 37.4904C96.4538 37.8827 96.8346 38.419 97.0653 39.0994C97.296 39.7797 97.3551 40.5702 97.2424 41.4709L95.5717 41.3833L95.604 40.7682C95.6423 39.9477 95.5292 39.3413 95.2647 38.9489C95.0002 38.5566 94.5627 38.3444 93.9522 38.3124C93.2625 38.2762 92.7387 38.4637 92.3806 38.8749C92.0229 39.2814 91.8225 39.8948 91.7795 40.715C91.7395 41.4792 91.8762 42.0799 92.1898 42.5169C92.5033 42.9539 92.9817 43.1893 93.6248 43.223C94.0396 43.2447 94.4008 43.1725 94.7086 43.0064C95.0213 42.8359 95.2684 42.5801 95.4498 42.2391L97.0871 42.8296C96.7625 43.4949 96.2874 44.0004 95.6618 44.3461C95.0408 44.6921 94.3669 44.846 93.6399 44.8079ZM91.2237 41.1555L91.2904 39.8832L96.4843 40.1554L96.4176 41.4277L91.2237 41.1555ZM101.449 45.2242C100.889 45.1949 100.433 45.0775 100.079 44.872C99.7255 44.6666 99.449 44.4138 99.2498 44.1136C99.0505 43.8134 98.9082 43.4975 98.8228 43.1659C98.7373 42.8343 98.6859 42.5232 98.6684 42.2326C98.6558 41.9375 98.6543 41.6991 98.6638 41.5174L98.8847 37.3021L100.59 37.3915L100.4 41.0265C100.388 41.2596 100.39 41.5237 100.407 41.819C100.425 42.1097 100.485 42.3932 100.587 42.6696C100.694 42.9416 100.86 43.1699 101.084 43.3545C101.313 43.5394 101.627 43.6424 102.028 43.6634C102.243 43.6746 102.456 43.6508 102.67 43.5919C102.883 43.5329 103.078 43.424 103.255 43.265C103.436 43.1016 103.586 42.8735 103.704 42.5806C103.822 42.2877 103.893 41.9129 103.917 41.4562L104.895 41.935C104.861 42.5781 104.704 43.1541 104.425 43.6628C104.151 44.1718 103.763 44.5698 103.262 44.8566C102.762 45.1388 102.157 45.2613 101.449 45.2242ZM103.928 45.1368L104.05 42.795L103.848 42.7844L104.121 37.5765L105.812 37.6652L105.417 45.2148L103.928 45.1368ZM110.837 45.4989L111.238 37.8304C111.248 37.6393 111.266 37.43 111.292 37.2024C111.319 36.9701 111.37 36.7415 111.447 36.5166C111.525 36.2916 111.654 36.0905 111.837 35.9131C112.063 35.6866 112.303 35.5356 112.554 35.46C112.811 35.38 113.061 35.3417 113.303 35.3451C113.546 35.3438 113.759 35.3479 113.941 35.3574L114.884 35.4069L114.812 36.777L113.939 36.7312C113.617 36.7144 113.373 36.7833 113.206 36.9382C113.044 37.0885 112.956 37.2942 112.942 37.5552L112.521 45.5872L110.837 45.4989ZM109.947 39.2067L110.016 37.8855L114.741 38.1332L114.672 39.4543L109.947 39.2067ZM116.269 37.0637L116.35 35.5188L118.035 35.6071L117.954 37.152L116.269 37.0637ZM115.814 45.7597L116.209 38.2101L117.894 38.2984L117.498 45.848L115.814 45.7597ZM119.74 45.9655L120.278 35.6896L121.963 35.7779L121.425 46.0538L119.74 45.9655ZM126.94 46.5531C126.176 46.5131 125.513 46.3125 124.953 45.9513C124.392 45.5901 123.964 45.1074 123.669 44.5031C123.378 43.8991 123.253 43.2149 123.293 42.4506C123.336 41.6257 123.532 40.9187 123.88 40.3295C124.229 39.7356 124.694 39.2856 125.276 38.9797C125.857 38.6737 126.519 38.5401 127.26 38.5789C128.043 38.62 128.697 38.8388 129.223 39.2356C129.754 39.6279 130.135 40.1642 130.365 40.8446C130.596 41.5249 130.655 42.3154 130.542 43.2161L128.872 43.1285L128.904 42.5134C128.942 41.6929 128.829 41.0865 128.565 40.6941C128.3 40.3017 127.863 40.0896 127.252 40.0576C126.563 40.0214 126.039 40.2089 125.681 40.6201C125.323 41.0266 125.123 41.6399 125.08 42.4601C125.039 43.2244 125.176 43.8251 125.49 44.2621C125.803 44.6991 126.282 44.9345 126.925 44.9682C127.34 44.9899 127.701 44.9177 128.009 44.7516C128.321 44.581 128.568 44.3253 128.75 43.9843L130.387 44.5748C130.063 45.2401 129.587 45.7456 128.962 46.0913C128.341 46.4373 127.667 46.5912 126.94 46.5531ZM124.524 42.9007L124.59 41.6284L129.784 41.9006L129.718 43.1729L124.524 42.9007ZM138.986 38.7939L139.055 37.4867L142.787 37.6824L142.719 38.9896L138.986 38.7939ZM137.744 47.1193C137.049 47.0829 136.453 46.8764 135.954 46.4998C135.455 46.1232 135.079 45.6268 134.826 45.0107C134.573 44.3947 134.467 43.7091 134.506 42.9542C134.546 42.1899 134.724 41.5169 135.04 40.9353C135.36 40.3493 135.793 39.8976 136.337 39.5804C136.882 39.2585 137.511 39.1162 138.224 39.1536C138.942 39.1912 139.534 39.3974 140 39.7724C140.472 40.1429 140.817 40.6353 141.037 41.2497C141.258 41.864 141.348 42.551 141.308 43.3106C141.269 44.0609 141.107 44.7324 140.824 45.3251C140.541 45.913 140.141 46.3687 139.624 46.6921C139.107 47.0155 138.48 47.1579 137.744 47.1193ZM138.081 45.6229C138.533 45.6466 138.902 45.5632 139.188 45.3725C139.479 45.1775 139.697 44.8968 139.842 44.5306C139.992 44.1646 140.08 43.737 140.106 43.2476C140.131 42.7536 140.089 42.3191 139.978 41.9441C139.871 41.5647 139.688 41.2654 139.429 41.0462C139.17 40.8223 138.825 40.6991 138.397 40.6767C137.945 40.653 137.566 40.7453 137.261 40.9536C136.956 41.1572 136.723 41.4441 136.564 41.8143C136.404 42.1798 136.313 42.5909 136.289 43.0476C136.265 43.509 136.31 43.9319 136.426 44.3165C136.546 44.6966 136.742 45.0037 137.015 45.2376C137.288 45.4715 137.643 45.6 138.081 45.6229ZM139.908 47.0224L140.185 41.7237L139.976 41.7127L140.226 36.9453L141.924 37.0343L141.397 47.1005L139.908 47.0224ZM144.529 38.6078L146.553 36.5058L147.965 36.5798L149.758 38.8818L148.185 38.7994L147.209 37.5005L146.102 38.6902L144.529 38.6078ZM149.601 36.9249L149.211 36.0703C149.489 35.8466 149.805 35.7113 150.158 35.6643C150.511 35.6174 150.84 35.672 151.145 35.8282C151.454 35.9799 151.676 36.2509 151.81 36.6411C151.92 36.9553 151.947 37.2418 151.891 37.5006C151.836 37.7547 151.726 37.9756 151.562 38.1632C151.398 38.3509 151.203 38.4996 150.978 38.6093C150.753 38.7143 150.525 38.7771 150.295 38.7978L150.031 38.09C150.291 38.0242 150.508 37.9024 150.681 37.7245C150.854 37.5467 150.886 37.3264 150.778 37.0637C150.708 36.8871 150.604 36.7789 150.466 36.7389C150.333 36.6992 150.188 36.701 150.031 36.7442C149.875 36.7827 149.732 36.843 149.601 36.9249ZM146.778 47.5928C146.014 47.5527 145.351 47.3521 144.791 46.991C144.23 46.6298 143.802 46.1471 143.507 45.5428C143.216 44.9387 143.091 44.2546 143.131 43.4903C143.174 42.6654 143.37 41.9584 143.718 41.3691C144.067 40.7752 144.533 40.3253 145.114 40.0193C145.695 39.7133 146.357 39.5798 147.098 39.6186C147.881 39.6596 148.535 39.8785 149.061 40.2752C149.592 40.6676 149.973 41.2039 150.203 41.8842C150.434 42.5646 150.493 43.3551 150.38 44.2558L148.71 44.1682L148.742 43.553C148.78 42.7326 148.667 42.1262 148.403 41.7338C148.138 41.3414 147.701 41.1292 147.09 41.0972C146.401 41.0611 145.877 41.2486 145.519 41.6597C145.161 42.0662 144.961 42.6796 144.918 43.4998C144.878 44.2641 145.014 44.8647 145.328 45.3018C145.641 45.7388 146.12 45.9741 146.763 46.0078C147.178 46.0296 147.539 45.9574 147.847 45.7913C148.159 45.6207 148.406 45.365 148.588 45.024L150.225 45.6145C149.901 46.2797 149.425 46.7852 148.8 47.131C148.179 47.4769 147.505 47.6309 146.778 47.5928ZM144.362 43.9403L144.428 42.6681L149.622 42.9403L149.556 44.2125L144.362 43.9403ZM153.867 47.754L157.568 37.8541L160.036 37.9835L162.682 48.216L160.948 48.1251L158.541 38.9426L158.919 38.9624L155.6 47.8449L153.867 47.754ZM155.75 45.6657L155.832 44.0928L161.117 44.3698L161.034 45.9427L155.75 45.6657ZM164.085 48.2895L164.613 38.2234L166.298 38.3116L165.77 48.3778L164.085 48.2895ZM35.2933 59.5645C34.7898 59.6316 34.2983 59.6456 33.8191 59.6064C33.3442 59.5722 32.9223 59.4637 32.5534 59.2808C32.1847 59.0932 31.9119 58.8149 31.735 58.4458C31.5796 58.1105 31.5062 57.7726 31.5147 57.4319C31.5232 57.0912 31.5387 56.7065 31.5612 56.2777L31.9052 49.7137L33.5829 49.8016L33.244 56.2678C33.2281 56.5707 33.2166 56.8365 33.2092 57.065C33.2066 57.2939 33.2458 57.4829 33.3267 57.632C33.4799 57.9204 33.7396 58.0905 34.1061 58.1425C34.4725 58.1944 34.8929 58.1977 35.3673 58.1525L35.2933 59.5645ZM30.3559 53.0602L30.4252 51.739L35.6889 52.0149L35.6197 53.3361L30.3559 53.0602ZM40.9854 51.206L39.7061 51.1389L40.9182 48.6089L42.1974 48.676L40.9854 51.206ZM39.8578 60.0141C39.1029 59.9745 38.4524 59.7698 37.9063 59.4001C37.3602 59.0303 36.9467 58.539 36.6657 57.9261C36.3897 57.3088 36.272 56.6111 36.3128 55.8328C36.3543 55.0405 36.5492 54.3545 36.8973 53.7746C37.2455 53.1946 37.7103 52.7517 38.2918 52.4457C38.8733 52.1397 39.5345 52.0062 40.2755 52.045C41.0351 52.0848 41.688 52.2896 42.234 52.6593C42.7801 53.0291 43.1935 53.5227 43.4742 54.1403C43.7552 54.7531 43.8753 55.4487 43.8345 56.227C43.7935 57.0099 43.5988 57.6937 43.2503 58.2782C42.9068 58.8584 42.4442 59.3038 41.8625 59.6144C41.281 59.9204 40.6128 60.0536 39.8578 60.0141ZM39.9406 58.4342C40.6117 58.4694 41.1221 58.2718 41.4718 57.8415C41.8214 57.4112 42.0148 56.8419 42.0519 56.1336C42.0903 55.4019 41.9554 54.8107 41.6472 54.3599C41.3393 53.9045 40.8545 53.6595 40.1927 53.6248C39.7406 53.6011 39.3625 53.6841 39.0581 53.8738C38.7587 54.059 38.5295 54.3297 38.3707 54.6859C38.212 55.0374 38.1203 55.4509 38.0954 55.9262C38.057 56.6579 38.1918 57.2514 38.4997 57.7068C38.8126 58.1578 39.2929 58.4003 39.9406 58.4342ZM54.2434 60.5577L54.4837 55.972C54.5109 55.4547 54.4038 55.0448 54.1626 54.7425C53.9217 54.4354 53.5822 54.2705 53.1442 54.2475C52.8739 54.2333 52.6282 54.2835 52.4073 54.3981C52.1865 54.5081 52.0069 54.6809 51.8684 54.9166C51.7301 55.1477 51.6523 55.4287 51.635 55.7596L50.9101 55.28C50.9328 54.7578 51.0733 54.3049 51.3318 53.9212C51.5951 53.5331 51.9377 53.238 52.3595 53.0358C52.7813 52.8336 53.2439 52.7457 53.7472 52.772C54.5814 52.8158 55.2067 53.1009 55.623 53.6274C56.0443 54.1495 56.2335 54.8183 56.1908 55.6338L55.9281 60.646L54.2434 60.5577ZM45.1629 60.0818L45.5585 52.5321L47.0475 52.6102L46.9248 54.952L47.1345 54.963L46.8615 60.1708L45.1629 60.0818ZM49.7136 60.3203L49.9529 55.7555C49.9805 55.2289 49.8738 54.8121 49.6329 54.5051C49.3919 54.1981 49.0501 54.0329 48.6074 54.0097C48.1786 53.9873 47.8261 54.116 47.5497 54.3959C47.278 54.6761 47.1298 55.0515 47.1052 55.5222L46.3766 54.9793C46.4022 54.49 46.5465 54.0559 46.8093 53.6772C47.0722 53.2984 47.4145 53.0079 47.8363 52.8057C48.2631 52.5991 48.7328 52.5092 49.2454 52.5361C49.8093 52.5657 50.2736 52.7115 50.6384 52.9736C51.0081 53.2313 51.2753 53.5724 51.4399 53.997C51.6095 54.4171 51.6807 54.8858 51.6536 55.4031L51.3913 60.4082L49.7136 60.3203ZM64.9752 61.1201C64.4717 61.1872 63.9803 61.2011 63.501 61.162C63.0262 61.1278 62.6043 61.0192 62.2353 60.8363C61.8666 60.6488 61.5938 60.3704 61.4169 60.0013C61.2616 59.6661 61.1882 59.3281 61.1967 58.9874C61.2052 58.6467 61.2207 58.262 61.2431 57.8333L61.5871 51.2693L63.2648 51.3572L62.926 57.8233C62.9101 58.1263 62.8985 58.392 62.8912 58.6206C62.8885 58.8495 62.9277 59.0384 63.0087 59.1875C63.1618 59.4759 63.4216 59.6461 63.788 59.698C64.1545 59.7499 64.5749 59.7533 65.0492 59.708L64.9752 61.1201ZM60.0379 54.6158L60.1071 53.2946L65.3709 53.5705L65.3016 54.8917L60.0379 54.6158ZM70.1427 52.9654C69.7513 52.9449 69.3998 52.8306 69.0882 52.6227C68.7813 52.415 68.5407 52.1477 68.3662 51.8208C68.192 51.4893 68.1151 51.1277 68.1356 50.7363L69.4498 50.8052C69.4381 51.0288 69.505 51.2239 69.6505 51.3905C69.8009 51.5525 69.9879 51.6395 70.2116 51.6512C70.4353 51.6629 70.6281 51.5959 70.7899 51.4502C70.9567 51.3 71.0459 51.1131 71.0576 50.8894L72.3718 50.9583C72.3513 51.3497 72.2371 51.7013 72.0292 52.0128C71.8215 52.3197 71.5519 52.5602 71.2203 52.7345C70.8934 52.9089 70.5342 52.9859 70.1427 52.9654ZM70.9508 50.2529L69.6785 50.1863L70.8906 47.6562L72.1699 47.7233L70.9508 50.2529ZM68.6988 61.5255C68.1535 61.497 67.6975 61.3703 67.3308 61.1454C66.9643 60.9159 66.6922 60.6236 66.5145 60.2685C66.3415 59.9136 66.2659 59.5288 66.2877 59.114C66.3067 58.7505 66.3844 58.4275 66.5207 58.1449C66.6572 57.8577 66.8568 57.6158 67.1195 57.4193C67.3824 57.2181 67.7178 57.0604 68.1256 56.9463C68.4337 56.8643 68.7925 56.7943 69.2021 56.7363C69.6163 56.6786 70.0629 56.6296 70.5416 56.5892C71.0253 56.5445 71.5302 56.4962 72.0563 56.4443L71.4372 56.7553C71.4692 56.2336 71.3728 55.843 71.1481 55.5836C70.9234 55.3241 70.529 55.1796 69.9652 55.1501C69.625 55.1322 69.2923 55.1943 68.967 55.3361C68.6418 55.4779 68.4062 55.739 68.2601 56.1192L66.7475 55.5562C66.9674 54.9275 67.3484 54.4335 67.8906 54.074C68.4375 53.7148 69.156 53.5585 70.0461 53.6052C70.7172 53.6404 71.301 53.7808 71.7975 54.0264C72.2986 54.2723 72.6596 54.6511 72.8805 55.1627C73.0017 55.4354 73.069 55.7123 73.0823 55.9934C73.0958 56.2698 73.0941 56.5711 73.077 56.8973L72.8341 61.532L71.3591 61.4547L71.4448 59.8189L71.6756 60.0974C71.3068 60.6248 70.8873 61.0047 70.4172 61.2371C69.952 61.465 69.3792 61.5612 68.6988 61.5255ZM69.1046 60.201C69.4868 60.221 69.8165 60.1705 70.0939 60.0495C70.3713 59.9286 70.5943 59.7743 70.763 59.5869C70.9364 59.3997 71.0556 59.2214 71.1205 59.0519C71.2203 58.8422 71.2821 58.6001 71.3058 58.3256C71.3344 58.0467 71.3533 57.8211 71.3623 57.6486L71.8715 57.8295C71.3594 57.8821 70.92 57.9292 70.5533 57.9707C70.1867 58.0123 69.8714 58.0542 69.6075 58.0964C69.3438 58.134 69.1101 58.1801 68.9063 58.2349C68.7069 58.2945 68.5371 58.3674 68.3971 58.4535C68.2571 58.5397 68.1466 58.6414 68.0657 58.7586C67.9894 58.8761 67.947 59.0164 67.9385 59.1795C67.9287 59.3659 67.9667 59.5338 68.0523 59.6832C68.1382 59.8279 68.2675 59.9468 68.4401 60.04C68.6175 60.1334 68.839 60.187 69.1046 60.201ZM79.0789 61.8593C78.5754 61.9263 78.084 61.9403 77.6047 61.9012C77.1298 61.8669 76.708 61.7584 76.339 61.5755C75.9703 61.3879 75.6975 61.1096 75.5206 60.7405C75.3653 60.4052 75.2918 60.0673 75.3004 59.7266C75.3089 59.3859 75.3244 59.0012 75.3468 58.5724L75.6908 52.0084L77.3685 52.0964L77.0297 58.5625C77.0138 58.8654 77.0022 59.1312 76.9949 59.3598C76.9922 59.5886 77.0314 59.7776 77.1124 59.9267C77.2655 60.2151 77.5253 60.3853 77.8917 60.4372C78.2582 60.4891 78.6786 60.4924 79.1529 60.4472L79.0789 61.8593ZM74.1416 55.3549L74.2108 54.0337L79.4746 54.3096L79.4053 55.6308L74.1416 55.3549ZM86.7687 62.4725C85.9905 62.4318 85.3354 62.2245 84.8036 61.8508C84.272 61.4725 83.8751 60.9751 83.6131 60.3585C83.3556 59.7422 83.2445 59.0541 83.2796 58.2942C83.3248 57.5209 83.5122 56.8437 83.8417 56.2628C84.1761 55.6775 84.6296 55.2293 85.202 54.9182C85.7746 54.6024 86.4431 54.4645 87.2074 54.5046C88.0648 54.5495 88.7782 54.8042 89.3473 55.2686C89.9213 55.7286 90.2797 56.3362 90.4224 57.0914L88.7209 57.4578C88.6116 57.0456 88.4114 56.7196 88.1202 56.4801C87.8293 56.2358 87.4904 56.1036 87.1036 56.0833C86.6655 56.0604 86.2989 56.1463 86.0036 56.3411C85.7086 56.5313 85.484 56.8045 85.3298 57.161C85.1756 57.5174 85.0864 57.9263 85.0622 58.3876C85.0246 59.1053 85.155 59.6939 85.4533 60.1535C85.7517 60.6131 86.2177 60.8595 86.8515 60.8927C87.2989 60.9162 87.6561 60.8321 87.9232 60.6405C88.1949 60.4491 88.4062 60.1634 88.5569 59.7834L90.2564 60.258C89.9831 61.0148 89.5443 61.5853 88.94 61.9695C88.336 62.3491 87.6123 62.5168 86.7687 62.4725ZM94.6937 54.0207L93.7527 51.3779L95.0319 51.4449L95.9729 54.0878L94.6937 54.0207ZM94.3627 62.8775C93.8035 62.8482 93.347 62.7308 92.9932 62.5254C92.6395 62.3199 92.363 62.0671 92.1638 61.7669C91.9646 61.4668 91.8222 61.1509 91.7368 60.8193C91.6514 60.4877 91.5999 60.1766 91.5824 59.8859C91.5699 59.5909 91.5683 59.3525 91.5779 59.1707L91.7988 54.9555L93.5044 55.0449L93.3139 58.6799C93.3017 58.9129 93.3042 59.1771 93.3215 59.4724C93.339 59.763 93.3989 60.0465 93.5012 60.323C93.6085 60.5949 93.7741 60.8233 93.998 61.0079C94.2267 61.1928 94.5414 61.2957 94.9422 61.3167C95.1565 61.328 95.3704 61.3041 95.5838 61.2452C95.7972 61.1863 95.9921 61.0774 96.1687 60.9184C96.3502 60.755 96.5 60.5268 96.6181 60.234C96.7363 59.9411 96.8073 59.5663 96.8313 59.1096L97.8086 59.5884C97.7749 60.2315 97.6185 60.8074 97.3395 61.3162C97.0651 61.8252 96.6774 62.2231 96.1764 62.51C95.6756 62.7921 95.0711 62.9147 94.3627 62.8775ZM96.8417 62.7902L96.9644 60.4484L96.7617 60.4377L97.0346 55.2299L98.7263 55.3185L98.3306 62.8682L96.8417 62.7902ZM105.516 63.2448L105.707 59.6098C105.719 59.3721 105.717 59.1079 105.699 58.8173C105.682 58.5266 105.62 58.2453 105.512 57.9733C105.41 57.6969 105.244 57.4663 105.016 57.2814C104.792 57.0968 104.479 56.9939 104.079 56.9729C103.864 56.9617 103.65 56.9855 103.437 57.0445C103.224 57.1034 103.026 57.2145 102.845 57.3779C102.668 57.5369 102.521 57.7628 102.403 58.0557C102.285 58.3439 102.214 58.7187 102.19 59.1801L101.212 58.7013C101.246 58.0582 101.4 57.4821 101.674 56.9731C101.953 56.4643 102.343 56.0689 102.844 55.7867C103.345 55.4999 103.95 55.375 104.658 55.4121C105.217 55.4414 105.674 55.5588 106.028 55.7643C106.381 55.9697 106.658 56.2226 106.857 56.5227C107.056 56.8229 107.199 57.1388 107.284 57.4704C107.369 57.802 107.418 58.1153 107.431 58.4104C107.449 58.701 107.453 58.9372 107.443 59.119L107.222 63.3342L105.516 63.2448ZM100.281 62.9704L100.676 55.4207L102.179 55.4995L102.056 57.8413L102.259 57.8519L101.986 63.0598L100.281 62.9704ZM112.033 67.1612C111.614 67.1392 111.214 67.0529 110.834 66.9021C110.459 66.7516 110.124 66.5448 109.829 66.2817C109.534 66.0232 109.298 65.7164 109.12 65.3613L110.712 64.6737C110.843 64.9562 111.035 65.1696 111.289 65.3137C111.547 65.4628 111.826 65.5451 112.124 65.5608C112.473 65.5791 112.789 65.5325 113.071 65.4211C113.352 65.3144 113.573 65.1437 113.735 64.9092C113.902 64.6796 113.989 64.3851 113.999 64.0258L114.111 61.8797L114.321 61.8907L114.622 56.1516L116.097 56.2289L115.682 64.142C115.672 64.3331 115.653 64.5144 115.626 64.6858C115.602 64.8622 115.568 65.0333 115.522 65.1991C115.384 65.6826 115.149 66.0721 114.815 66.3677C114.482 66.668 114.076 66.8827 113.597 67.0119C113.123 67.1412 112.602 67.191 112.033 67.1612ZM112.062 63.7981C111.368 63.7617 110.771 63.5552 110.272 63.1786C109.773 62.802 109.397 62.3056 109.144 61.6895C108.892 61.0735 108.785 60.3879 108.825 59.633C108.865 58.8687 109.043 58.1957 109.358 57.6141C109.679 57.0281 110.111 56.5764 110.656 56.2592C111.201 55.9373 111.83 55.795 112.543 55.8323C113.26 55.87 113.852 56.0762 114.319 56.4511C114.79 56.8217 115.136 57.3141 115.356 57.9285C115.576 58.5428 115.666 59.2298 115.626 59.9894C115.587 60.7397 115.426 61.4112 115.142 62.0039C114.859 62.5918 114.459 63.0475 113.942 63.3709C113.425 63.6943 112.798 63.8367 112.062 63.7981ZM112.4 62.3017C112.852 62.3254 113.221 62.242 113.507 62.0513C113.797 61.8563 114.015 61.5756 114.16 61.2094C114.311 60.8434 114.398 60.4158 114.424 59.9264C114.45 59.4324 114.407 58.9979 114.296 58.6229C114.19 58.2435 114.007 57.9442 113.747 57.725C113.488 57.5011 113.144 57.3779 112.715 57.3555C112.263 57.3318 111.884 57.4241 111.579 57.6324C111.274 57.836 111.042 58.1229 110.882 58.4931C110.723 58.8586 110.631 59.2697 110.607 59.7264C110.583 60.1878 110.629 60.6107 110.744 60.9953C110.864 61.3754 111.061 61.6825 111.334 61.9164C111.606 62.1503 111.962 62.2788 112.4 62.3017ZM122.208 64.1195L122.639 55.8918L120.691 56.9463L120.789 55.0869L122.735 54.0534L124.455 54.1435L123.928 64.2097L122.208 64.1195ZM129.529 64.5032L130.068 54.2273L131.752 54.3156L131.214 64.5915L129.529 64.5032ZM137.647 56.2718L136.375 56.2051L137.587 53.6751L138.866 53.7421L137.647 56.2718ZM136.128 65.0664C135.568 65.037 135.112 64.9197 134.758 64.7142C134.404 64.5087 134.128 64.2559 133.929 63.9557C133.73 63.6556 133.587 63.3397 133.502 63.0081C133.416 62.6765 133.365 62.3654 133.347 62.0747C133.335 61.7797 133.333 61.5413 133.343 61.3595L133.564 57.1443L135.269 57.2337L135.079 60.8687C135.067 61.1017 135.069 61.3659 135.086 61.6612C135.104 61.9518 135.164 62.2354 135.266 62.5118C135.373 62.7837 135.539 63.0121 135.763 63.1967C135.992 63.3816 136.306 63.4845 136.707 63.5055C136.922 63.5168 137.135 63.4929 137.349 63.434C137.562 63.3751 137.757 63.2662 137.934 63.1072C138.115 62.9438 138.265 62.7157 138.383 62.4228C138.501 62.1299 138.572 61.7551 138.596 61.2984L139.574 61.7772C139.54 62.4203 139.383 62.9962 139.104 63.505C138.83 64.014 138.442 64.4119 137.941 64.6988C137.441 64.9809 136.836 65.1035 136.128 65.0664ZM138.607 64.979L138.729 62.6372L138.527 62.6266L138.8 57.4187L140.491 57.5074L140.096 65.057L138.607 64.979ZM145.327 65.5415C144.549 65.5007 143.894 65.2934 143.362 64.9198C142.83 64.5414 142.433 64.044 142.171 63.4274C141.914 62.8111 141.803 62.123 141.838 61.3631C141.883 60.5898 142.071 59.9126 142.4 59.3318C142.734 58.7465 143.188 58.2982 143.76 57.9871C144.333 57.6713 145.001 57.5334 145.766 57.5735C146.623 57.6184 147.336 57.8731 147.906 58.3375C148.48 58.7975 148.838 59.4051 148.981 60.1603L147.279 60.5268C147.17 60.1145 146.97 59.7885 146.679 59.549C146.388 59.3047 146.049 59.1725 145.662 59.1522C145.224 59.1293 144.857 59.2152 144.562 59.41C144.267 59.6002 144.042 59.8735 143.888 60.2299C143.734 60.5863 143.645 60.9952 143.621 61.4565C143.583 62.1742 143.713 62.7629 144.012 63.2224C144.31 63.682 144.776 63.9284 145.41 63.9616C145.857 63.9851 146.214 63.901 146.482 63.7094C146.753 63.518 146.965 63.2323 147.115 62.8524L148.815 63.327C148.541 64.0837 148.103 64.6542 147.498 65.0384C146.894 65.418 146.171 65.5857 145.327 65.5415Z" fill="#211B00"/>
<g opacity="0.3">
<path d="M161.698 104.241L163.59 106.343L163.486 108.341L158.493 108.079L158.179 114.071L157.128 115.017L156.181 113.966L156.495 107.974L151.502 107.713L151.607 105.715L153.709 103.823L154.075 96.8324L153.077 96.7801L153.181 94.7828L163.168 95.3062L163.063 97.3034L162.064 97.2511L161.698 104.241ZM154.453 105.865L160.744 106.194L159.656 104.986L160.067 97.1464L156.072 96.9371L155.662 104.776L154.453 105.865Z" fill="#211B00"/>
</g>
</g>
<defs>
<filter id="filter0_d_66_381" x="0" y="0" width="212.687" height="149.285" filterUnits="userSpaceOnUse" color-interpolation-filters="sRGB">
<feFlood flood-opacity="0" result="BackgroundImageFix"/>
<feColorMatrix in="SourceAlpha" type="matrix" values="0 0 0 0 0 0 0 0 0 0 0 0 0 0 0 0 0 0 127 0" result="hardAlpha"/>
<feOffset dx="6" dy="6"/>
<feComposite in2="hardAlpha" operator="out"/>
<feColorMatrix type="matrix" values="0 0 0 0 0.176471 0 0 0 0 0.184314 0 0 0 0 0.172549 0 0 0 1 0"/>
<feBlend mode="normal" in2="BackgroundImageFix" result="effect1_dropShadow_66_381"/>
<feBlend mode="normal" in="SourceGraphic" in2="effect1_dropShadow_66_381" result="shape"/>
</filter>
</defs>
</svg>
