<svg width="1280" height="1024" viewBox="0 0 1280 1024" fill="none" xmlns="http://www.w3.org/2000/svg">
<g opacity="0.02">
<g filter="url(#filter0_d_66_247)">
<path d="M512 940C512 926.745 522.745 916 536 916H719.95C729.891 916 737.95 924.059 737.95 934V960C737.95 972.15 728.1 982 715.95 982H532C520.954 982 512 973.046 512 962V940Z" fill="#3B644E" shape-rendering="crispEdges"/>
<path d="M536 917.5H719.95C729.063 917.5 736.45 924.887 736.45 934V960C736.45 971.322 727.272 980.5 715.95 980.5H532C521.783 980.5 513.5 972.217 513.5 962V940C513.5 927.574 523.574 917.5 536 917.5Z" stroke="#2D2F2C" stroke-width="3" shape-rendering="crispEdges"/>
<path d="M556 954H558V950H562V948H558V944H556V948H552V950H556V954ZM557 959C555.617 959 554.317 958.737 553.1 958.212C551.883 957.688 550.825 956.975 549.925 956.075C549.025 955.175 548.312 954.117 547.788 952.9C547.263 951.683 547 950.383 547 949C547 947.617 547.263 946.317 547.788 945.1C548.312 943.883 549.025 942.825 549.925 941.925C550.825 941.025 551.883 940.312 553.1 939.788C554.317 939.263 555.617 939 557 939C558.383 939 559.683 939.263 560.9 939.788C562.117 940.312 563.175 941.025 564.075 941.925C564.975 942.825 565.688 943.883 566.212 945.1C566.737 946.317 567 947.617 567 949C567 950.383 566.737 951.683 566.212 952.9C565.688 954.117 564.975 955.175 564.075 956.075C563.175 956.975 562.117 957.688 560.9 958.212C559.683 958.737 558.383 959 557 959Z" fill="#CFFDE1"/>
<path d="M585.01 955H583.35V940.25H586.14L592.4 954.02L592.27 954.1V940.25H593.93V955H591.1L584.86 941.25L585.01 941.18V955ZM597.42 950.37V948.85H605.63L605.33 949.35C605.33 949.31 605.33 949.272 605.33 949.235C605.33 949.198 605.33 949.163 605.33 949.13C605.33 948.517 605.202 947.955 604.945 947.445C604.688 946.935 604.307 946.527 603.8 946.22C603.293 945.913 602.667 945.76 601.92 945.76C601.167 945.76 600.503 945.92 599.93 946.24C599.357 946.56 598.91 947.012 598.59 947.595C598.27 948.178 598.11 948.873 598.11 949.68C598.11 950.5 598.265 951.207 598.575 951.8C598.885 952.393 599.327 952.85 599.9 953.17C600.473 953.49 601.153 953.65 601.94 953.65C602.5 953.65 602.987 953.592 603.4 953.475C603.813 953.358 604.155 953.202 604.425 953.005C604.695 952.808 604.9 952.593 605.04 952.36C605.18 952.127 605.263 951.893 605.29 951.66H606.99C606.957 952.087 606.823 952.51 606.59 952.93C606.357 953.35 606.027 953.732 605.6 954.075C605.173 954.418 604.65 954.693 604.03 954.9C603.41 955.107 602.697 955.21 601.89 955.21C600.823 955.21 599.883 954.977 599.07 954.51C598.257 954.043 597.618 953.397 597.155 952.57C596.692 951.743 596.46 950.793 596.46 949.72C596.46 948.633 596.693 947.678 597.16 946.855C597.627 946.032 598.27 945.387 599.09 944.92C599.91 944.453 600.847 944.22 601.9 944.22C602.973 944.22 603.903 944.453 604.69 944.92C605.477 945.387 606.083 946.025 606.51 946.835C606.937 947.645 607.15 948.567 607.15 949.6C607.15 949.707 607.147 949.847 607.14 950.02C607.133 950.193 607.123 950.31 607.11 950.37H597.42ZM618.05 955L615.08 944.38H616.59L619.4 954.25H619.09L620.95 944.38H622.72L620.43 955H618.05ZM610.87 955L608.56 944.38H610.33L612.21 954.25H611.9L614.68 944.38H616.19L613.26 955H610.87ZM631.44 955H629.73V940.25H633.87C635.01 940.25 635.957 940.462 636.71 940.885C637.463 941.308 638.027 941.877 638.4 942.59C638.773 943.303 638.96 944.097 638.96 944.97C638.96 945.843 638.768 946.65 638.385 947.39C638.002 948.13 637.432 948.725 636.675 949.175C635.918 949.625 634.983 949.85 633.87 949.85H631.44V955ZM631.44 949.22L630.67 948.35H633.66C634.46 948.35 635.125 948.208 635.655 947.925C636.185 947.642 636.582 947.247 636.845 946.74C637.108 946.233 637.24 945.643 637.24 944.97C637.24 944.29 637.113 943.71 636.86 943.23C636.607 942.75 636.217 942.383 635.69 942.13C635.163 941.877 634.487 941.75 633.66 941.75H630.67L631.44 940.78V949.22ZM641.35 955V944.38H643.05V947.64L642.49 947.44C642.53 947.047 642.63 946.658 642.79 946.275C642.95 945.892 643.172 945.545 643.455 945.235C643.738 944.925 644.093 944.678 644.52 944.495C644.947 944.312 645.447 944.22 646.02 944.22C646.447 944.22 646.795 944.255 647.065 944.325C647.335 944.395 647.503 944.45 647.57 944.49L647.13 946.16C647.063 946.113 646.928 946.053 646.725 945.98C646.522 945.907 646.233 945.87 645.86 945.87C645.307 945.87 644.848 945.97 644.485 946.17C644.122 946.37 643.835 946.635 643.625 946.965C643.415 947.295 643.267 947.653 643.18 948.04C643.093 948.427 643.05 948.81 643.05 949.19V955H641.35ZM654.23 955.19C653.163 955.19 652.222 954.952 651.405 954.475C650.588 953.998 649.948 953.345 649.485 952.515C649.022 951.685 648.79 950.74 648.79 949.68C648.79 948.62 649.022 947.68 649.485 946.86C649.948 946.04 650.588 945.397 651.405 944.93C652.222 944.463 653.163 944.23 654.23 944.23C655.297 944.23 656.238 944.463 657.055 944.93C657.872 945.397 658.512 946.04 658.975 946.86C659.438 947.68 659.67 948.62 659.67 949.68C659.67 950.74 659.438 951.685 658.975 952.515C658.512 953.345 657.872 953.998 657.055 954.475C656.238 954.952 655.297 955.19 654.23 955.19ZM654.23 953.63C654.963 953.63 655.61 953.467 656.17 953.14C656.73 952.813 657.168 952.353 657.485 951.76C657.802 951.167 657.96 950.473 657.96 949.68C657.96 948.887 657.802 948.198 657.485 947.615C657.168 947.032 656.73 946.582 656.17 946.265C655.61 945.948 654.963 945.79 654.23 945.79C653.503 945.79 652.858 945.948 652.295 946.265C651.732 946.582 651.292 947.032 650.975 947.615C650.658 948.198 650.5 948.887 650.5 949.68C650.5 950.473 650.658 951.167 650.975 951.76C651.292 952.353 651.732 952.813 652.295 953.14C652.858 953.467 653.503 953.63 654.23 953.63ZM660.57 959.46C660.383 959.46 660.21 959.453 660.05 959.44C659.89 959.427 659.763 959.41 659.67 959.39V958.09C659.763 958.117 659.892 958.14 660.055 958.16C660.218 958.18 660.39 958.19 660.57 958.19C661.03 958.19 661.393 958.12 661.66 957.98C661.927 957.84 662.122 957.658 662.245 957.435C662.368 957.212 662.448 956.965 662.485 956.695C662.522 956.425 662.54 956.16 662.54 955.9V944.38H664.24V955.97C664.24 956.41 664.198 956.837 664.115 957.25C664.032 957.663 663.867 958.037 663.62 958.37C663.373 958.703 663.007 958.968 662.52 959.165C662.033 959.362 661.383 959.46 660.57 959.46ZM663.43 941.94C663.117 941.94 662.845 941.852 662.615 941.675C662.385 941.498 662.27 941.257 662.27 940.95C662.27 940.65 662.385 940.412 662.615 940.235C662.845 940.058 663.117 939.97 663.43 939.97C663.743 939.97 664.013 940.058 664.24 940.235C664.467 940.412 664.58 940.65 664.58 940.95C664.58 941.257 664.467 941.498 664.24 941.675C664.013 941.852 663.743 941.94 663.43 941.94ZM667.99 950.37V948.85H676.2L675.9 949.35C675.9 949.31 675.9 949.272 675.9 949.235C675.9 949.198 675.9 949.163 675.9 949.13C675.9 948.517 675.772 947.955 675.515 947.445C675.258 946.935 674.877 946.527 674.37 946.22C673.863 945.913 673.237 945.76 672.49 945.76C671.737 945.76 671.073 945.92 670.5 946.24C669.927 946.56 669.48 947.012 669.16 947.595C668.84 948.178 668.68 948.873 668.68 949.68C668.68 950.5 668.835 951.207 669.145 951.8C669.455 952.393 669.897 952.85 670.47 953.17C671.043 953.49 671.723 953.65 672.51 953.65C673.07 953.65 673.557 953.592 673.97 953.475C674.383 953.358 674.725 953.202 674.995 953.005C675.265 952.808 675.47 952.593 675.61 952.36C675.75 952.127 675.833 951.893 675.86 951.66H677.56C677.527 952.087 677.393 952.51 677.16 952.93C676.927 953.35 676.597 953.732 676.17 954.075C675.743 954.418 675.22 954.693 674.6 954.9C673.98 955.107 673.267 955.21 672.46 955.21C671.393 955.21 670.453 954.977 669.64 954.51C668.827 954.043 668.188 953.397 667.725 952.57C667.262 951.743 667.03 950.793 667.03 949.72C667.03 948.633 667.263 947.678 667.73 946.855C668.197 946.032 668.84 945.387 669.66 944.92C670.48 944.453 671.417 944.22 672.47 944.22C673.543 944.22 674.473 944.453 675.26 944.92C676.047 945.387 676.653 946.025 677.08 946.835C677.507 947.645 677.72 948.567 677.72 949.6C677.72 949.707 677.717 949.847 677.71 950.02C677.703 950.193 677.693 950.31 677.68 950.37H667.99ZM685.41 955.2C684.397 955.2 683.477 954.978 682.65 954.535C681.823 954.092 681.168 953.457 680.685 952.63C680.202 951.803 679.96 950.82 679.96 949.68C679.96 948.54 680.202 947.562 680.685 946.745C681.168 945.928 681.823 945.303 682.65 944.87C683.477 944.437 684.397 944.22 685.41 944.22C686.183 944.22 686.873 944.338 687.48 944.575C688.087 944.812 688.6 945.127 689.02 945.52C689.44 945.913 689.762 946.345 689.985 946.815C690.208 947.285 690.32 947.753 690.32 948.22C690.32 948.227 690.32 948.237 690.32 948.25C690.32 948.263 690.32 948.277 690.32 948.29H688.63C688.63 948.257 688.627 948.218 688.62 948.175C688.613 948.132 688.607 948.087 688.6 948.04C688.547 947.593 688.377 947.202 688.09 946.865C687.803 946.528 687.43 946.263 686.97 946.07C686.51 945.877 685.987 945.78 685.4 945.78C684.74 945.78 684.128 945.922 683.565 946.205C683.002 946.488 682.548 946.918 682.205 947.495C681.862 948.072 681.69 948.8 681.69 949.68C681.69 950.553 681.86 951.283 682.2 951.87C682.54 952.457 682.992 952.898 683.555 953.195C684.118 953.492 684.733 953.64 685.4 953.64C686.12 953.64 686.713 953.527 687.18 953.3C687.647 953.073 687.998 952.772 688.235 952.395C688.472 952.018 688.603 951.613 688.63 951.18H690.32C690.32 951.66 690.213 952.138 690 952.615C689.787 953.092 689.473 953.525 689.06 953.915C688.647 954.305 688.135 954.617 687.525 954.85C686.915 955.083 686.21 955.2 685.41 955.2ZM696.95 955.16C696.623 955.16 696.303 955.123 695.99 955.05C695.677 954.977 695.395 954.845 695.145 954.655C694.895 954.465 694.697 954.195 694.55 953.845C694.403 953.495 694.33 953.043 694.33 952.49C694.33 952.35 694.33 952.205 694.33 952.055C694.33 951.905 694.33 951.747 694.33 951.58V945.88H691.74V944.38H693.4C693.627 944.38 693.803 944.372 693.93 944.355C694.057 944.338 694.148 944.295 694.205 944.225C694.262 944.155 694.297 944.045 694.31 943.895C694.323 943.745 694.33 943.537 694.33 943.27V940.86H696.04V944.38H699.36V945.88H696.04V951.03C696.04 951.177 696.04 951.32 696.04 951.46C696.04 951.6 696.04 951.73 696.04 951.85C696.04 952.417 696.108 952.86 696.245 953.18C696.382 953.5 696.69 953.66 697.17 953.66C697.363 953.66 697.547 953.643 697.72 953.61C697.893 953.577 698.023 953.543 698.11 953.51V954.99C697.997 955.03 697.838 955.068 697.635 955.105C697.432 955.142 697.203 955.16 696.95 955.16Z" fill="#CFFDE1"/>
</g>
</g>
<defs>
<filter id="filter0_d_66_247" x="512" y="916" width="233.95" height="74" filterUnits="userSpaceOnUse" color-interpolation-filters="sRGB">
<feFlood flood-opacity="0" result="BackgroundImageFix"/>
<feColorMatrix in="SourceAlpha" type="matrix" values="0 0 0 0 0 0 0 0 0 0 0 0 0 0 0 0 0 0 127 0" result="hardAlpha"/>
<feOffset dx="8" dy="8"/>
<feComposite in2="hardAlpha" operator="out"/>
<feColorMatrix type="matrix" values="0 0 0 0 0.176471 0 0 0 0 0.184314 0 0 0 0 0.172549 0 0 0 0.1 0"/>
<feBlend mode="normal" in2="BackgroundImageFix" result="effect1_dropShadow_66_247"/>
<feBlend mode="normal" in="SourceGraphic" in2="effect1_dropShadow_66_247" result="shape"/>
</filter>
</defs>
</svg>
