<svg width="1280" height="126" viewBox="0 0 1280 126" fill="none" xmlns="http://www.w3.org/2000/svg">
<mask id="path-1-inside-1_11_136" fill="white">
<path d="M0 0H1280V126H0V0Z"/>
</mask>
<path d="M1280 0V-1H1277V0V1H1280V0ZM1273 0V-1H1267V0V1H1273V0ZM1263 0V-1H1257V0V1H1263V0ZM1253 0V-1H1247V0V1H1253V0ZM1243 0V-1H1237V0V1H1243V0ZM1233 0V-1H1227V0V1H1233V0ZM1223 0V-1H1217V0V1H1223V0ZM1213 0V-1H1207V0V1H1213V0ZM1203 0V-1H1197V0V1H1203V0ZM1193 0V-1H1187V0V1H1193V0ZM1183 0V-1H1177V0V1H1183V0ZM1173 0V-1H1167V0V1H1173V0ZM1163 0V-1H1157V0V1H1163V0ZM1153 0V-1H1147V0V1H1153V0ZM1143 0V-1H1137V0V1H1143V0ZM1133 0V-1H1127V0V1H1133V0ZM1123 0V-1H1117V0V1H1123V0ZM1113 0V-1H1107V0V1H1113V0ZM1103 0V-1H1097V0V1H1103V0ZM1093 0V-1H1087V0V1H1093V0ZM1083 0V-1H1077V0V1H1083V0ZM1073 0V-1H1067V0V1H1073V0ZM1063 0V-1H1057V0V1H1063V0ZM1053 0V-1H1047V0V1H1053V0ZM1043 0V-1H1037V0V1H1043V0ZM1033 0V-1H1027V0V1H1033V0ZM1023 0V-1H1017V0V1H1023V0ZM1013 0V-1H1007V0V1H1013V0ZM1003 0V-1H997V0V1H1003V0ZM993 0V-1H987V0V1H993V0ZM983 0V-1H977V0V1H983V0ZM973 0V-1H967V0V1H973V0ZM963 0V-1H957V0V1H963V0ZM953 0V-1H947V0V1H953V0ZM943 0V-1H937V0V1H943V0ZM933 0V-1H927V0V1H933V0ZM923 0V-1H917V0V1H923V0ZM913 0V-1H907V0V1H913V0ZM903 0V-1H897V0V1H903V0ZM893 0V-1H887V0V1H893V0ZM883 0V-1H877V0V1H883V0ZM873 0V-1H867V0V1H873V0ZM863 0V-1H857V0V1H863V0ZM853 0V-1H847V0V1H853V0ZM843 0V-1H837V0V1H843V0ZM833 0V-1H827V0V1H833V0ZM823 0V-1H817V0V1H823V0ZM813 0V-1H807V0V1H813V0ZM803 0V-1H797V0V1H803V0ZM793 0V-1H787V0V1H793V0ZM783 0V-1H777V0V1H783V0ZM773 0V-1H767V0V1H773V0ZM763 0V-1H757V0V1H763V0ZM753 0V-1H747V0V1H753V0ZM743 0V-1H737V0V1H743V0ZM733 0V-1H727V0V1H733V0ZM723 0V-1H717V0V1H723V0ZM713 0V-1H707V0V1H713V0ZM703 0V-1H697V0V1H703V0ZM693 0V-1H687V0V1H693V0ZM683 0V-1H677V0V1H683V0ZM673 0V-1H667V0V1H673V0ZM663 0V-1H657V0V1H663V0ZM653 0V-1H647V0V1H653V0ZM643 0V-1H637V0V1H643V0ZM633 0V-1H627V0V1H633V0ZM623 0V-1H617V0V1H623V0ZM613 0V-1H607V0V1H613V0ZM603 0V-1H597V0V1H603V0ZM593 0V-1H587V0V1H593V0ZM583 0V-1H577V0V1H583V0ZM573 0V-1H567V0V1H573V0ZM563 0V-1H557V0V1H563V0ZM553 0V-1H547V0V1H553V0ZM543 0V-1H537V0V1H543V0ZM533 0V-1H527V0V1H533V0ZM523 0V-1H517V0V1H523V0ZM513 0V-1H507V0V1H513V0ZM503 0V-1H497V0V1H503V0ZM493 0V-1H487V0V1H493V0ZM483 0V-1H477V0V1H483V0ZM473 0V-1H467V0V1H473V0ZM463 0V-1H457V0V1H463V0ZM453 0V-1H447V0V1H453V0ZM443 0V-1H437V0V1H443V0ZM433 0V-1H427V0V1H433V0ZM423 0V-1H417V0V1H423V0ZM413 0V-1H407V0V1H413V0ZM403 0V-1H397V0V1H403V0ZM393 0V-1H387V0V1H393V0ZM383 0V-1H377V0V1H383V0ZM373 0V-1H367V0V1H373V0ZM363 0V-1H357V0V1H363V0ZM353 0V-1H347V0V1H353V0ZM343 0V-1H337V0V1H343V0ZM333 0V-1H327V0V1H333V0ZM323 0V-1H317V0V1H323V0ZM313 0V-1H307V0V1H313V0ZM303 0V-1H297V0V1H303V0ZM293 0V-1H287V0V1H293V0ZM283 0V-1H277V0V1H283V0ZM273 0V-1H267V0V1H273V0ZM263 0V-1H257V0V1H263V0ZM253 0V-1H247V0V1H253V0ZM243 0V-1H237V0V1H243V0ZM233 0V-1H227V0V1H233V0ZM223 0V-1H217V0V1H223V0ZM213 0V-1H207V0V1H213V0ZM203 0V-1H197V0V1H203V0ZM193 0V-1H187V0V1H193V0ZM183 0V-1H177V0V1H183V0ZM173 0V-1H167V0V1H173V0ZM163 0V-1H157V0V1H163V0ZM153 0V-1H147V0V1H153V0ZM143 0V-1H137V0V1H143V0ZM133 0V-1H127V0V1H133V0ZM123 0V-1H117V0V1H123V0ZM113 0V-1H107V0V1H113V0ZM103 0V-1H97V0V1H103V0ZM93 0V-1H87V0V1H93V0ZM83 0V-1H77V0V1H83V0ZM73 0V-1H67V0V1H73V0ZM63 0V-1H57V0V1H63V0ZM53 0V-1H47V0V1H53V0ZM43 0V-1H37V0V1H43V0ZM33 0V-1H27V0V1H33V0ZM23 0V-1H17V0V1H23V0ZM13 0V-1H6.99997V0V1H13V0ZM3.00003 0V-1H0V0V1H3.00003V0ZM1280 0V-2H1277V0V2H1280V0ZM1273 0V-2H1267V0V2H1273V0ZM1263 0V-2H1257V0V2H1263V0ZM1253 0V-2H1247V0V2H1253V0ZM1243 0V-2H1237V0V2H1243V0ZM1233 0V-2H1227V0V2H1233V0ZM1223 0V-2H1217V0V2H1223V0ZM1213 0V-2H1207V0V2H1213V0ZM1203 0V-2H1197V0V2H1203V0ZM1193 0V-2H1187V0V2H1193V0ZM1183 0V-2H1177V0V2H1183V0ZM1173 0V-2H1167V0V2H1173V0ZM1163 0V-2H1157V0V2H1163V0ZM1153 0V-2H1147V0V2H1153V0ZM1143 0V-2H1137V0V2H1143V0ZM1133 0V-2H1127V0V2H1133V0ZM1123 0V-2H1117V0V2H1123V0ZM1113 0V-2H1107V0V2H1113V0ZM1103 0V-2H1097V0V2H1103V0ZM1093 0V-2H1087V0V2H1093V0ZM1083 0V-2H1077V0V2H1083V0ZM1073 0V-2H1067V0V2H1073V0ZM1063 0V-2H1057V0V2H1063V0ZM1053 0V-2H1047V0V2H1053V0ZM1043 0V-2H1037V0V2H1043V0ZM1033 0V-2H1027V0V2H1033V0ZM1023 0V-2H1017V0V2H1023V0ZM1013 0V-2H1007V0V2H1013V0ZM1003 0V-2H997V0V2H1003V0ZM993 0V-2H987V0V2H993V0ZM983 0V-2H977V0V2H983V0ZM973 0V-2H967V0V2H973V0ZM963 0V-2H957V0V2H963V0ZM953 0V-2H947V0V2H953V0ZM943 0V-2H937V0V2H943V0ZM933 0V-2H927V0V2H933V0ZM923 0V-2H917V0V2H923V0ZM913 0V-2H907V0V2H913V0ZM903 0V-2H897V0V2H903V0ZM893 0V-2H887V0V2H893V0ZM883 0V-2H877V0V2H883V0ZM873 0V-2H867V0V2H873V0ZM863 0V-2H857V0V2H863V0ZM853 0V-2H847V0V2H853V0ZM843 0V-2H837V0V2H843V0ZM833 0V-2H827V0V2H833V0ZM823 0V-2H817V0V2H823V0ZM813 0V-2H807V0V2H813V0ZM803 0V-2H797V0V2H803V0ZM793 0V-2H787V0V2H793V0ZM783 0V-2H777V0V2H783V0ZM773 0V-2H767V0V2H773V0ZM763 0V-2H757V0V2H763V0ZM753 0V-2H747V0V2H753V0ZM743 0V-2H737V0V2H743V0ZM733 0V-2H727V0V2H733V0ZM723 0V-2H717V0V2H723V0ZM713 0V-2H707V0V2H713V0ZM703 0V-2H697V0V2H703V0ZM693 0V-2H687V0V2H693V0ZM683 0V-2H677V0V2H683V0ZM673 0V-2H667V0V2H673V0ZM663 0V-2H657V0V2H663V0ZM653 0V-2H647V0V2H653V0ZM643 0V-2H637V0V2H643V0ZM633 0V-2H627V0V2H633V0ZM623 0V-2H617V0V2H623V0ZM613 0V-2H607V0V2H613V0ZM603 0V-2H597V0V2H603V0ZM593 0V-2H587V0V2H593V0ZM583 0V-2H577V0V2H583V0ZM573 0V-2H567V0V2H573V0ZM563 0V-2H557V0V2H563V0ZM553 0V-2H547V0V2H553V0ZM543 0V-2H537V0V2H543V0ZM533 0V-2H527V0V2H533V0ZM523 0V-2H517V0V2H523V0ZM513 0V-2H507V0V2H513V0ZM503 0V-2H497V0V2H503V0ZM493 0V-2H487V0V2H493V0ZM483 0V-2H477V0V2H483V0ZM473 0V-2H467V0V2H473V0ZM463 0V-2H457V0V2H463V0ZM453 0V-2H447V0V2H453V0ZM443 0V-2H437V0V2H443V0ZM433 0V-2H427V0V2H433V0ZM423 0V-2H417V0V2H423V0ZM413 0V-2H407V0V2H413V0ZM403 0V-2H397V0V2H403V0ZM393 0V-2H387V0V2H393V0ZM383 0V-2H377V0V2H383V0ZM373 0V-2H367V0V2H373V0ZM363 0V-2H357V0V2H363V0ZM353 0V-2H347V0V2H353V0ZM343 0V-2H337V0V2H343V0ZM333 0V-2H327V0V2H333V0ZM323 0V-2H317V0V2H323V0ZM313 0V-2H307V0V2H313V0ZM303 0V-2H297V0V2H303V0ZM293 0V-2H287V0V2H293V0ZM283 0V-2H277V0V2H283V0ZM273 0V-2H267V0V2H273V0ZM263 0V-2H257V0V2H263V0ZM253 0V-2H247V0V2H253V0ZM243 0V-2H237V0V2H243V0ZM233 0V-2H227V0V2H233V0ZM223 0V-2H217V0V2H223V0ZM213 0V-2H207V0V2H213V0ZM203 0V-2H197V0V2H203V0ZM193 0V-2H187V0V2H193V0ZM183 0V-2H177V0V2H183V0ZM173 0V-2H167V0V2H173V0ZM163 0V-2H157V0V2H163V0ZM153 0V-2H147V0V2H153V0ZM143 0V-2H137V0V2H143V0ZM133 0V-2H127V0V2H133V0ZM123 0V-2H117V0V2H123V0ZM113 0V-2H107V0V2H113V0ZM103 0V-2H97V0V2H103V0ZM93 0V-2H87V0V2H93V0ZM83 0V-2H77V0V2H83V0ZM73 0V-2H67V0V2H73V0ZM63 0V-2H57V0V2H63V0ZM53 0V-2H47V0V2H53V0ZM43 0V-2H37V0V2H43V0ZM33 0V-2H27V0V2H33V0ZM23 0V-2H17V0V2H23V0ZM13 0V-2H6.99997V0V2H13V0ZM3.00003 0V-2H0V0V2H3.00003V0Z" fill="#ADADA9" mask="url(#path-1-inside-1_11_136)"/>
<path d="M30.56 70.19C29.4933 70.19 28.5517 69.9517 27.735 69.475C26.9183 68.9983 26.2783 68.345 25.815 67.515C25.3517 66.685 25.12 65.74 25.12 64.68C25.12 63.62 25.3517 62.68 25.815 61.86C26.2783 61.04 26.9183 60.3967 27.735 59.93C28.5517 59.4633 29.4933 59.23 30.56 59.23C31.6267 59.23 32.5683 59.4633 33.385 59.93C34.2017 60.3967 34.8417 61.04 35.305 61.86C35.7683 62.68 36 63.62 36 64.68C36 65.74 35.7683 66.685 35.305 67.515C34.8417 68.345 34.2017 68.9983 33.385 69.475C32.5683 69.9517 31.6267 70.19 30.56 70.19ZM30.56 68.63C31.2933 68.63 31.94 68.4667 32.5 68.14C33.06 67.8133 33.4983 67.3533 33.815 66.76C34.1317 66.1667 34.29 65.4733 34.29 64.68C34.29 63.8867 34.1317 63.1983 33.815 62.615C33.4983 62.0317 33.06 61.5817 32.5 61.265C31.94 60.9483 31.2933 60.79 30.56 60.79C29.8333 60.79 29.1883 60.9483 28.625 61.265C28.0617 61.5817 27.6217 62.0317 27.305 62.615C26.9883 63.1983 26.83 63.8867 26.83 64.68C26.83 65.4733 26.9883 66.1667 27.305 66.76C27.6217 67.3533 28.0617 67.8133 28.625 68.14C29.1883 68.4667 29.8333 68.63 30.56 68.63ZM45.18 70V65.31C45.18 64.8967 45.18 64.5383 45.18 64.235C45.18 63.9317 45.18 63.6767 45.18 63.47C45.18 63.21 45.1617 62.9283 45.125 62.625C45.0883 62.3217 45.0033 62.035 44.87 61.765C44.7367 61.495 44.5283 61.2733 44.245 61.1C43.9617 60.9267 43.57 60.84 43.07 60.84C42.5633 60.84 42.1367 60.9383 41.79 61.135C41.4433 61.3317 41.1633 61.59 40.95 61.91C40.7367 62.23 40.5833 62.5817 40.49 62.965C40.3967 63.3483 40.35 63.7267 40.35 64.1L39.39 63.71C39.39 62.91 39.5567 62.17 39.89 61.49C40.2233 60.81 40.6917 60.2617 41.295 59.845C41.8983 59.4283 42.6067 59.22 43.42 59.22C44.2267 59.22 44.8833 59.3833 45.39 59.71C45.8967 60.0367 46.27 60.4867 46.51 61.06C46.75 61.6333 46.87 62.2933 46.87 63.04C46.87 63.3067 46.87 63.6483 46.87 64.065C46.87 64.4817 46.87 64.9567 46.87 65.49V70H45.18ZM38.65 70V59.38H40.35V70H38.65ZM51.69 70V65.31C51.69 64.8567 51.69 64.4817 51.69 64.185C51.69 63.8883 51.69 63.6367 51.69 63.43C51.69 63.17 51.6733 62.89 51.64 62.59C51.6067 62.29 51.5233 62.0083 51.39 61.745C51.2567 61.4817 51.045 61.265 50.755 61.095C50.465 60.925 50.06 60.84 49.54 60.84C49.0267 60.84 48.5983 60.9367 48.255 61.13C47.9117 61.3233 47.6383 61.5767 47.435 61.89C47.2317 62.2033 47.0867 62.5417 47 62.905C46.9133 63.2683 46.87 63.6167 46.87 63.95L45.91 63.58C45.91 62.82 46.0717 62.1083 46.395 61.445C46.7183 60.7817 47.1783 60.245 47.775 59.835C48.3717 59.425 49.08 59.22 49.9 59.22C50.6667 59.22 51.3083 59.37 51.825 59.67C52.3417 59.97 52.7317 60.3917 52.995 60.935C53.2583 61.4783 53.39 62.1233 53.39 62.87C53.39 63.15 53.39 63.4967 53.39 63.91C53.39 64.3233 53.39 64.79 53.39 65.31V70H51.69ZM56.45 70V59.38H58.13V70H56.45ZM57.3 56.94C56.9867 56.94 56.715 56.8517 56.485 56.675C56.255 56.4983 56.14 56.2567 56.14 55.95C56.14 55.65 56.255 55.4117 56.485 55.235C56.715 55.0583 56.9867 54.97 57.3 54.97C57.6133 54.97 57.8833 55.0583 58.11 55.235C58.3367 55.4117 58.45 55.65 58.45 55.95C58.45 56.2567 58.3367 56.4983 58.11 56.675C57.8833 56.8517 57.6133 56.94 57.3 56.94ZM63.13 54.37V70H61.45V54.37H63.13ZM66.79 65.37V63.85H75L74.7 64.35C74.7 64.31 74.7 64.2717 74.7 64.235C74.7 64.1983 74.7 64.1633 74.7 64.13C74.7 63.5167 74.5717 62.955 74.315 62.445C74.0583 61.935 73.6767 61.5267 73.17 61.22C72.6633 60.9133 72.0367 60.76 71.29 60.76C70.5367 60.76 69.8733 60.92 69.3 61.24C68.7267 61.56 68.28 62.0117 67.96 62.595C67.64 63.1783 67.48 63.8733 67.48 64.68C67.48 65.5 67.635 66.2067 67.945 66.8C68.255 67.3933 68.6967 67.85 69.27 68.17C69.8433 68.49 70.5233 68.65 71.31 68.65C71.87 68.65 72.3567 68.5917 72.77 68.475C73.1833 68.3583 73.525 68.2017 73.795 68.005C74.065 67.8083 74.27 67.5933 74.41 67.36C74.55 67.1267 74.6333 66.8933 74.66 66.66H76.36C76.3267 67.0867 76.1933 67.51 75.96 67.93C75.7267 68.35 75.3967 68.7317 74.97 69.075C74.5433 69.4183 74.02 69.6933 73.4 69.9C72.78 70.1067 72.0667 70.21 71.26 70.21C70.1933 70.21 69.2533 69.9767 68.44 69.51C67.6267 69.0433 66.9883 68.3967 66.525 67.57C66.0617 66.7433 65.83 65.7933 65.83 64.72C65.83 63.6333 66.0633 62.6783 66.53 61.855C66.9967 61.0317 67.64 60.3867 68.46 59.92C69.28 59.4533 70.2167 59.22 71.27 59.22C72.3433 59.22 73.2733 59.4533 74.06 59.92C74.8467 60.3867 75.4533 61.025 75.88 61.835C76.3067 62.645 76.52 63.5667 76.52 64.6C76.52 64.7067 76.5167 64.8467 76.51 65.02C76.5033 65.1933 76.4933 65.31 76.48 65.37H66.79ZM82.88 70.2C82.0733 70.2 81.3683 70.0733 80.765 69.82C80.1617 69.5667 79.6933 69.2017 79.36 68.725C79.0267 68.2483 78.86 67.6767 78.86 67.01C78.86 66.3167 79.04 65.7383 79.4 65.275C79.76 64.8117 80.2667 64.45 80.92 64.19C81.5733 63.93 82.3333 63.7567 83.2 63.67C84.5067 63.5367 85.4367 63.405 85.99 63.275C86.5433 63.145 86.82 62.9333 86.82 62.64C86.82 62.6333 86.82 62.6283 86.82 62.625C86.82 62.6217 86.82 62.6167 86.82 62.61C86.82 61.9967 86.57 61.5383 86.07 61.235C85.57 60.9317 84.8467 60.78 83.9 60.78C82.9133 60.78 82.1467 60.9517 81.6 61.295C81.0533 61.6383 80.78 62.1933 80.78 62.96H79.1C79.1 62.1667 79.3033 61.4917 79.71 60.935C80.1167 60.3783 80.6817 59.9533 81.405 59.66C82.1283 59.3667 82.9633 59.22 83.91 59.22C84.7767 59.22 85.5583 59.3517 86.255 59.615C86.9517 59.8783 87.505 60.2683 87.915 60.785C88.325 61.3017 88.53 61.94 88.53 62.7C88.53 62.84 88.53 62.9783 88.53 63.115C88.53 63.2517 88.53 63.39 88.53 63.53V68C88.53 68.2333 88.54 68.46 88.56 68.68C88.58 68.9 88.6133 69.0933 88.66 69.26C88.72 69.46 88.7867 69.6217 88.86 69.745C88.9333 69.8683 88.9933 69.9533 89.04 70H87.33C87.2967 69.9667 87.2467 69.8883 87.18 69.765C87.1133 69.6417 87.05 69.4967 86.99 69.33C86.9433 69.1967 86.9067 69.0283 86.88 68.825C86.8533 68.6217 86.84 68.41 86.84 68.19L87.12 68.38C86.9133 68.74 86.6117 69.0567 86.215 69.33C85.8183 69.6033 85.34 69.8167 84.78 69.97C84.22 70.1233 83.5867 70.2 82.88 70.2ZM83.15 68.67C83.8367 68.67 84.4567 68.565 85.01 68.355C85.5633 68.145 86.0033 67.8333 86.33 67.42C86.6567 67.0067 86.82 66.4933 86.82 65.88V63.77L87.2 64.41C86.7733 64.5767 86.2417 64.7117 85.605 64.815C84.9683 64.9183 84.3033 65.0033 83.61 65.07C82.6033 65.1633 81.845 65.34 81.335 65.6C80.825 65.86 80.57 66.2967 80.57 66.91C80.57 67.49 80.78 67.9283 81.2 68.225C81.62 68.5217 82.27 68.67 83.15 68.67ZM91.35 70V59.38H93.05V62.64L92.49 62.44C92.53 62.0467 92.63 61.6583 92.79 61.275C92.95 60.8917 93.1717 60.545 93.455 60.235C93.7383 59.925 94.0933 59.6783 94.52 59.495C94.9467 59.3117 95.4467 59.22 96.02 59.22C96.4467 59.22 96.795 59.255 97.065 59.325C97.335 59.395 97.5033 59.45 97.57 59.49L97.13 61.16C97.0633 61.1133 96.9283 61.0533 96.725 60.98C96.5217 60.9067 96.2333 60.87 95.86 60.87C95.3067 60.87 94.8483 60.97 94.485 61.17C94.1217 61.37 93.835 61.635 93.625 61.965C93.415 62.295 93.2667 62.6533 93.18 63.04C93.0933 63.4267 93.05 63.81 93.05 64.19V70H91.35ZM107 70V64.91C107 64.6033 107 64.3517 107 64.155C107 63.9583 107 63.77 107 63.59C107 63.0367 106.907 62.5533 106.72 62.14C106.533 61.7267 106.24 61.4067 105.84 61.18C105.44 60.9533 104.917 60.84 104.27 60.84C103.703 60.84 103.178 60.985 102.695 61.275C102.212 61.565 101.825 61.955 101.535 62.445C101.245 62.935 101.1 63.4833 101.1 64.09L100.13 63.72C100.13 62.8867 100.335 62.13 100.745 61.45C101.155 60.77 101.702 60.2283 102.385 59.825C103.068 59.4217 103.813 59.22 104.62 59.22C105.44 59.22 106.157 59.3767 106.77 59.69C107.383 60.0033 107.858 60.4517 108.195 61.035C108.532 61.6183 108.7 62.32 108.7 63.14C108.7 63.4333 108.7 63.7533 108.7 64.1C108.7 64.4467 108.7 64.77 108.7 65.07V70H107ZM99.4 70V59.38H101.1V70H99.4Z" fill="#884856"/>
<path d="M127.932 69.3733C127.215 69.3733 126.542 69.2385 125.912 68.9688C125.282 68.6991 124.729 68.326 124.253 67.8497C123.777 67.3733 123.404 66.82 123.134 66.1899C122.864 65.5598 122.73 64.8868 122.73 64.171C122.73 63.4501 122.865 62.7755 123.134 62.147C123.404 61.5186 123.777 60.9662 124.253 60.49C124.73 60.0137 125.283 59.6408 125.912 59.3711C126.542 59.1015 127.215 58.9667 127.932 58.9667C128.653 58.9667 129.328 59.1016 129.956 59.3715C130.584 59.6414 131.137 60.0144 131.613 60.4904C132.089 60.9664 132.461 61.5184 132.731 62.1466C133.001 62.7747 133.136 63.4495 133.136 64.171C133.136 64.8874 133.001 65.5606 132.732 66.1904C132.462 66.8203 132.089 67.3733 131.613 67.8494C131.137 68.3256 130.584 68.6986 129.956 68.9685C129.328 69.2384 128.653 69.3733 127.932 69.3733ZM127.994 67.1193C127.569 67.1193 127.189 67.0462 126.853 66.9C126.517 66.7538 126.222 66.5236 125.968 66.2093C125.726 65.9013 125.559 65.57 125.469 65.2153C125.379 64.8607 125.334 64.506 125.334 64.1513C125.34 63.7842 125.39 63.4257 125.484 63.0757C125.578 62.7257 125.74 62.406 125.968 62.1167C126.22 61.8056 126.517 61.5753 126.858 61.426C127.2 61.2767 127.592 61.202 128.036 61.202C128.289 61.202 128.527 61.2285 128.75 61.2813C128.972 61.3342 129.193 61.4276 129.412 61.5613C129.638 61.6982 129.836 61.8724 130.008 62.084C130.18 62.2956 130.304 62.5382 130.378 62.812L129.52 63.0687C129.462 62.924 129.382 62.7848 129.28 62.651C129.178 62.5172 129.059 62.4013 128.922 62.3033C128.792 62.207 128.647 62.137 128.487 62.0934C128.328 62.0498 128.165 62.028 127.998 62.028C127.729 62.028 127.482 62.0824 127.257 62.1913C127.033 62.3002 126.841 62.4542 126.682 62.6533C126.525 62.8556 126.417 63.0893 126.357 63.3545C126.297 63.6197 126.267 63.8822 126.267 64.142C126.267 64.4286 126.301 64.7048 126.368 64.9706C126.436 65.2364 126.541 65.4673 126.682 65.6633C126.832 65.8671 127.019 66.0223 127.246 66.1289C127.472 66.2354 127.723 66.2887 127.998 66.2887C128.362 66.2887 128.676 66.2 128.941 66.0227C129.073 65.9278 129.184 65.8197 129.272 65.6984C129.361 65.577 129.437 65.4409 129.501 65.29L130.378 65.528C130.276 65.7956 130.145 66.0266 129.986 66.221C129.828 66.4155 129.663 66.5733 129.492 66.6947C129.282 66.8347 129.056 66.9404 128.816 67.012C128.576 67.0836 128.302 67.1193 127.994 67.1193ZM127.933 68.37C128.513 68.37 129.055 68.2615 129.56 68.0445C130.065 67.8275 130.51 67.5267 130.895 67.142C131.28 66.7573 131.581 66.3097 131.798 65.7992C132.015 65.2886 132.124 64.7424 132.124 64.1607C132.124 63.5809 132.015 63.0385 131.798 62.5335C131.581 62.0285 131.28 61.5835 130.895 61.1985C130.509 60.8135 130.064 60.5125 129.56 60.2955C129.055 60.0785 128.513 59.97 127.933 59.97C127.351 59.97 126.805 60.0785 126.295 60.2955C125.785 60.5125 125.337 60.8137 124.952 61.199C124.567 61.5843 124.266 62.0292 124.049 62.5337C123.832 63.0381 123.724 63.5804 123.724 64.1607C123.724 64.7429 123.832 65.289 124.049 65.799C124.266 66.309 124.567 66.7565 124.952 67.1415C125.336 67.5265 125.784 67.8275 126.294 68.0445C126.805 68.2615 127.351 68.37 127.933 68.37ZM137.059 68.9953L137.068 68.0527L141.623 63.9367C142.015 63.5851 142.274 63.2491 142.402 62.9287C142.529 62.6082 142.593 62.2722 142.593 61.9207C142.593 61.5069 142.496 61.1324 142.302 60.7972C142.107 60.4619 141.844 60.1951 141.513 59.9968C141.182 59.7985 140.809 59.6993 140.395 59.6993C139.967 59.6993 139.585 59.8016 139.248 60.0061C138.912 60.2107 138.647 60.4814 138.454 60.8182C138.261 61.1549 138.166 61.5209 138.169 61.916H137.124C137.124 61.3031 137.269 60.7548 137.558 60.271C137.847 59.7872 138.239 59.4061 138.734 59.1277C139.229 58.8492 139.787 58.71 140.409 58.71C141.021 58.71 141.57 58.8535 142.058 59.1405C142.545 59.4275 142.931 59.8144 143.214 60.3013C143.497 60.7882 143.639 61.3311 143.639 61.93C143.639 62.3515 143.588 62.7214 143.487 63.0395C143.386 63.3576 143.229 63.6532 143.018 63.9262C142.806 64.1992 142.537 64.4811 142.211 64.772L138.165 68.426L138.001 68.006H143.639V68.9953H137.059ZM148.609 69.21C147.986 69.21 147.427 69.0653 146.931 68.776C146.435 68.4867 146.042 68.0939 145.753 67.5977C145.463 67.1015 145.319 66.5422 145.319 65.92V62C145.319 61.3778 145.463 60.8185 145.753 60.3223C146.042 59.8261 146.435 59.4333 146.931 59.144C147.427 58.8547 147.986 58.71 148.609 58.71C149.231 58.71 149.79 58.8547 150.286 59.144C150.782 59.4333 151.175 59.8261 151.465 60.3223C151.754 60.8185 151.899 61.3778 151.899 62V65.92C151.899 66.5422 151.754 67.1015 151.465 67.5977C151.175 68.0939 150.782 68.4867 150.286 68.776C149.79 69.0653 149.231 69.21 148.609 69.21ZM148.609 68.216C149.022 68.216 149.4 68.1149 149.74 67.9127C150.081 67.7105 150.352 67.439 150.555 67.0984C150.757 66.7577 150.858 66.3805 150.858 65.9667V61.9487C150.858 61.5349 150.757 61.1577 150.555 60.817C150.352 60.4763 150.081 60.2049 149.74 60.0026C149.4 59.8004 149.022 59.6993 148.609 59.6993C148.195 59.6993 147.818 59.8004 147.477 60.0026C147.136 60.2049 146.865 60.4763 146.663 60.817C146.46 61.1577 146.359 61.5349 146.359 61.9487V65.9667C146.359 66.3805 146.46 66.7577 146.663 67.0984C146.865 67.439 147.136 67.7105 147.477 67.9127C147.818 68.1149 148.195 68.216 148.609 68.216ZM153.579 68.9953L153.588 68.0527L158.143 63.9367C158.535 63.5851 158.794 63.2491 158.922 62.9287C159.049 62.6082 159.113 62.2722 159.113 61.9207C159.113 61.5069 159.016 61.1324 158.822 60.7972C158.627 60.4619 158.364 60.1951 158.033 59.9968C157.702 59.7985 157.329 59.6993 156.915 59.6993C156.487 59.6993 156.105 59.8016 155.768 60.0061C155.432 60.2107 155.167 60.4814 154.974 60.8182C154.781 61.1549 154.686 61.5209 154.689 61.916H153.644C153.644 61.3031 153.789 60.7548 154.078 60.271C154.367 59.7872 154.759 59.4061 155.254 59.1277C155.749 58.8492 156.307 58.71 156.929 58.71C157.541 58.71 158.09 58.8535 158.578 59.1405C159.065 59.4275 159.451 59.8144 159.734 60.3013C160.017 60.7882 160.159 61.3311 160.159 61.93C160.159 62.3515 160.108 62.7214 160.007 63.0395C159.906 63.3576 159.749 63.6532 159.538 63.9262C159.326 64.1992 159.057 64.4811 158.731 64.772L154.685 68.426L154.521 68.006H160.159V68.9953H153.579ZM165.997 69V67.0493H161.279V66.0647L164.653 58.92H165.81L162.436 66.0647H165.997V63.1247H167.033V66.0647H168.134V67.0493H167.033V69H165.997ZM172.612 69V58.92H178.912V59.9046H173.638V63.3953H178.072V64.38H173.638V68.0154H178.912V69H172.612ZM183.527 69.21C182.819 69.21 182.216 69.0342 181.716 68.6827C181.217 68.3311 180.835 67.8536 180.569 67.25C180.304 66.6464 180.172 65.9667 180.172 65.2107C180.172 64.4593 180.303 63.7831 180.567 63.1818C180.831 62.5806 181.21 62.105 181.705 61.755C182.199 61.405 182.793 61.23 183.485 61.23C184.194 61.23 184.792 61.4027 185.277 61.748C185.762 62.0933 186.129 62.5662 186.378 63.1667C186.627 63.7671 186.752 64.4484 186.752 65.2107C186.752 65.9636 186.628 66.6418 186.379 67.2453C186.131 67.8489 185.768 68.3272 185.289 68.6803C184.809 69.0334 184.222 69.21 183.527 69.21ZM183.63 68.2534C184.166 68.2534 184.61 68.1219 184.961 67.859C185.312 67.5961 185.572 67.2352 185.744 66.7763C185.915 66.3175 186 65.7956 186 65.2107C186 64.6196 185.914 64.0961 185.741 63.6403C185.569 63.1845 185.308 62.8283 184.961 62.5716C184.613 62.315 184.177 62.1866 183.653 62.1866C183.11 62.1866 182.662 62.32 182.308 62.5868C181.954 62.8536 181.691 63.2153 181.52 63.6718C181.349 64.1284 181.264 64.6413 181.264 65.2107C181.264 65.7847 181.351 66.3015 181.527 66.7612C181.703 67.2208 181.966 67.5845 182.316 67.852C182.666 68.1196 183.104 68.2534 183.63 68.2534ZM186 69V63.3067H185.893V58.92H186.924V69H186ZM189.027 60.0073V58.85H190.053V60.0073H189.027ZM189.027 69V61.44H190.053V69H189.027ZM196.272 69C195.845 69.0887 195.426 69.1241 195.013 69.1062C194.6 69.0883 194.231 68.9996 193.907 68.8402C193.582 68.6807 193.338 68.4338 193.173 68.0993C193.036 67.8193 192.961 67.5351 192.949 67.2465C192.936 66.958 192.93 66.6293 192.93 66.2607V59.34H193.957V66.2233C193.957 66.5391 193.96 66.8032 193.967 67.0155C193.974 67.2278 194.022 67.4165 194.111 67.5813C194.279 67.894 194.546 68.0799 194.911 68.139C195.277 68.1981 195.73 68.1849 196.272 68.0994V69ZM191.316 62.322V61.44H196.272V62.322H191.316ZM200.642 69.21C199.891 69.21 199.248 69.0397 198.715 68.699C198.181 68.3583 197.772 67.8874 197.488 67.2862C197.205 66.6849 197.063 65.9931 197.063 65.2107C197.063 64.4189 197.207 63.7239 197.497 63.1258C197.786 62.5277 198.198 62.0622 198.733 61.7293C199.268 61.3964 199.905 61.23 200.642 61.23C201.396 61.23 202.041 61.3996 202.575 61.7387C203.109 62.0778 203.518 62.5464 203.801 63.1445C204.084 63.7426 204.226 64.4313 204.226 65.2107C204.226 66.004 204.083 66.7005 203.798 67.3002C203.512 67.8998 203.102 68.3681 202.566 68.7048C202.03 69.0416 201.389 69.21 200.642 69.21ZM200.642 68.2254C201.48 68.2254 202.105 67.9457 202.517 67.3865C202.928 66.8273 203.134 66.102 203.134 65.2107C203.134 64.2991 202.927 63.5719 202.512 63.029C202.098 62.4861 201.474 62.2146 200.642 62.2146C200.077 62.2146 199.611 62.3422 199.244 62.5973C198.877 62.8524 198.604 63.2048 198.424 63.6543C198.244 64.1039 198.155 64.6227 198.155 65.2107C198.155 66.1207 198.365 66.8506 198.786 67.4005C199.206 67.9504 199.825 68.2254 200.642 68.2254ZM205.764 69V61.44H206.688V63.26L206.506 63.022C206.591 62.798 206.702 62.5911 206.837 62.4013C206.972 62.2116 207.118 62.056 207.276 61.9347C207.473 61.7636 207.702 61.6325 207.962 61.5415C208.221 61.4505 208.484 61.3968 208.75 61.3805C209.016 61.3642 209.26 61.384 209.483 61.44V62.406C209.204 62.3375 208.902 62.3216 208.576 62.3581C208.25 62.3947 207.949 62.5242 207.672 62.7466C207.42 62.9458 207.232 63.181 207.108 63.4525C206.983 63.7239 206.9 64.0125 206.858 64.3182C206.816 64.6238 206.795 64.9276 206.795 65.2293V69H205.764ZM210.951 60.0073V58.85H211.977V60.0073H210.951ZM210.951 69V61.44H211.977V69H210.951ZM216.245 69.21C215.672 69.21 215.195 69.1069 214.811 68.9008C214.428 68.6947 214.14 68.4217 213.948 68.0818C213.756 67.7419 213.66 67.3713 213.66 66.97C213.66 66.5578 213.742 66.2062 213.907 65.9153C214.072 65.6244 214.299 65.3861 214.587 65.2002C214.876 65.0143 215.207 64.8716 215.582 64.772C215.968 64.6787 216.393 64.5962 216.856 64.5247C217.32 64.4531 217.775 64.3897 218.221 64.3345C218.668 64.2793 219.059 64.2276 219.395 64.1793L219.026 64.3987C219.042 63.6551 218.898 63.1029 218.595 62.742C218.291 62.3811 217.763 62.2006 217.01 62.2006C216.494 62.2006 216.057 62.3173 215.699 62.5506C215.341 62.784 215.091 63.1527 214.948 63.6567L213.944 63.3627C214.12 62.6876 214.469 62.1633 214.992 61.79C215.515 61.4167 216.194 61.23 217.029 61.23C217.718 61.23 218.304 61.3591 218.788 61.6173C219.272 61.8756 219.614 62.2504 219.815 62.742C219.908 62.9598 219.969 63.204 219.997 63.4747C220.025 63.7453 220.039 64.0222 220.039 64.3053V69H219.12V67.1007L219.386 67.2173C219.129 67.866 218.73 68.3603 218.19 68.7002C217.649 69.0401 217.001 69.21 216.245 69.21ZM216.362 68.3187C216.842 68.3187 217.262 68.2327 217.62 68.0608C217.979 67.889 218.268 67.6529 218.488 67.3527C218.709 67.0524 218.85 66.7118 218.914 66.3307C218.972 66.088 219.003 65.8216 219.009 65.5315C219.014 65.2414 219.017 65.0224 219.017 64.8747L219.409 65.08C219.056 65.1267 218.675 65.1737 218.268 65.2212C217.86 65.2686 217.459 65.3219 217.064 65.381C216.669 65.4401 216.313 65.5124 215.998 65.598C215.783 65.6602 215.576 65.7462 215.376 65.8558C215.176 65.9655 215.012 66.1105 214.883 66.291C214.755 66.4714 214.691 66.6978 214.691 66.97C214.691 67.1893 214.746 67.4021 214.855 67.6082C214.965 67.8143 215.142 67.9842 215.386 68.118C215.63 68.2518 215.956 68.3187 216.362 68.3187ZM221.997 69V58.71H223.023V69H221.997ZM228.066 69V58.92H229.092V68.0154H233.88V69H228.066ZM238.269 69.21C237.535 69.21 236.898 69.0471 236.357 68.7212C235.817 68.3953 235.397 67.9356 235.099 67.3422C234.802 66.7487 234.653 66.0522 234.653 65.2527C234.653 64.4267 234.8 63.7127 235.094 63.1107C235.388 62.5087 235.802 62.0447 236.337 61.7188C236.872 61.3929 237.504 61.23 238.232 61.23C238.979 61.23 239.616 61.4011 240.143 61.7433C240.67 62.0856 241.069 62.5763 241.34 63.2157C241.611 63.855 241.733 64.6195 241.706 65.5093H240.659V65.1453C240.64 64.1638 240.429 63.4229 240.025 62.9228C239.621 62.4227 239.033 62.1726 238.26 62.1726C237.446 62.1726 236.824 62.4367 236.392 62.9648C235.96 63.4929 235.745 64.2447 235.745 65.22C235.745 66.1736 235.96 66.9128 236.392 67.4379C236.824 67.9629 237.437 68.2254 238.232 68.2254C238.773 68.2254 239.245 68.1001 239.648 67.8497C240.051 67.5992 240.369 67.2391 240.603 66.7693L241.564 67.138C241.264 67.7976 240.823 68.3078 240.242 68.6687C239.661 69.0296 239.003 69.21 238.269 69.21ZM235.381 65.5093V64.646H241.158V65.5093H235.381ZM245.281 69.21C244.708 69.21 244.231 69.1069 243.847 68.9008C243.464 68.6947 243.176 68.4217 242.984 68.0818C242.792 67.7419 242.696 67.3713 242.696 66.97C242.696 66.5578 242.778 66.2062 242.943 65.9153C243.108 65.6244 243.335 65.3861 243.623 65.2002C243.912 65.0143 244.243 64.8716 244.618 64.772C245.004 64.6787 245.429 64.5962 245.892 64.5247C246.356 64.4531 246.811 64.3897 247.257 64.3345C247.704 64.2793 248.095 64.2276 248.431 64.1793L248.062 64.3987C248.078 63.6551 247.934 63.1029 247.631 62.742C247.327 62.3811 246.799 62.2006 246.046 62.2006C245.53 62.2006 245.093 62.3173 244.735 62.5506C244.377 62.784 244.127 63.1527 243.984 63.6567L242.98 63.3627C243.156 62.6876 243.505 62.1633 244.028 61.79C244.551 61.4167 245.23 61.23 246.065 61.23C246.754 61.23 247.34 61.3591 247.824 61.6173C248.308 61.8756 248.65 62.2504 248.851 62.742C248.944 62.9598 249.005 63.204 249.033 63.4747C249.061 63.7453 249.075 64.0222 249.075 64.3053V69H248.156V67.1007L248.422 67.2173C248.165 67.866 247.766 68.3603 247.226 68.7002C246.685 69.0401 246.037 69.21 245.281 69.21ZM245.398 68.3187C245.878 68.3187 246.298 68.2327 246.656 68.0608C247.015 67.889 247.304 67.6529 247.524 67.3527C247.745 67.0524 247.886 66.7118 247.95 66.3307C248.008 66.088 248.039 65.8216 248.045 65.5315C248.05 65.2414 248.053 65.0224 248.053 64.8747L248.445 65.08C248.092 65.1267 247.711 65.1737 247.304 65.2212C246.896 65.2686 246.495 65.3219 246.1 65.381C245.705 65.4401 245.349 65.5124 245.034 65.598C244.819 65.6602 244.612 65.7462 244.412 65.8558C244.212 65.9655 244.048 66.1105 243.919 66.291C243.791 66.4714 243.727 66.6978 243.727 66.97C243.727 67.1893 243.782 67.4021 243.891 67.6082C244.001 67.8143 244.178 67.9842 244.422 68.118C244.666 68.2518 244.992 68.3187 245.398 68.3187ZM250.893 69V61.44H251.817V63.26L251.635 63.022C251.72 62.798 251.831 62.5911 251.966 62.4013C252.101 62.2116 252.247 62.056 252.405 61.9347C252.602 61.7636 252.831 61.6325 253.091 61.5415C253.35 61.4505 253.613 61.3968 253.879 61.3805C254.145 61.3642 254.389 61.384 254.612 61.44V62.406C254.333 62.3375 254.031 62.3216 253.705 62.3581C253.379 62.3947 253.078 62.5242 252.801 62.7466C252.549 62.9458 252.361 63.181 252.237 63.4525C252.112 63.7239 252.029 64.0125 251.987 64.3182C251.945 64.6238 251.924 64.9276 251.924 65.2293V69H250.893ZM261.4 69V65.1407C261.4 64.7222 261.36 64.3368 261.281 63.9845C261.201 63.6321 261.074 63.3245 260.898 63.0616C260.722 62.7988 260.495 62.595 260.218 62.4503C259.94 62.3056 259.603 62.2333 259.206 62.2333C258.844 62.2333 258.523 62.2955 258.245 62.42C257.966 62.5444 257.733 62.7245 257.545 62.9602C257.357 63.1958 257.214 63.4824 257.117 63.82C257.019 64.1576 256.971 64.5402 256.971 64.968L256.243 64.8047C256.243 64.03 256.378 63.379 256.649 62.8517C256.92 62.3243 257.292 61.9261 257.768 61.657C258.243 61.3879 258.789 61.2533 259.407 61.2533C259.86 61.2533 260.255 61.3226 260.592 61.461C260.93 61.5994 261.216 61.7877 261.452 62.0257C261.688 62.2637 261.878 62.5363 262.023 62.8435C262.167 63.1507 262.272 63.4754 262.338 63.8177C262.403 64.1599 262.436 64.5013 262.436 64.842V69H261.4ZM255.935 69V61.44H256.864V63.302H256.971V69H255.935ZM264.396 60.0073V58.85H265.422V60.0073H264.396ZM264.396 69V61.44H265.422V69H264.396ZM272.985 69V65.1407C272.985 64.7222 272.945 64.3368 272.866 63.9845C272.786 63.6321 272.659 63.3245 272.483 63.0616C272.307 62.7988 272.08 62.595 271.803 62.4503C271.525 62.3056 271.188 62.2333 270.791 62.2333C270.429 62.2333 270.108 62.2955 269.83 62.42C269.551 62.5444 269.318 62.7245 269.13 62.9602C268.942 63.1958 268.799 63.4824 268.702 63.82C268.604 64.1576 268.556 64.5402 268.556 64.968L267.828 64.8047C267.828 64.03 267.963 63.379 268.234 62.8517C268.505 62.3243 268.878 61.9261 269.353 61.657C269.828 61.3879 270.374 61.2533 270.992 61.2533C271.445 61.2533 271.84 61.3226 272.177 61.461C272.515 61.5994 272.801 61.7877 273.037 62.0257C273.273 62.2637 273.463 62.5363 273.608 62.8435C273.752 63.1507 273.857 63.4754 273.923 63.8177C273.988 64.1599 274.021 64.5013 274.021 64.842V69H272.985ZM267.52 69V61.44H268.449V63.302H268.556V69H267.52ZM278.841 72.57C278.455 72.57 278.075 72.5128 277.7 72.3985C277.325 72.2842 276.979 72.1045 276.661 71.8595C276.343 71.6145 276.075 71.296 275.859 70.904L276.793 70.386C277.001 70.806 277.295 71.1078 277.676 71.2914C278.056 71.4749 278.446 71.5667 278.846 71.5667C279.392 71.5667 279.834 71.466 280.171 71.2645C280.509 71.0631 280.754 70.7636 280.907 70.3662C281.061 69.9687 281.136 69.4744 281.133 68.8833V66.8627H281.249V61.44H282.169V68.8926C282.169 69.1073 282.163 69.3138 282.151 69.5122C282.139 69.7105 282.117 69.9069 282.085 70.1013C281.994 70.6629 281.811 71.1257 281.535 71.4897C281.259 71.8537 280.895 72.1247 280.444 72.3028C279.993 72.4809 279.459 72.57 278.841 72.57ZM278.776 69.21C278.068 69.21 277.465 69.0342 276.965 68.6827C276.466 68.3311 276.084 67.8536 275.818 67.25C275.553 66.6464 275.421 65.9667 275.421 65.2107C275.421 64.4593 275.552 63.7831 275.816 63.1818C276.08 62.5806 276.459 62.105 276.954 61.755C277.448 61.405 278.042 61.23 278.734 61.23C279.443 61.23 280.041 61.4027 280.526 61.748C281.011 62.0933 281.378 62.5662 281.627 63.1667C281.876 63.7671 282.001 64.4484 282.001 65.2107C282.001 65.9636 281.877 66.6418 281.628 67.2453C281.38 67.8489 281.017 68.3272 280.538 68.6803C280.058 69.0334 279.471 69.21 278.776 69.21ZM278.879 68.2534C279.415 68.2534 279.859 68.1219 280.21 67.859C280.561 67.5961 280.821 67.2352 280.993 66.7763C281.164 66.3175 281.249 65.7956 281.249 65.2107C281.249 64.6196 281.163 64.0961 280.99 63.6403C280.818 63.1845 280.557 62.8283 280.21 62.5716C279.862 62.315 279.426 62.1866 278.902 62.1866C278.359 62.1866 277.911 62.32 277.557 62.5868C277.203 62.8536 276.94 63.2153 276.769 63.6718C276.598 64.1284 276.513 64.6413 276.513 65.2107C276.513 65.7847 276.6 66.3015 276.776 66.7612C276.952 67.2208 277.215 67.5845 277.565 67.852C277.915 68.1196 278.353 68.2534 278.879 68.2534Z" fill="#5A5C58"/>
<path d="M1030.18 69V58.92H1034.07C1034.17 58.92 1034.28 58.9235 1034.4 58.9305C1034.53 58.9375 1034.65 58.9527 1034.78 58.976C1035.31 59.0569 1035.75 59.2404 1036.12 59.5267C1036.48 59.8129 1036.76 60.1734 1036.95 60.6082C1037.14 61.0429 1037.24 61.5224 1037.24 62.0467C1037.24 62.5709 1037.14 63.0504 1036.95 63.4852C1036.76 63.9199 1036.48 64.2804 1036.12 64.5667C1035.75 64.8529 1035.3 65.0364 1034.78 65.1173C1034.65 65.136 1034.53 65.15 1034.4 65.1593C1034.28 65.1687 1034.17 65.1733 1034.07 65.1733H1031.21V69H1030.18ZM1031.21 64.1887H1034.04C1034.13 64.1887 1034.23 64.184 1034.34 64.1747C1034.45 64.1653 1034.56 64.1498 1034.67 64.128C1035.01 64.0549 1035.3 63.913 1035.52 63.7022C1035.74 63.4914 1035.91 63.241 1036.01 62.9508C1036.12 62.6607 1036.18 62.3593 1036.18 62.0467C1036.18 61.734 1036.12 61.4326 1036.01 61.1425C1035.91 60.8524 1035.74 60.6019 1035.52 60.3911C1035.3 60.1804 1035.01 60.0384 1034.67 59.9653C1034.56 59.9404 1034.45 59.9241 1034.34 59.9163C1034.23 59.9085 1034.13 59.9046 1034.04 59.9046H1031.21V64.1887ZM1038.64 69V61.44H1039.56V63.26L1039.38 63.022C1039.46 62.798 1039.57 62.5911 1039.71 62.4013C1039.84 62.2116 1039.99 62.056 1040.15 61.9347C1040.35 61.7636 1040.57 61.6325 1040.83 61.5415C1041.09 61.4505 1041.36 61.3968 1041.62 61.3805C1041.89 61.3642 1042.13 61.384 1042.36 61.44V62.406C1042.08 62.3375 1041.77 62.3216 1041.45 62.3581C1041.12 62.3947 1040.82 62.5242 1040.54 62.7466C1040.29 62.9458 1040.1 63.181 1039.98 63.4525C1039.86 63.7239 1039.77 64.0125 1039.73 64.3182C1039.69 64.6238 1039.67 64.9276 1039.67 65.2293V69H1038.64ZM1043.82 60.0073V58.85H1044.85V60.0073H1043.82ZM1043.82 69V61.44H1044.85V69H1043.82ZM1049 69L1046.25 61.44H1047.3L1049.53 67.656L1051.75 61.44H1052.8L1050.06 69H1049ZM1055.81 69.21C1055.24 69.21 1054.76 69.1069 1054.38 68.9008C1053.99 68.6947 1053.7 68.4217 1053.51 68.0818C1053.32 67.7419 1053.22 67.3713 1053.22 66.97C1053.22 66.5578 1053.31 66.2062 1053.47 65.9153C1053.64 65.6244 1053.86 65.3861 1054.15 65.2002C1054.44 65.0143 1054.77 64.8716 1055.15 64.772C1055.53 64.6787 1055.96 64.5962 1056.42 64.5247C1056.88 64.4531 1057.34 64.3897 1057.79 64.3345C1058.23 64.2793 1058.62 64.2276 1058.96 64.1793L1058.59 64.3987C1058.61 63.6551 1058.46 63.1029 1058.16 62.742C1057.86 62.3811 1057.33 62.2006 1056.57 62.2006C1056.06 62.2006 1055.62 62.3173 1055.26 62.5506C1054.91 62.784 1054.66 63.1527 1054.51 63.6567L1053.51 63.3627C1053.68 62.6876 1054.03 62.1633 1054.56 61.79C1055.08 61.4167 1055.76 61.23 1056.59 61.23C1057.28 61.23 1057.87 61.3591 1058.35 61.6173C1058.84 61.8756 1059.18 62.2504 1059.38 62.742C1059.47 62.9598 1059.53 63.204 1059.56 63.4747C1059.59 63.7453 1059.6 64.0222 1059.6 64.3053V69H1058.68V67.1007L1058.95 67.2173C1058.69 67.866 1058.29 68.3603 1057.75 68.7002C1057.21 69.0401 1056.57 69.21 1055.81 69.21ZM1055.93 68.3187C1056.41 68.3187 1056.83 68.2327 1057.19 68.0608C1057.54 67.889 1057.83 67.6529 1058.05 67.3527C1058.27 67.0524 1058.42 66.7118 1058.48 66.3307C1058.54 66.088 1058.57 65.8216 1058.57 65.5315C1058.58 65.2414 1058.58 65.0224 1058.58 64.8747L1058.97 65.08C1058.62 65.1267 1058.24 65.1737 1057.83 65.2212C1057.42 65.2686 1057.02 65.3219 1056.63 65.381C1056.23 65.4401 1055.88 65.5124 1055.56 65.598C1055.35 65.6602 1055.14 65.7462 1054.94 65.8558C1054.74 65.9655 1054.58 66.1105 1054.45 66.291C1054.32 66.4714 1054.26 66.6978 1054.26 66.97C1054.26 67.1893 1054.31 67.4021 1054.42 67.6082C1054.53 67.8143 1054.71 67.9842 1054.95 68.118C1055.2 68.2518 1055.52 68.3187 1055.93 68.3187ZM1064.56 69.21C1063.79 69.21 1063.15 69.0397 1062.63 68.699C1062.1 68.3583 1061.7 67.8878 1061.43 67.2873C1061.15 66.6869 1061.01 65.9978 1061 65.22C1061.01 64.4267 1061.15 63.7306 1061.43 63.1317C1061.71 62.5328 1062.12 62.0661 1062.64 61.7317C1063.17 61.3972 1063.81 61.23 1064.57 61.23C1065.33 61.23 1066 61.4163 1066.56 61.7888C1067.13 62.1614 1067.52 62.672 1067.73 63.3207L1066.72 63.6473C1066.54 63.1931 1066.26 62.8408 1065.88 62.5903C1065.49 62.3399 1065.05 62.2146 1064.56 62.2146C1064 62.2146 1063.54 62.3426 1063.18 62.5985C1062.82 62.8544 1062.55 63.2083 1062.37 63.6602C1062.19 64.112 1062.1 64.632 1062.09 65.22C1062.1 66.1238 1062.31 66.8506 1062.72 67.4005C1063.14 67.9504 1063.75 68.2254 1064.56 68.2254C1065.07 68.2254 1065.51 68.1071 1065.87 67.8707C1066.23 67.6342 1066.5 67.2905 1066.69 66.8393L1067.73 67.1427C1067.45 67.8147 1067.04 68.3272 1066.49 68.6803C1065.95 69.0334 1065.31 69.21 1064.56 69.21ZM1069.97 72.36L1071.43 68.3933L1071.45 69.5693L1068.14 61.44H1069.23L1071.95 68.2394H1071.5L1074 61.44H1075.06L1070.99 72.36H1069.97Z" fill="#5A5C58"/>
<path d="M1110.97 69V59.9046H1107.45V58.92H1115.52V59.9046H1112V69H1110.97ZM1118.72 69.21C1117.98 69.21 1117.35 69.0471 1116.81 68.7212C1116.27 68.3953 1115.85 67.9356 1115.55 67.3422C1115.25 66.7487 1115.1 66.0522 1115.1 65.2527C1115.1 64.4267 1115.25 63.7127 1115.54 63.1107C1115.84 62.5087 1116.25 62.0447 1116.79 61.7188C1117.32 61.3929 1117.95 61.23 1118.68 61.23C1119.43 61.23 1120.06 61.4011 1120.59 61.7433C1121.12 62.0856 1121.52 62.5763 1121.79 63.2157C1122.06 63.855 1122.18 64.6195 1122.16 65.5093H1121.11V65.1453C1121.09 64.1638 1120.88 63.4229 1120.47 62.9228C1120.07 62.4227 1119.48 62.1726 1118.71 62.1726C1117.9 62.1726 1117.27 62.4367 1116.84 62.9648C1116.41 63.4929 1116.19 64.2447 1116.19 65.22C1116.19 66.1736 1116.41 66.9128 1116.84 67.4379C1117.27 67.9629 1117.89 68.2254 1118.68 68.2254C1119.22 68.2254 1119.69 68.1001 1120.1 67.8497C1120.5 67.5992 1120.82 67.2391 1121.05 66.7693L1122.01 67.138C1121.71 67.7976 1121.27 68.3078 1120.69 68.6687C1120.11 69.0296 1119.45 69.21 1118.72 69.21ZM1115.83 65.5093V64.646H1121.61V65.5093H1115.83ZM1123.7 69V61.44H1124.63V63.26L1124.45 63.022C1124.53 62.798 1124.64 62.5911 1124.78 62.4013C1124.91 62.2116 1125.06 62.056 1125.22 61.9347C1125.41 61.7636 1125.64 61.6325 1125.9 61.5415C1126.16 61.4505 1126.43 61.3968 1126.69 61.3805C1126.96 61.3642 1127.2 61.384 1127.42 61.44V62.406C1127.15 62.3375 1126.84 62.3216 1126.52 62.3581C1126.19 62.3947 1125.89 62.5242 1125.61 62.7466C1125.36 62.9458 1125.17 63.181 1125.05 63.4525C1124.92 63.7239 1124.84 64.0125 1124.8 64.3182C1124.76 64.6238 1124.74 64.9276 1124.74 65.2293V69H1123.7ZM1137.77 69L1137.78 64.0393C1137.78 63.4529 1137.61 62.9928 1137.29 62.6591C1136.97 62.3255 1136.55 62.1586 1136.05 62.1586C1135.77 62.1586 1135.49 62.2244 1135.22 62.3558C1134.95 62.4873 1134.73 62.6973 1134.55 62.9858C1134.38 63.2744 1134.29 63.6535 1134.29 64.1233L1133.68 63.946C1133.66 63.4031 1133.77 62.9287 1134 62.5227C1134.22 62.1167 1134.53 61.8013 1134.93 61.5765C1135.33 61.3517 1135.78 61.2393 1136.29 61.2393C1137.05 61.2393 1137.66 61.4738 1138.12 61.9428C1138.58 62.4118 1138.8 63.0453 1138.8 63.8433L1138.79 69H1137.77ZM1128.75 69V61.44H1129.67V63.302H1129.78V69H1128.75ZM1133.26 69L1133.27 64.1047C1133.27 63.5027 1133.11 63.0278 1132.79 62.6801C1132.47 62.3325 1132.05 62.1586 1131.53 62.1586C1131.01 62.1586 1130.59 62.3379 1130.26 62.6965C1129.94 63.055 1129.78 63.5307 1129.78 64.1233L1129.17 63.7873C1129.17 63.2989 1129.28 62.8626 1129.51 62.4783C1129.74 62.0941 1130.05 61.7916 1130.45 61.5707C1130.84 61.3498 1131.29 61.2393 1131.8 61.2393C1132.28 61.2393 1132.71 61.3412 1133.08 61.545C1133.46 61.7488 1133.75 62.0467 1133.97 62.4387C1134.18 62.8307 1134.29 63.3082 1134.29 63.8713L1134.28 69H1133.26ZM1143.45 69.2007C1142.56 69.2007 1141.83 69.0097 1141.26 68.6278C1140.69 68.2459 1140.34 67.7136 1140.2 67.0307L1141.25 66.858C1141.36 67.2873 1141.62 67.6288 1142.02 67.8824C1142.42 68.1359 1142.91 68.2627 1143.5 68.2627C1144.08 68.2627 1144.53 68.1425 1144.86 67.9022C1145.19 67.6618 1145.36 67.334 1145.36 66.9187C1145.36 66.6853 1145.3 66.4952 1145.2 66.3482C1145.09 66.2012 1144.88 66.0647 1144.56 65.9387C1144.24 65.8127 1143.75 65.6633 1143.12 65.4907C1142.43 65.3071 1141.89 65.1212 1141.51 64.933C1141.12 64.7448 1140.84 64.5282 1140.68 64.2832C1140.52 64.0382 1140.44 63.7391 1140.44 63.386C1140.44 62.9567 1140.56 62.5798 1140.8 62.2555C1141.04 61.9312 1141.38 61.6792 1141.81 61.4995C1142.24 61.3198 1142.74 61.23 1143.31 61.23C1143.87 61.23 1144.38 61.3218 1144.83 61.5053C1145.28 61.6889 1145.65 61.9463 1145.92 62.2777C1146.2 62.609 1146.36 62.994 1146.41 63.4327L1145.36 63.624C1145.29 63.1791 1145.07 62.8275 1144.7 62.5693C1144.33 62.3111 1143.86 62.1773 1143.29 62.168C1142.76 62.154 1142.32 62.2551 1141.98 62.4713C1141.65 62.6875 1141.48 62.9753 1141.48 63.3347C1141.48 63.5369 1141.54 63.7096 1141.66 63.8527C1141.78 63.9958 1142 64.1296 1142.32 64.254C1142.64 64.3784 1143.1 64.5153 1143.69 64.6647C1144.38 64.842 1144.93 65.0291 1145.33 65.2258C1145.73 65.4226 1146.01 65.6544 1146.17 65.9212C1146.34 66.188 1146.42 66.5158 1146.42 66.9047C1146.42 67.6202 1146.16 68.1818 1145.63 68.5893C1145.1 68.9969 1144.37 69.2007 1143.45 69.2007Z" fill="#5A5C58"/>
<path d="M1179.98 69V58.92H1181.01V63.4653H1186.58V58.92H1187.61V69H1186.58V64.45H1181.01V69H1179.98ZM1192.76 69.21C1192.03 69.21 1191.39 69.0471 1190.85 68.7212C1190.31 68.3953 1189.89 67.9356 1189.59 67.3422C1189.29 66.7487 1189.14 66.0522 1189.14 65.2527C1189.14 64.4267 1189.29 63.7127 1189.58 63.1107C1189.88 62.5087 1190.29 62.0447 1190.83 61.7188C1191.36 61.3929 1191.99 61.23 1192.72 61.23C1193.47 61.23 1194.11 61.4011 1194.63 61.7433C1195.16 62.0856 1195.56 62.5763 1195.83 63.2157C1196.1 63.855 1196.22 64.6195 1196.2 65.5093H1195.15V65.1453C1195.13 64.1638 1194.92 63.4229 1194.52 62.9228C1194.11 62.4227 1193.52 62.1726 1192.75 62.1726C1191.94 62.1726 1191.31 62.4367 1190.88 62.9648C1190.45 63.4929 1190.23 64.2447 1190.23 65.22C1190.23 66.1736 1190.45 66.9128 1190.88 67.4379C1191.31 67.9629 1191.93 68.2254 1192.72 68.2254C1193.26 68.2254 1193.74 68.1001 1194.14 67.8497C1194.54 67.5992 1194.86 67.2391 1195.09 66.7693L1196.05 67.138C1195.75 67.7976 1195.31 68.3078 1194.73 68.6687C1194.15 69.0296 1193.49 69.21 1192.76 69.21ZM1189.87 65.5093V64.646H1195.65V65.5093H1189.87ZM1197.89 69V58.71H1198.91V69H1197.89ZM1204.41 69.21C1203.71 69.21 1203.13 69.0334 1202.65 68.6803C1202.17 68.3272 1201.8 67.8489 1201.56 67.2453C1201.31 66.6418 1201.18 65.9636 1201.18 65.2107C1201.18 64.4484 1201.31 63.7671 1201.56 63.1667C1201.81 62.5662 1202.17 62.0933 1202.66 61.748C1203.14 61.4027 1203.74 61.23 1204.45 61.23C1205.14 61.23 1205.74 61.405 1206.23 61.755C1206.72 62.105 1207.1 62.5806 1207.37 63.1818C1207.63 63.7831 1207.76 64.4593 1207.76 65.2107C1207.76 65.9667 1207.63 66.6464 1207.37 67.25C1207.1 67.8536 1206.72 68.3311 1206.22 68.6827C1205.72 69.0342 1205.12 69.21 1204.41 69.21ZM1201.01 72.36V61.44H1201.93V67.1333H1202.04V72.36H1201.01ZM1204.3 68.2534C1204.83 68.2534 1205.27 68.1196 1205.62 67.852C1205.97 67.5845 1206.23 67.2208 1206.41 66.7612C1206.58 66.3015 1206.67 65.7847 1206.67 65.2107C1206.67 64.6413 1206.58 64.1284 1206.41 63.6718C1206.24 63.2153 1205.98 62.8536 1205.62 62.5868C1205.27 62.32 1204.82 62.1866 1204.28 62.1866C1203.76 62.1866 1203.32 62.315 1202.97 62.5716C1202.63 62.8283 1202.37 63.1845 1202.19 63.6403C1202.02 64.0961 1201.93 64.6196 1201.93 65.2107C1201.93 65.7956 1202.02 66.3175 1202.19 66.7763C1202.36 67.2352 1202.62 67.5961 1202.97 67.859C1203.32 68.1219 1203.77 68.2534 1204.3 68.2534ZM1216.19 69.21C1215.18 69.21 1214.33 68.9876 1213.64 68.5427C1212.95 68.0978 1212.43 67.481 1212.08 66.6923C1211.72 65.9037 1211.54 64.9929 1211.54 63.96C1211.54 62.9271 1211.72 62.0163 1212.08 61.2277C1212.43 60.439 1212.95 59.8222 1213.64 59.3773C1214.33 58.9324 1215.18 58.71 1216.19 58.71C1217.36 58.71 1218.31 59.0102 1219.05 59.6107C1219.79 60.2111 1220.3 61.0153 1220.58 62.0233L1219.53 62.294C1219.32 61.496 1218.93 60.864 1218.38 60.3981C1217.82 59.9323 1217.09 59.6993 1216.19 59.6993C1215.4 59.6993 1214.74 59.879 1214.22 60.2383C1213.69 60.5976 1213.3 61.0978 1213.04 61.7387C1212.77 62.3795 1212.64 63.12 1212.63 63.96C1212.62 64.8 1212.75 65.5397 1213.02 66.179C1213.28 66.8183 1213.68 67.3185 1214.21 67.6794C1214.74 68.0402 1215.4 68.2207 1216.19 68.2207C1217.09 68.2207 1217.82 67.9866 1218.38 67.5184C1218.93 67.0501 1219.32 66.4193 1219.53 65.626L1220.58 65.8967C1220.3 66.9047 1219.79 67.7089 1219.05 68.3093C1218.31 68.9098 1217.36 69.21 1216.19 69.21ZM1225.32 69.21C1224.58 69.21 1223.95 69.0471 1223.4 68.7212C1222.86 68.3953 1222.44 67.9356 1222.15 67.3422C1221.85 66.7487 1221.7 66.0522 1221.7 65.2527C1221.7 64.4267 1221.85 63.7127 1222.14 63.1107C1222.43 62.5087 1222.85 62.0447 1223.38 61.7188C1223.92 61.3929 1224.55 61.23 1225.28 61.23C1226.03 61.23 1226.66 61.4011 1227.19 61.7433C1227.72 62.0856 1228.12 62.5763 1228.39 63.2157C1228.66 63.855 1228.78 64.6195 1228.75 65.5093H1227.71V65.1453C1227.69 64.1638 1227.48 63.4229 1227.07 62.9228C1226.67 62.4227 1226.08 62.1726 1225.31 62.1726C1224.49 62.1726 1223.87 62.4367 1223.44 62.9648C1223.01 63.4929 1222.79 64.2447 1222.79 65.22C1222.79 66.1736 1223.01 66.9128 1223.44 67.4379C1223.87 67.9629 1224.48 68.2254 1225.28 68.2254C1225.82 68.2254 1226.29 68.1001 1226.7 67.8497C1227.1 67.5992 1227.42 67.2391 1227.65 66.7693L1228.61 67.138C1228.31 67.7976 1227.87 68.3078 1227.29 68.6687C1226.71 69.0296 1226.05 69.21 1225.32 69.21ZM1222.43 65.5093V64.646H1228.21V65.5093H1222.43ZM1235.55 69V65.1407C1235.55 64.7222 1235.51 64.3368 1235.43 63.9845C1235.35 63.6321 1235.23 63.3245 1235.05 63.0616C1234.88 62.7988 1234.65 62.595 1234.37 62.4503C1234.09 62.3056 1233.76 62.2333 1233.36 62.2333C1233 62.2333 1232.68 62.2955 1232.4 62.42C1232.12 62.5444 1231.89 62.7245 1231.7 62.9602C1231.51 63.1958 1231.37 63.4824 1231.27 63.82C1231.17 64.1576 1231.12 64.5402 1231.12 64.968L1230.4 64.8047C1230.4 64.03 1230.53 63.379 1230.8 62.8517C1231.07 62.3243 1231.45 61.9261 1231.92 61.657C1232.4 61.3879 1232.94 61.2533 1233.56 61.2533C1234.01 61.2533 1234.41 61.3226 1234.75 61.461C1235.08 61.5994 1235.37 61.7877 1235.61 62.0257C1235.84 62.2637 1236.03 62.5363 1236.18 62.8435C1236.32 63.1507 1236.43 63.4754 1236.49 63.8177C1236.56 64.1599 1236.59 64.5013 1236.59 64.842V69H1235.55ZM1230.09 69V61.44H1231.02V63.302H1231.12V69H1230.09ZM1242.52 69C1242.1 69.0887 1241.68 69.1241 1241.27 69.1062C1240.85 69.0883 1240.48 68.9996 1240.16 68.8402C1239.84 68.6807 1239.59 68.4338 1239.43 68.0993C1239.29 67.8193 1239.21 67.5351 1239.2 67.2465C1239.19 66.958 1239.18 66.6293 1239.18 66.2607V59.34H1240.21V66.2233C1240.21 66.5391 1240.21 66.8032 1240.22 67.0155C1240.23 67.2278 1240.28 67.4165 1240.36 67.5813C1240.53 67.894 1240.8 68.0799 1241.16 68.139C1241.53 68.1981 1241.98 68.1849 1242.52 68.0994V69ZM1237.57 62.322V61.44H1242.52V62.322H1237.57ZM1246.93 69.21C1246.2 69.21 1245.56 69.0471 1245.02 68.7212C1244.48 68.3953 1244.06 67.9356 1243.76 67.3422C1243.46 66.7487 1243.32 66.0522 1243.32 65.2527C1243.32 64.4267 1243.46 63.7127 1243.76 63.1107C1244.05 62.5087 1244.47 62.0447 1245 61.7188C1245.54 61.3929 1246.17 61.23 1246.9 61.23C1247.64 61.23 1248.28 61.4011 1248.81 61.7433C1249.33 62.0856 1249.73 62.5763 1250 63.2157C1250.27 63.855 1250.4 64.6195 1250.37 65.5093H1249.32V65.1453C1249.3 64.1638 1249.09 63.4229 1248.69 62.9228C1248.28 62.4227 1247.7 62.1726 1246.92 62.1726C1246.11 62.1726 1245.49 62.4367 1245.06 62.9648C1244.62 63.4929 1244.41 64.2447 1244.41 65.22C1244.41 66.1736 1244.62 66.9128 1245.06 67.4379C1245.49 67.9629 1246.1 68.2254 1246.9 68.2254C1247.44 68.2254 1247.91 68.1001 1248.31 67.8497C1248.71 67.5992 1249.03 67.2391 1249.27 66.7693L1250.23 67.138C1249.93 67.7976 1249.49 68.3078 1248.91 68.6687C1248.32 69.0296 1247.67 69.21 1246.93 69.21ZM1244.04 65.5093V64.646H1249.82V65.5093H1244.04ZM1251.92 69V61.44H1252.84V63.26L1252.66 63.022C1252.75 62.798 1252.86 62.5911 1252.99 62.4013C1253.13 62.2116 1253.27 62.056 1253.43 61.9347C1253.63 61.7636 1253.86 61.6325 1254.12 61.5415C1254.38 61.4505 1254.64 61.3968 1254.91 61.3805C1255.17 61.3642 1255.42 61.384 1255.64 61.44V62.406C1255.36 62.3375 1255.06 62.3216 1254.73 62.3581C1254.41 62.3947 1254.1 62.5242 1253.83 62.7466C1253.58 62.9458 1253.39 63.181 1253.26 63.4525C1253.14 63.7239 1253.06 64.0125 1253.01 64.3182C1252.97 64.6238 1252.95 64.9276 1252.95 65.2293V69H1251.92Z" fill="#5A5C58"/>
</svg>
