<svg width="1280" height="76" viewBox="0 0 1280 76" fill="none" xmlns="http://www.w3.org/2000/svg">
<rect width="1280" height="76" fill="#F7F7F2" fill-opacity="0.8"/>
<path d="M39.812 45.3C38.372 45.3 37.106 45.02 36.014 44.46C34.922 43.9 34.07 43.12 33.458 42.12C32.846 41.12 32.54 39.96 32.54 38.64C32.54 37.32 32.846 36.16 33.458 35.16C34.07 34.16 34.922 33.382 36.014 32.826C37.106 32.27 38.372 31.992 39.812 31.992C41.252 31.992 42.518 32.27 43.61 32.826C44.702 33.382 45.554 34.16 46.166 35.16C46.778 36.16 47.084 37.32 47.084 38.64C47.084 39.96 46.778 41.12 46.166 42.12C45.554 43.12 44.702 43.9 43.61 44.46C42.518 45.02 41.252 45.3 39.812 45.3ZM39.8146 41.64C40.3089 41.64 40.732 41.516 41.084 41.268C41.436 41.02 41.706 40.672 41.894 40.224C42.082 39.776 42.176 39.2489 42.176 38.6426C42.176 38.0364 42.082 37.5104 41.894 37.0646C41.706 36.6189 41.436 36.274 41.084 36.03C40.732 35.786 40.3089 35.664 39.8146 35.664C39.3249 35.664 38.902 35.786 38.546 36.03C38.19 36.274 37.918 36.6189 37.73 37.0646C37.542 37.5104 37.448 38.0364 37.448 38.6426C37.448 39.2489 37.542 39.776 37.73 40.224C37.918 40.672 38.19 41.02 38.546 41.268C38.902 41.516 39.3249 41.64 39.8146 41.64ZM56.264 45V40.524C56.264 40.076 56.264 39.682 56.264 39.342C56.264 39.002 56.264 38.72 56.264 38.496C56.264 38.168 56.248 37.856 56.216 37.56C56.184 37.264 56.118 36.996 56.018 36.756C55.918 36.516 55.768 36.328 55.568 36.192C55.368 36.056 55.1 35.988 54.764 35.988C54.484 35.988 54.238 36.054 54.026 36.186C53.814 36.318 53.636 36.504 53.492 36.744C53.348 36.984 53.24 37.274 53.168 37.614C53.096 37.954 53.06 38.328 53.06 38.736L52.136 37.656C52.136 36.488 52.328 35.482 52.712 34.638C53.096 33.794 53.65 33.142 54.374 32.682C55.098 32.222 55.964 31.992 56.972 31.992C58.092 31.992 58.946 32.236 59.534 32.724C60.122 33.212 60.524 33.85 60.74 34.638C60.956 35.426 61.064 36.276 61.064 37.188C61.064 37.548 61.064 38.048 61.064 38.688C61.064 39.328 61.064 40.112 61.064 41.04V45H56.264ZM48.224 45V32.256H53.06V45H48.224ZM64.244 45V40.548C64.244 40.1 64.244 39.702 64.244 39.354C64.244 39.006 64.244 38.72 64.244 38.496C64.244 38.12 64.224 37.78 64.184 37.476C64.144 37.172 64.072 36.908 63.968 36.684C63.864 36.46 63.714 36.288 63.518 36.168C63.322 36.048 63.068 35.988 62.756 35.988C62.476 35.988 62.23 36.054 62.018 36.186C61.806 36.318 61.63 36.504 61.49 36.744C61.35 36.984 61.244 37.274 61.172 37.614C61.1 37.954 61.064 38.328 61.064 38.736L60.14 37.656C60.14 36.488 60.332 35.482 60.716 34.638C61.1 33.794 61.652 33.142 62.372 32.682C63.092 32.222 63.956 31.992 64.964 31.992C66.084 31.992 66.94 32.236 67.532 32.724C68.124 33.212 68.53 33.85 68.75 34.638C68.97 35.426 69.08 36.276 69.08 37.188C69.08 37.564 69.08 38.06 69.08 38.676C69.08 39.292 69.08 40.068 69.08 41.004V45H64.244ZM70.436 45V32.256H75.224V45H70.436ZM72.824 30.756C72.112 30.756 71.49 30.572 70.958 30.204C70.426 29.836 70.16 29.312 70.16 28.632C70.16 27.944 70.426 27.418 70.958 27.054C71.49 26.69 72.112 26.508 72.824 26.508C73.536 26.508 74.158 26.69 74.69 27.054C75.222 27.418 75.488 27.944 75.488 28.632C75.488 29.32 75.222 29.846 74.69 30.21C74.158 30.574 73.536 30.756 72.824 30.756ZM81.632 26.244V45H76.868V26.244H81.632ZM85.436 39.948V37.068H92.948L92.588 37.692C92.588 37.628 92.588 37.558 92.588 37.482C92.588 37.406 92.588 37.34 92.588 37.284C92.588 37.012 92.51 36.73 92.354 36.438C92.198 36.146 91.946 35.9 91.598 35.7C91.25 35.5 90.784 35.4 90.2 35.4C89.632 35.4 89.156 35.52 88.772 35.76C88.388 36 88.1 36.354 87.908 36.822C87.716 37.29 87.62 37.86 87.62 38.532C87.62 39.236 87.712 39.836 87.896 40.332C88.08 40.828 88.372 41.206 88.772 41.466C89.172 41.726 89.696 41.856 90.344 41.856C90.728 41.856 91.056 41.828 91.328 41.772C91.6 41.716 91.818 41.644 91.982 41.556C92.146 41.468 92.27 41.372 92.354 41.268C92.438 41.164 92.488 41.064 92.504 40.968H97.28C97.224 41.528 97.022 42.068 96.674 42.588C96.326 43.108 95.848 43.574 95.24 43.986C94.632 44.398 93.9 44.722 93.044 44.958C92.188 45.194 91.22 45.312 90.14 45.312C88.644 45.312 87.348 45.03 86.252 44.466C85.156 43.902 84.312 43.118 83.72 42.114C83.128 41.11 82.832 39.956 82.832 38.652C82.832 37.316 83.136 36.148 83.744 35.148C84.352 34.148 85.206 33.372 86.306 32.82C87.406 32.268 88.684 31.992 90.14 31.992C91.644 31.992 92.942 32.274 94.034 32.838C95.126 33.402 95.968 34.202 96.56 35.238C97.152 36.274 97.448 37.504 97.448 38.928C97.448 39.168 97.444 39.372 97.436 39.54C97.428 39.708 97.416 39.844 97.4 39.948H85.436ZM102.824 45.288C101.912 45.288 101.096 45.142 100.376 44.85C99.656 44.558 99.088 44.134 98.672 43.578C98.256 43.022 98.048 42.344 98.048 41.544C98.048 40.6 98.318 39.84 98.858 39.264C99.398 38.688 100.09 38.252 100.934 37.956C101.778 37.66 102.652 37.472 103.556 37.392C104.844 37.272 105.712 37.168 106.16 37.08C106.608 36.992 106.832 36.836 106.832 36.612C106.832 36.612 106.832 36.61 106.832 36.606C106.832 36.602 106.832 36.6 106.832 36.6C106.832 36.304 106.654 36.05 106.298 35.838C105.942 35.626 105.468 35.52 104.876 35.52C104.236 35.52 103.76 35.638 103.448 35.874C103.136 36.11 102.98 36.452 102.98 36.9H98.216C98.216 35.828 98.516 34.928 99.116 34.2C99.716 33.472 100.522 32.922 101.534 32.55C102.546 32.178 103.672 31.992 104.912 31.992C106.088 31.992 107.19 32.168 108.218 32.52C109.246 32.872 110.08 33.41 110.72 34.134C111.36 34.858 111.68 35.784 111.68 36.912C111.68 37.08 111.68 37.248 111.68 37.416C111.68 37.584 111.68 37.752 111.68 37.92V41.868C111.68 42.22 111.688 42.56 111.704 42.888C111.72 43.216 111.768 43.52 111.848 43.8C111.936 44.096 112.052 44.35 112.196 44.562C112.34 44.774 112.456 44.92 112.544 45H107.816C107.744 44.928 107.64 44.796 107.504 44.604C107.368 44.412 107.256 44.192 107.168 43.944C107.048 43.584 106.962 43.246 106.91 42.93C106.858 42.614 106.832 42.228 106.832 41.772L107.888 42.504C107.672 43.088 107.306 43.588 106.79 44.004C106.274 44.42 105.67 44.738 104.978 44.958C104.286 45.178 103.568 45.288 102.824 45.288ZM104.264 41.856C104.68 41.856 105.09 41.764 105.494 41.58C105.898 41.396 106.236 41.09 106.508 40.662C106.78 40.234 106.916 39.652 106.916 38.916V38.46L108.152 39.456C107.624 39.64 107.036 39.794 106.388 39.918C105.74 40.042 105.12 40.136 104.528 40.2C103.976 40.256 103.566 40.346 103.298 40.47C103.03 40.594 102.896 40.792 102.896 41.064C102.896 41.336 103.016 41.536 103.256 41.664C103.496 41.792 103.832 41.856 104.264 41.856ZM113.36 45V32.256H118.208V36.972L117.38 36.324C117.5 35.644 117.688 35.036 117.944 34.5C118.2 33.964 118.522 33.51 118.91 33.138C119.298 32.766 119.746 32.482 120.254 32.286C120.762 32.09 121.328 31.992 121.952 31.992C122.472 31.992 122.866 32.026 123.134 32.094C123.402 32.162 123.568 32.216 123.632 32.256L122.972 36.48C122.9 36.44 122.74 36.378 122.492 36.294C122.244 36.21 121.944 36.168 121.592 36.168C120.968 36.168 120.44 36.266 120.008 36.462C119.576 36.658 119.228 36.922 118.964 37.254C118.7 37.586 118.508 37.958 118.388 38.37C118.268 38.782 118.208 39.2 118.208 39.624V45H113.36ZM133.58 45V40.044C133.58 39.788 133.58 39.532 133.58 39.276C133.58 39.02 133.58 38.8 133.58 38.616C133.58 38.176 133.542 37.756 133.466 37.356C133.39 36.956 133.218 36.628 132.95 36.372C132.682 36.116 132.256 35.988 131.672 35.988C131.168 35.988 130.76 36.092 130.448 36.3C130.136 36.508 129.908 36.808 129.764 37.2C129.62 37.592 129.548 38.064 129.548 38.616L128.612 37.656C128.612 36.488 128.848 35.482 129.32 34.638C129.792 33.794 130.436 33.142 131.252 32.682C132.068 32.222 132.988 31.992 134.012 31.992C135.1 31.992 135.964 32.214 136.604 32.658C137.244 33.102 137.706 33.716 137.99 34.5C138.274 35.284 138.416 36.18 138.416 37.188C138.416 37.628 138.416 38.132 138.416 38.7C138.416 39.268 138.416 39.868 138.416 40.5V45H133.58ZM124.712 45V32.256H129.548V45H124.712Z" fill="#884856"/>
<mask id="path-2-inside-1_104_93" fill="white">
<path d="M447.3 22H515.58V54H447.3V22Z"/>
</mask>
<path d="M515.58 54V50H447.3V54V58H515.58V54Z" fill="#884856" mask="url(#path-2-inside-1_104_93)"/>
<path d="M448.42 40V28.48H455.353V30.4053H450.345V33.2773H454.393V35.2027H450.345V40H448.42ZM460.481 40.24C459.607 40.24 458.84 40.0504 458.18 39.6713C457.519 39.2922 457.004 38.7669 456.632 38.0953C456.261 37.4238 456.076 36.6498 456.076 35.7733C456.076 34.8293 456.258 34.0093 456.622 33.3133C456.986 32.6173 457.49 32.0778 458.135 31.6947C458.78 31.3116 459.526 31.12 460.374 31.12C461.268 31.12 462.028 31.3289 462.654 31.7467C463.281 32.1644 463.747 32.7547 464.052 33.5173C464.358 34.28 464.473 35.1804 464.397 36.2187H462.484V35.5147C462.478 34.5742 462.313 33.8875 461.988 33.4547C461.662 33.0218 461.151 32.8053 460.454 32.8053C459.666 32.8053 459.079 33.0498 458.694 33.5386C458.308 34.0275 458.116 34.7413 458.116 35.68C458.116 36.5565 458.308 37.2347 458.694 37.7147C459.079 38.1947 459.639 38.4347 460.374 38.4347C460.849 38.4347 461.258 38.3289 461.601 38.1174C461.944 37.9058 462.209 37.6009 462.396 37.2027L464.302 37.776C463.973 38.5564 463.462 39.1622 462.77 39.5933C462.078 40.0244 461.315 40.24 460.481 40.24ZM457.508 36.2187V34.76H463.454V36.2187H457.508ZM468.446 40.24C467.819 40.24 467.289 40.1216 466.858 39.8847C466.426 39.6478 466.1 39.3318 465.879 38.9367C465.658 38.5416 465.548 38.1067 465.548 37.632C465.548 37.2142 465.617 36.8398 465.756 36.5087C465.896 36.1776 466.109 35.8904 466.398 35.6473C466.686 35.4042 467.058 35.2044 467.513 35.048C467.863 34.9333 468.271 34.8318 468.735 34.7433C469.2 34.6549 469.706 34.5718 470.253 34.494C470.801 34.4162 471.374 34.3325 471.974 34.2427L471.281 34.6293C471.286 34.0329 471.152 33.5931 470.882 33.31C470.611 33.0269 470.152 32.8853 469.505 32.8853C469.118 32.8853 468.743 32.9766 468.38 33.1593C468.018 33.342 467.765 33.6533 467.62 34.0933L465.857 33.5413C466.071 32.8124 466.479 32.2267 467.08 31.784C467.682 31.3413 468.492 31.12 469.51 31.12C470.279 31.12 470.955 31.2449 471.537 31.4947C472.119 31.7444 472.553 32.1556 472.838 32.728C472.993 33.0302 473.086 33.34 473.118 33.6573C473.15 33.9747 473.166 34.3218 473.166 34.6987V40H471.476V38.1253L471.756 38.4346C471.366 39.056 470.912 39.5122 470.391 39.8033C469.871 40.0944 469.222 40.24 468.446 40.24ZM468.828 38.7014C469.265 38.7014 469.638 38.6238 469.946 38.4687C470.255 38.3136 470.502 38.1251 470.686 37.9033C470.871 37.6816 470.995 37.4702 471.057 37.2693C471.158 37.024 471.216 36.7429 471.231 36.426C471.247 36.1091 471.254 35.8515 471.254 35.6533L471.846 35.832C471.262 35.9253 470.761 36.0058 470.344 36.0733C469.928 36.1409 469.571 36.2051 469.274 36.266C468.978 36.3269 468.714 36.3955 468.484 36.472C468.262 36.5538 468.074 36.6473 467.919 36.7527C467.764 36.858 467.645 36.9804 467.562 37.12C467.48 37.2595 467.438 37.4222 467.438 37.608C467.438 37.8187 467.491 38.0065 467.596 38.1713C467.702 38.3362 467.857 38.4658 468.063 38.56C468.269 38.6542 468.524 38.7014 468.828 38.7014ZM480.308 40C479.738 40.1093 479.179 40.1564 478.631 40.1413C478.083 40.1262 477.594 40.0249 477.163 39.8373C476.732 39.6498 476.406 39.3502 476.182 38.9387C475.983 38.5627 475.878 38.1805 475.866 37.792C475.855 37.4036 475.849 36.9627 475.849 36.4693V28.96H477.774V36.3627C477.774 36.7049 477.778 37.0074 477.786 37.27C477.794 37.5327 477.849 37.7476 477.95 37.9147C478.142 38.232 478.449 38.4091 478.869 38.446C479.29 38.4829 479.769 38.4631 480.308 38.3867V40ZM474.284 32.872V31.36H480.308V32.872H474.284ZM485.409 40.2453C484.772 40.2453 484.245 40.1396 483.828 39.928C483.412 39.7164 483.081 39.4447 482.836 39.1127C482.59 38.7807 482.409 38.4278 482.292 38.054C482.174 37.6802 482.098 37.3265 482.064 36.9927C482.029 36.6589 482.012 36.3893 482.012 36.184V31.36H483.964V35.5227C483.964 35.7894 483.983 36.0882 484.022 36.4194C484.06 36.7505 484.147 37.0696 484.281 37.3767C484.415 37.6838 484.617 37.936 484.886 38.1334C485.156 38.3307 485.521 38.4294 485.982 38.4294C486.226 38.4294 486.468 38.3896 486.707 38.31C486.947 38.2305 487.163 38.094 487.357 37.9007C487.551 37.7073 487.707 37.4393 487.824 37.0967C487.942 36.754 488.001 36.3218 488.001 35.8L489.145 36.2907C489.145 37.024 489.002 37.69 488.717 38.2887C488.432 38.8873 488.012 39.3631 487.458 39.716C486.905 40.0689 486.222 40.2453 485.409 40.2453ZM488.236 40V37.32H488.001V31.36H489.94V40H488.236ZM492.18 40V31.36H493.884V33.464L493.676 33.192C493.784 32.904 493.928 32.6409 494.106 32.4027C494.285 32.1644 494.499 31.968 494.748 31.8133C494.96 31.6684 495.196 31.556 495.454 31.476C495.712 31.396 495.977 31.3467 496.249 31.328C496.521 31.3093 496.787 31.32 497.046 31.36V33.16C496.787 33.0844 496.492 33.0609 496.16 33.0893C495.829 33.1178 495.528 33.2098 495.257 33.3653C494.993 33.5102 494.777 33.6944 494.61 33.918C494.442 34.1415 494.318 34.396 494.238 34.6813C494.158 34.9667 494.118 35.2764 494.118 35.6107V40H492.18ZM502.329 40.24C501.455 40.24 500.688 40.0504 500.028 39.6713C499.367 39.2922 498.852 38.7669 498.48 38.0953C498.109 37.4238 497.924 36.6498 497.924 35.7733C497.924 34.8293 498.106 34.0093 498.47 33.3133C498.834 32.6173 499.338 32.0778 499.983 31.6947C500.628 31.3116 501.374 31.12 502.222 31.12C503.116 31.12 503.876 31.3289 504.502 31.7467C505.129 32.1644 505.595 32.7547 505.9 33.5173C506.206 34.28 506.321 35.1804 506.245 36.2187H504.332V35.5147C504.326 34.5742 504.161 33.8875 503.836 33.4547C503.51 33.0218 502.999 32.8053 502.302 32.8053C501.514 32.8053 500.927 33.0498 500.542 33.5386C500.156 34.0275 499.964 34.7413 499.964 35.68C499.964 36.5565 500.156 37.2347 500.542 37.7147C500.927 38.1947 501.487 38.4347 502.222 38.4347C502.697 38.4347 503.106 38.3289 503.449 38.1174C503.792 37.9058 504.057 37.6009 504.244 37.2027L506.15 37.776C505.821 38.5564 505.31 39.1622 504.618 39.5933C503.926 40.0244 503.163 40.24 502.329 40.24ZM499.356 36.2187V34.76H505.302V36.2187H499.356ZM511.374 40.2373C510.305 40.2373 509.438 39.9978 508.772 39.5187C508.107 39.0396 507.702 38.3645 507.556 37.4933L509.524 37.192C509.623 37.6187 509.847 37.9542 510.196 38.1987C510.544 38.4431 510.982 38.5654 511.51 38.5654C511.97 38.5654 512.327 38.474 512.582 38.2914C512.836 38.1087 512.964 37.856 512.964 37.5333C512.964 37.3387 512.917 37.1813 512.822 37.0613C512.728 36.9413 512.524 36.8253 512.21 36.7133C511.897 36.6013 511.414 36.4587 510.764 36.2853C510.04 36.0969 509.465 35.8918 509.038 35.67C508.611 35.4482 508.304 35.1853 508.118 34.8813C507.932 34.5773 507.838 34.2089 507.838 33.776C507.838 33.2373 507.979 32.7687 508.26 32.37C508.541 31.9713 508.936 31.6633 509.444 31.446C509.953 31.2287 510.551 31.12 511.238 31.12C511.909 31.12 512.504 31.2242 513.024 31.4327C513.545 31.6411 513.966 31.9367 514.286 32.3193C514.607 32.702 514.803 33.152 514.873 33.6693L512.905 34.024C512.857 33.6569 512.69 33.3664 512.404 33.1526C512.119 32.9389 511.741 32.8186 511.27 32.792C510.817 32.768 510.451 32.8369 510.173 32.9986C509.895 33.1604 509.756 33.3867 509.756 33.6773C509.756 33.8471 509.812 33.9904 509.924 34.1073C510.037 34.2242 510.262 34.3404 510.599 34.456C510.936 34.5716 511.442 34.7147 512.116 34.8853C512.806 35.064 513.358 35.2665 513.769 35.4927C514.181 35.7189 514.478 35.9891 514.662 36.3033C514.845 36.6176 514.937 36.9982 514.937 37.4453C514.937 38.3138 514.622 38.9962 513.99 39.4927C513.359 39.9891 512.487 40.2373 511.374 40.2373Z" fill="#884856"/>
<path d="M548.7 44V32.48H550.124V37.56H556.188V32.48H557.612V44H556.188V38.912H550.124V44H548.7ZM563.532 44.24C562.671 44.24 561.929 44.0453 561.308 43.656C560.687 43.2667 560.209 42.7287 559.874 42.042C559.539 41.3553 559.372 40.5653 559.372 39.672C559.372 38.768 559.543 37.974 559.884 37.29C560.225 36.606 560.707 36.0733 561.33 35.692C561.953 35.3107 562.687 35.12 563.532 35.12C564.396 35.12 565.139 35.314 565.762 35.702C566.385 36.09 566.863 36.626 567.198 37.31C567.533 37.994 567.7 38.7813 567.7 39.672C567.7 40.576 567.531 41.3707 567.194 42.056C566.857 42.7413 566.376 43.2767 565.752 43.662C565.128 44.0473 564.388 44.24 563.532 44.24ZM563.532 42.888C564.425 42.888 565.091 42.5893 565.53 41.992C565.969 41.3947 566.188 40.6213 566.188 39.672C566.188 38.6987 565.967 37.922 565.524 37.342C565.081 36.762 564.417 36.472 563.532 36.472C562.929 36.472 562.433 36.608 562.042 36.88C561.651 37.152 561.361 37.528 561.17 38.008C560.979 38.488 560.884 39.0427 560.884 39.672C560.884 40.6453 561.108 41.4247 561.556 42.01C562.004 42.5953 562.663 42.888 563.532 42.888ZM570.98 44L568.34 35.352L569.756 35.36L571.684 41.68L573.624 35.36H574.88L576.82 41.68L578.756 35.36H580.164L577.524 44H576.34L574.252 37.432L572.164 44H570.98ZM584.964 33.832V32.36H586.388V33.832H584.964ZM584.964 44V35.36H586.388V44H584.964ZM593.612 44C593.097 44.104 592.591 44.1467 592.094 44.128C591.597 44.1093 591.153 44.008 590.762 43.824C590.371 43.64 590.076 43.352 589.876 42.96C589.705 42.6213 589.613 42.2773 589.6 41.928C589.587 41.5787 589.58 41.1813 589.58 40.736V32.96H591.004V40.672C591.004 41.0267 591.008 41.3287 591.016 41.578C591.024 41.8273 591.079 42.0427 591.18 42.224C591.372 42.568 591.677 42.7687 592.096 42.826C592.515 42.8833 593.02 42.8667 593.612 42.776V44ZM587.828 36.536V35.36H593.612V36.536H587.828ZM601.028 44L597.692 32.48H599.18L601.74 41.592L604.292 32.488L605.788 32.48L608.348 41.592L610.9 32.48H612.396L609.06 44H607.636L605.04 34.968L602.452 44H601.028ZM616.476 44.24C615.615 44.24 614.873 44.0453 614.252 43.656C613.631 43.2667 613.153 42.7287 612.818 42.042C612.483 41.3553 612.316 40.5653 612.316 39.672C612.316 38.768 612.487 37.974 612.828 37.29C613.169 36.606 613.651 36.0733 614.274 35.692C614.897 35.3107 615.631 35.12 616.476 35.12C617.34 35.12 618.083 35.314 618.706 35.702C619.329 36.09 619.807 36.626 620.142 37.31C620.477 37.994 620.644 38.7813 620.644 39.672C620.644 40.576 620.475 41.3707 620.138 42.056C619.801 42.7413 619.32 43.2767 618.696 43.662C618.072 44.0473 617.332 44.24 616.476 44.24ZM616.476 42.888C617.369 42.888 618.035 42.5893 618.474 41.992C618.913 41.3947 619.132 40.6213 619.132 39.672C619.132 38.6987 618.911 37.922 618.468 37.342C618.025 36.762 617.361 36.472 616.476 36.472C615.873 36.472 615.377 36.608 614.986 36.88C614.595 37.152 614.305 37.528 614.114 38.008C613.923 38.488 613.828 39.0427 613.828 39.672C613.828 40.6453 614.052 41.4247 614.5 42.01C614.948 42.5953 615.607 42.888 616.476 42.888ZM622.404 44V35.36H623.676V37.448L623.468 37.176C623.569 36.9093 623.701 36.664 623.864 36.44C624.027 36.216 624.209 36.032 624.412 35.888C624.633 35.7093 624.886 35.572 625.17 35.476C625.454 35.38 625.743 35.3227 626.036 35.304C626.329 35.2853 626.604 35.304 626.86 35.36V36.696C626.561 36.6187 626.233 36.5987 625.874 36.636C625.515 36.6733 625.185 36.8027 624.884 37.024C624.604 37.224 624.389 37.4647 624.238 37.746C624.087 38.0273 623.983 38.332 623.924 38.66C623.865 38.988 623.836 39.3227 623.836 39.664V44H622.404ZM628.372 44L628.38 32.48H629.82V39.52L633.444 35.36H635.292L631.476 39.68L635.74 44H633.748L629.82 39.84V44H628.372ZM639.644 44.232C638.612 44.232 637.767 44.0067 637.11 43.556C636.453 43.1053 636.049 42.4747 635.9 41.664L637.356 41.432C637.473 41.9013 637.743 42.2733 638.164 42.548C638.585 42.8227 639.108 42.96 639.732 42.96C640.321 42.96 640.785 42.838 641.122 42.594C641.459 42.35 641.628 42.016 641.628 41.592C641.628 41.3493 641.572 41.152 641.46 41C641.348 40.848 641.117 40.7053 640.768 40.572C640.419 40.4387 639.892 40.2773 639.188 40.088C638.425 39.8853 637.825 39.6753 637.386 39.458C636.947 39.2407 636.635 38.988 636.45 38.7C636.265 38.412 636.172 38.0613 636.172 37.648C636.172 37.1413 636.311 36.698 636.588 36.318C636.865 35.938 637.253 35.6433 637.75 35.434C638.247 35.2247 638.828 35.12 639.492 35.12C640.148 35.12 640.734 35.2247 641.25 35.434C641.766 35.6433 642.183 35.938 642.5 36.318C642.817 36.698 643.007 37.1413 643.068 37.648L641.612 37.912C641.543 37.4507 641.319 37.086 640.942 36.818C640.565 36.55 640.081 36.408 639.492 36.392C638.932 36.3733 638.477 36.4733 638.128 36.692C637.779 36.9107 637.604 37.2053 637.604 37.576C637.604 37.7867 637.669 37.966 637.798 38.114C637.927 38.262 638.17 38.4027 638.526 38.536C638.882 38.6693 639.399 38.8213 640.076 38.992C640.836 39.1867 641.436 39.3967 641.876 39.622C642.316 39.8473 642.63 40.114 642.818 40.422C643.006 40.73 643.1 41.1067 643.1 41.552C643.1 42.3867 642.793 43.042 642.18 43.518C641.567 43.994 640.721 44.232 639.644 44.232Z" fill="#5A5C58"/>
<path d="M676.87 44V32.48H681.422C681.534 32.48 681.667 32.484 681.82 32.492C681.973 32.5 682.123 32.5173 682.27 32.544C682.891 32.64 683.414 32.854 683.838 33.186C684.262 33.518 684.581 33.936 684.796 34.44C685.011 34.944 685.118 35.5013 685.118 36.112C685.118 36.7227 685.01 37.28 684.794 37.784C684.578 38.288 684.258 38.706 683.834 39.038C683.41 39.37 682.889 39.584 682.27 39.68C682.123 39.7013 681.973 39.7173 681.818 39.728C681.663 39.7387 681.531 39.744 681.422 39.744H678.294V44H676.87ZM678.294 38.392H681.374C681.475 38.392 681.591 38.3867 681.72 38.376C681.849 38.3653 681.974 38.3467 682.094 38.32C682.462 38.2373 682.761 38.082 682.992 37.854C683.223 37.626 683.392 37.3587 683.5 37.052C683.608 36.7453 683.662 36.432 683.662 36.112C683.662 35.792 683.608 35.4787 683.5 35.172C683.392 34.8653 683.223 34.598 682.992 34.37C682.761 34.142 682.462 33.9867 682.094 33.904C681.974 33.8747 681.849 33.8553 681.72 33.846C681.591 33.8367 681.475 33.832 681.374 33.832H678.294V38.392ZM686.718 44V35.36H687.99V37.448L687.782 37.176C687.883 36.9093 688.015 36.664 688.178 36.44C688.341 36.216 688.523 36.032 688.726 35.888C688.947 35.7093 689.2 35.572 689.484 35.476C689.768 35.38 690.057 35.3227 690.35 35.304C690.643 35.2853 690.918 35.304 691.174 35.36V36.696C690.875 36.6187 690.547 36.5987 690.188 36.636C689.829 36.6733 689.499 36.8027 689.198 37.024C688.918 37.224 688.703 37.4647 688.552 37.746C688.401 38.0273 688.297 38.332 688.238 38.66C688.179 38.988 688.15 39.3227 688.15 39.664V44H686.718ZM692.854 33.832V32.36H694.278V33.832H692.854ZM692.854 44V35.36H694.278V44H692.854ZM700.318 44.24C699.441 44.24 698.697 44.044 698.086 43.652C697.475 43.26 697.01 42.7207 696.69 42.034C696.37 41.3473 696.206 40.5627 696.198 39.68C696.206 38.7813 696.374 37.9893 696.702 37.304C697.03 36.6187 697.501 36.0833 698.114 35.698C698.727 35.3127 699.467 35.12 700.334 35.12C701.243 35.12 702.027 35.344 702.686 35.792C703.345 36.24 703.787 36.8533 704.014 37.632L702.606 38.056C702.422 37.5547 702.126 37.1653 701.718 36.888C701.31 36.6107 700.843 36.472 700.318 36.472C699.726 36.472 699.238 36.6093 698.854 36.884C698.47 37.1587 698.185 37.5373 697.998 38.02C697.811 38.5027 697.715 39.056 697.71 39.68C697.718 40.6427 697.94 41.418 698.376 42.006C698.812 42.594 699.459 42.888 700.318 42.888C700.881 42.888 701.349 42.7587 701.722 42.5C702.095 42.2413 702.379 41.8667 702.574 41.376L704.014 41.752C703.713 42.5573 703.245 43.1733 702.61 43.6C701.975 44.0267 701.211 44.24 700.318 44.24ZM705.574 33.832V32.36H706.998V33.832H705.574ZM705.574 44V35.36H706.998V44H705.574ZM715.55 44V39.672C715.55 39.264 715.513 38.8707 715.44 38.492C715.367 38.1133 715.241 37.7727 715.062 37.47C714.883 37.1673 714.643 36.928 714.342 36.752C714.041 36.576 713.662 36.488 713.206 36.488C712.849 36.488 712.524 36.5487 712.232 36.67C711.94 36.7913 711.69 36.974 711.482 37.218C711.274 37.462 711.113 37.7693 711 38.14C710.887 38.5107 710.83 38.9467 710.83 39.448L709.894 39.16C709.894 38.3253 710.045 37.6073 710.346 37.006C710.647 36.4047 711.071 35.9427 711.618 35.62C712.165 35.2973 712.809 35.136 713.55 35.136C714.107 35.136 714.584 35.224 714.98 35.4C715.376 35.576 715.705 35.81 715.966 36.102C716.227 36.394 716.433 36.7193 716.582 37.078C716.731 37.4367 716.837 37.802 716.898 38.174C716.959 38.546 716.99 38.896 716.99 39.224V44H715.55ZM709.39 44V35.36H710.67V37.672H710.83V44H709.39ZM722.566 48.08C722.113 48.08 721.67 48.0113 721.238 47.874C720.806 47.7367 720.41 47.528 720.05 47.248C719.69 46.968 719.39 46.6133 719.15 46.184L720.454 45.496C720.667 45.92 720.969 46.2273 721.36 46.418C721.751 46.6087 722.155 46.704 722.574 46.704C723.123 46.704 723.579 46.604 723.94 46.404C724.301 46.204 724.569 45.9067 724.744 45.512C724.919 45.1173 725.003 44.6267 724.998 44.04V41.68H725.166V35.36H726.43V44.056C726.43 44.2933 726.423 44.5207 726.408 44.738C726.393 44.9553 726.366 45.1707 726.326 45.384C726.214 45.9973 725.993 46.5027 725.662 46.9C725.331 47.2973 724.905 47.5933 724.382 47.788C723.859 47.9827 723.254 48.08 722.566 48.08ZM722.462 44.24C721.657 44.24 720.965 44.0393 720.388 43.638C719.811 43.2367 719.367 42.6913 719.056 42.002C718.745 41.3127 718.59 40.536 718.59 39.672C718.59 38.808 718.745 38.0327 719.056 37.346C719.367 36.6593 719.811 36.1167 720.388 35.718C720.965 35.3193 721.654 35.12 722.454 35.12C723.267 35.12 723.952 35.318 724.508 35.714C725.064 36.11 725.485 36.6513 725.77 37.338C726.055 38.0247 726.198 38.8027 726.198 39.672C726.198 40.5333 726.055 41.3087 725.77 41.998C725.485 42.6873 725.065 43.2333 724.51 43.636C723.955 44.0387 723.273 44.24 722.462 44.24ZM722.638 42.936C723.219 42.936 723.697 42.796 724.07 42.516C724.443 42.236 724.719 41.85 724.898 41.358C725.077 40.866 725.166 40.304 725.166 39.672C725.166 39.0347 725.076 38.4713 724.896 37.982C724.716 37.4927 724.442 37.1107 724.074 36.836C723.706 36.5613 723.241 36.424 722.678 36.424C722.091 36.424 721.607 36.568 721.226 36.856C720.845 37.144 720.562 37.5333 720.378 38.024C720.194 38.5147 720.102 39.064 720.102 39.672C720.102 40.2853 720.195 40.8387 720.382 41.332C720.569 41.8253 720.849 42.216 721.224 42.504C721.599 42.792 722.07 42.936 722.638 42.936Z" fill="#5A5C58"/>
<path d="M1057.34 44.24C1056.5 44.24 1055.74 44.0933 1055.07 43.8C1054.39 43.5067 1053.84 43.0869 1053.4 42.5407C1052.97 41.9945 1052.69 41.344 1052.57 40.5893L1054.57 40.288C1054.74 40.9707 1055.09 41.4991 1055.62 41.8734C1056.15 42.2476 1056.77 42.4347 1057.46 42.4347C1057.87 42.4347 1058.26 42.3702 1058.62 42.2414C1058.98 42.1125 1059.28 41.9247 1059.5 41.678C1059.73 41.4313 1059.84 41.1316 1059.84 40.7787C1059.84 40.616 1059.82 40.4673 1059.76 40.3327C1059.71 40.198 1059.63 40.0771 1059.53 39.97C1059.43 39.8629 1059.29 39.7658 1059.13 39.6786C1058.97 39.5915 1058.78 39.5146 1058.56 39.448L1055.59 38.5707C1055.33 38.4969 1055.06 38.3964 1054.76 38.2693C1054.46 38.1422 1054.18 37.9689 1053.92 37.7493C1053.66 37.5298 1053.44 37.2478 1053.27 36.9033C1053.1 36.5589 1053.02 36.1324 1053.02 35.624C1053.02 34.8818 1053.21 34.2593 1053.58 33.7567C1053.96 33.254 1054.47 32.8767 1055.1 32.6247C1055.74 32.3727 1056.45 32.2489 1057.23 32.2533C1058.02 32.2622 1058.72 32.3987 1059.34 32.6627C1059.96 32.9267 1060.48 33.3084 1060.89 33.808C1061.31 34.3076 1061.6 34.9138 1061.77 35.6267L1059.7 35.9813C1059.62 35.5769 1059.45 35.2327 1059.21 34.9486C1058.96 34.6646 1058.67 34.4475 1058.32 34.2973C1057.97 34.1471 1057.6 34.0675 1057.2 34.0586C1056.82 34.0497 1056.46 34.106 1056.14 34.2273C1055.81 34.3486 1055.55 34.5209 1055.34 34.744C1055.14 34.9671 1055.04 35.2284 1055.04 35.528C1055.04 35.8133 1055.13 36.0444 1055.3 36.2213C1055.47 36.3982 1055.68 36.5393 1055.94 36.6447C1056.19 36.75 1056.45 36.8373 1056.71 36.9067L1058.77 37.48C1059.05 37.5565 1059.37 37.6587 1059.72 37.7867C1060.07 37.9147 1060.41 38.0931 1060.74 38.322C1061.06 38.5509 1061.33 38.8522 1061.54 39.226C1061.75 39.5998 1061.86 40.0729 1061.86 40.6453C1061.86 41.2436 1061.74 41.7682 1061.49 42.2193C1061.24 42.6704 1060.91 43.0451 1060.49 43.3433C1060.06 43.6416 1059.58 43.8656 1059.04 44.0153C1058.5 44.1651 1057.93 44.24 1057.34 44.24ZM1063.76 34.0507V32.28H1065.68V34.0507H1063.76ZM1063.76 44V35.36H1065.68V44H1063.76ZM1071.71 48.08C1071.24 48.08 1070.78 48.0047 1070.34 47.854C1069.9 47.7033 1069.5 47.488 1069.15 47.208C1068.8 46.928 1068.51 46.592 1068.28 46.2L1070.06 45.32C1070.22 45.632 1070.46 45.8642 1070.76 46.0167C1071.06 46.1691 1071.38 46.2454 1071.73 46.2454C1072.13 46.2454 1072.48 46.1756 1072.8 46.036C1073.11 45.8965 1073.35 45.6889 1073.52 45.4133C1073.7 45.1378 1073.78 44.7955 1073.77 44.3866V41.9253H1074.01V35.36H1075.7V44.4133C1075.7 44.6346 1075.69 44.8446 1075.67 45.0433C1075.66 45.242 1075.63 45.4391 1075.58 45.6347C1075.45 46.1911 1075.21 46.6493 1074.84 47.0093C1074.48 47.3693 1074.03 47.6378 1073.5 47.8147C1072.96 47.9916 1072.37 48.08 1071.71 48.08ZM1071.55 44.24C1070.75 44.24 1070.06 44.0398 1069.47 43.6393C1068.88 43.2389 1068.42 42.6944 1068.09 42.006C1067.77 41.3176 1067.6 40.5413 1067.6 39.6773C1067.6 38.8027 1067.77 38.0224 1068.1 37.3367C1068.43 36.6509 1068.89 36.11 1069.49 35.714C1070.1 35.318 1070.81 35.12 1071.62 35.12C1072.44 35.12 1073.13 35.3193 1073.69 35.718C1074.25 36.1167 1074.67 36.6598 1074.96 37.3473C1075.24 38.0349 1075.39 38.8116 1075.39 39.6773C1075.39 40.5404 1075.24 41.3162 1074.95 42.0047C1074.67 42.6931 1074.24 43.2378 1073.67 43.6387C1073.1 44.0396 1072.39 44.24 1071.55 44.24ZM1071.84 42.5147C1072.36 42.5147 1072.78 42.3951 1073.1 42.156C1073.42 41.9169 1073.65 41.5838 1073.79 41.1567C1073.94 40.7296 1074.01 40.2364 1074.01 39.6773C1074.01 39.1164 1073.94 38.6229 1073.79 38.1967C1073.65 37.7704 1073.42 37.4386 1073.11 37.2013C1072.8 36.964 1072.4 36.8453 1071.91 36.8453C1071.39 36.8453 1070.96 36.9724 1070.63 37.2266C1070.29 37.4809 1070.05 37.8222 1069.89 38.2507C1069.72 38.6791 1069.64 39.1547 1069.64 39.6773C1069.64 40.2053 1069.72 40.684 1069.88 41.1133C1070.04 41.5427 1070.28 41.8836 1070.6 42.136C1070.93 42.3885 1071.34 42.5147 1071.84 42.5147ZM1083.92 44V39.8373C1083.92 39.5698 1083.9 39.2706 1083.86 38.94C1083.82 38.6093 1083.73 38.2904 1083.6 37.9833C1083.46 37.6762 1083.26 37.424 1082.99 37.2266C1082.72 37.0293 1082.36 36.9306 1081.9 36.9306C1081.65 36.9306 1081.41 36.9704 1081.17 37.05C1080.93 37.1295 1080.72 37.266 1080.52 37.4593C1080.33 37.6527 1080.17 37.9195 1080.06 38.26C1079.94 38.6004 1079.88 39.0338 1079.88 39.56L1078.73 39.0693C1078.73 38.336 1078.88 37.67 1079.16 37.0713C1079.45 36.4727 1079.87 35.9969 1080.42 35.644C1080.98 35.2911 1081.66 35.1147 1082.47 35.1147C1083.11 35.1147 1083.64 35.2204 1084.05 35.432C1084.47 35.6436 1084.8 35.9153 1085.04 36.2473C1085.29 36.5793 1085.47 36.9322 1085.59 37.306C1085.71 37.6798 1085.78 38.0335 1085.82 38.3673C1085.85 38.7011 1085.87 38.9707 1085.87 39.176V44H1083.92ZM1077.93 44V35.36H1079.64V38.04H1079.88V44H1077.93ZM1091.31 44V32.48H1093.23V44H1091.31ZM1101.61 44V39.8373C1101.61 39.5698 1101.59 39.2706 1101.55 38.94C1101.52 38.6093 1101.43 38.2904 1101.29 37.9833C1101.16 37.6762 1100.96 37.424 1100.69 37.2266C1100.42 37.0293 1100.05 36.9306 1099.59 36.9306C1099.35 36.9306 1099.11 36.9704 1098.87 37.05C1098.63 37.1295 1098.41 37.266 1098.22 37.4593C1098.03 37.6527 1097.87 37.9195 1097.75 38.26C1097.63 38.6004 1097.57 39.0338 1097.57 39.56L1096.43 39.0693C1096.43 38.336 1096.57 37.67 1096.86 37.0713C1097.14 36.4727 1097.56 35.9969 1098.12 35.644C1098.67 35.2911 1099.35 35.1147 1100.17 35.1147C1100.8 35.1147 1101.33 35.2204 1101.75 35.432C1102.16 35.6436 1102.49 35.9153 1102.74 36.2473C1102.99 36.5793 1103.17 36.9322 1103.28 37.306C1103.4 37.6798 1103.48 38.0335 1103.51 38.3673C1103.55 38.7011 1103.56 38.9707 1103.56 39.176V44H1101.61ZM1095.62 44V35.36H1097.34V38.04H1097.57V44H1095.62Z" fill="#5A5C58"/>
<g filter="url(#filter1_d_104_93)">
<rect x="1136.53" y="16" width="111.45" height="44" rx="12" fill="#884856" shape-rendering="crispEdges"/>
<rect x="1137.53" y="17" width="109.45" height="42" rx="11" stroke="#2D2F2C" stroke-width="2" shape-rendering="crispEdges"/>
<path d="M1167.92 44.24C1167.07 44.24 1166.32 44.0933 1165.64 43.8C1164.97 43.5067 1164.41 43.0869 1163.98 42.5407C1163.54 41.9945 1163.27 41.344 1163.14 40.5893L1165.15 40.288C1165.32 40.9707 1165.67 41.4991 1166.2 41.8734C1166.73 42.2476 1167.34 42.4347 1168.04 42.4347C1168.45 42.4347 1168.83 42.3702 1169.2 42.2414C1169.56 42.1125 1169.85 41.9247 1170.08 41.678C1170.31 41.4313 1170.42 41.1316 1170.42 40.7787C1170.42 40.616 1170.39 40.4673 1170.34 40.3327C1170.29 40.198 1170.21 40.0771 1170.11 39.97C1170 39.8629 1169.87 39.7658 1169.71 39.6786C1169.54 39.5915 1169.35 39.5146 1169.14 39.448L1166.16 38.5707C1165.91 38.4969 1165.63 38.3964 1165.33 38.2693C1165.04 38.1422 1164.76 37.9689 1164.49 37.7493C1164.23 37.5298 1164.01 37.2478 1163.85 36.9033C1163.68 36.5589 1163.59 36.1324 1163.59 35.624C1163.59 34.8818 1163.78 34.2593 1164.16 33.7567C1164.54 33.254 1165.04 32.8767 1165.68 32.6247C1166.32 32.3727 1167.02 32.2489 1167.81 32.2533C1168.59 32.2622 1169.3 32.3987 1169.92 32.6627C1170.54 32.9267 1171.05 33.3084 1171.47 33.808C1171.88 34.3076 1172.18 34.9138 1172.35 35.6267L1170.28 35.9813C1170.19 35.5769 1170.03 35.2327 1169.78 34.9486C1169.54 34.6646 1169.24 34.4475 1168.89 34.2973C1168.54 34.1471 1168.17 34.0675 1167.78 34.0586C1167.39 34.0497 1167.04 34.106 1166.71 34.2273C1166.38 34.3486 1166.12 34.5209 1165.92 34.744C1165.72 34.9671 1165.62 35.2284 1165.62 35.528C1165.62 35.8133 1165.7 36.0444 1165.87 36.2213C1166.04 36.3982 1166.26 36.5393 1166.51 36.6447C1166.77 36.75 1167.02 36.8373 1167.28 36.9067L1169.35 37.48C1169.63 37.5565 1169.95 37.6587 1170.3 37.7867C1170.65 37.9147 1170.99 38.0931 1171.31 38.322C1171.64 38.5509 1171.91 38.8522 1172.12 39.226C1172.33 39.5998 1172.44 40.0729 1172.44 40.6453C1172.44 41.2436 1172.31 41.7682 1172.07 42.2193C1171.82 42.6704 1171.48 43.0451 1171.06 43.3433C1170.64 43.6416 1170.16 43.8656 1169.61 44.0153C1169.07 44.1651 1168.51 44.24 1167.92 44.24ZM1174.33 34.0507V32.28H1176.26V34.0507H1174.33ZM1174.33 44V35.36H1176.26V44H1174.33ZM1182.29 48.08C1181.81 48.08 1181.35 48.0047 1180.91 47.854C1180.47 47.7033 1180.08 47.488 1179.72 47.208C1179.37 46.928 1179.08 46.592 1178.86 46.2L1180.64 45.32C1180.8 45.632 1181.03 45.8642 1181.33 46.0167C1181.64 46.1691 1181.96 46.2454 1182.3 46.2454C1182.7 46.2454 1183.06 46.1756 1183.37 46.036C1183.68 45.8965 1183.93 45.6889 1184.1 45.4133C1184.27 45.1378 1184.36 44.7955 1184.35 44.3866V41.9253H1184.58V35.36H1186.28V44.4133C1186.28 44.6346 1186.27 44.8446 1186.25 45.0433C1186.23 45.242 1186.2 45.4391 1186.16 45.6347C1186.03 46.1911 1185.78 46.6493 1185.42 47.0093C1185.06 47.3693 1184.61 47.6378 1184.07 47.8147C1183.54 47.9916 1182.94 48.08 1182.29 48.08ZM1182.13 44.24C1181.33 44.24 1180.63 44.0398 1180.04 43.6393C1179.45 43.2389 1178.99 42.6944 1178.67 42.006C1178.34 41.3176 1178.18 40.5413 1178.18 39.6773C1178.18 38.8027 1178.34 38.0224 1178.67 37.3367C1179 36.6509 1179.47 36.11 1180.07 35.714C1180.67 35.318 1181.38 35.12 1182.2 35.12C1183.02 35.12 1183.71 35.3193 1184.26 35.718C1184.82 36.1167 1185.25 36.6598 1185.53 37.3473C1185.82 38.0349 1185.96 38.8116 1185.96 39.6773C1185.96 40.5404 1185.82 41.3162 1185.53 42.0047C1185.24 42.6931 1184.81 43.2378 1184.24 43.6387C1183.67 44.0396 1182.97 44.24 1182.13 44.24ZM1182.42 42.5147C1182.94 42.5147 1183.35 42.3951 1183.67 42.156C1183.99 41.9169 1184.22 41.5838 1184.37 41.1567C1184.51 40.7296 1184.58 40.2364 1184.58 39.6773C1184.58 39.1164 1184.51 38.6229 1184.37 38.1967C1184.22 37.7704 1183.99 37.4386 1183.68 37.2013C1183.38 36.964 1182.98 36.8453 1182.49 36.8453C1181.97 36.8453 1181.54 36.9724 1181.2 37.2266C1180.87 37.4809 1180.62 37.8222 1180.46 38.2507C1180.3 38.6791 1180.22 39.1547 1180.22 39.6773C1180.22 40.2053 1180.3 40.684 1180.46 41.1133C1180.61 41.5427 1180.86 41.8836 1181.18 42.136C1181.5 42.3885 1181.92 42.5147 1182.42 42.5147ZM1194.49 44V39.8373C1194.49 39.5698 1194.47 39.2706 1194.43 38.94C1194.39 38.6093 1194.31 38.2904 1194.17 37.9833C1194.04 37.6762 1193.84 37.424 1193.57 37.2266C1193.3 37.0293 1192.93 36.9306 1192.47 36.9306C1192.23 36.9306 1191.99 36.9704 1191.75 37.05C1191.51 37.1295 1191.29 37.266 1191.1 37.4593C1190.9 37.6527 1190.75 37.9195 1190.63 38.26C1190.51 38.6004 1190.45 39.0338 1190.45 39.56L1189.31 39.0693C1189.31 38.336 1189.45 37.67 1189.74 37.0713C1190.02 36.4727 1190.44 35.9969 1191 35.644C1191.55 35.2911 1192.23 35.1147 1193.05 35.1147C1193.68 35.1147 1194.21 35.2204 1194.63 35.432C1195.04 35.6436 1195.37 35.9153 1195.62 36.2473C1195.86 36.5793 1196.05 36.9322 1196.16 37.306C1196.28 37.6798 1196.36 38.0335 1196.39 38.3673C1196.43 38.7011 1196.44 38.9707 1196.44 39.176V44H1194.49ZM1188.5 44V35.36H1190.22V38.04H1190.45V44H1188.5ZM1206.36 44.24C1205.45 44.24 1204.64 44.0536 1203.94 43.6807C1203.25 43.3078 1202.7 42.7829 1202.31 42.106C1201.92 41.4291 1201.72 40.6338 1201.72 39.72V32.4933L1203.68 32.48V39.6693C1203.68 40.1031 1203.75 40.4905 1203.9 40.8313C1204.04 41.1722 1204.24 41.4616 1204.49 41.6994C1204.75 41.9371 1205.03 42.1178 1205.36 42.2414C1205.68 42.3649 1206.01 42.4267 1206.36 42.4267C1206.72 42.4267 1207.06 42.3638 1207.38 42.238C1207.71 42.1122 1207.99 41.9305 1208.24 41.6927C1208.49 41.4549 1208.69 41.1656 1208.83 40.8247C1208.98 40.4838 1209.05 40.0987 1209.05 39.6693V32.48H1211V39.72C1211 40.6329 1210.81 41.4278 1210.42 42.1047C1210.02 42.7816 1209.48 43.3067 1208.78 43.68C1208.09 44.0533 1207.28 44.24 1206.36 44.24ZM1217.39 44.24C1216.55 44.24 1215.84 44.0396 1215.28 43.6387C1214.71 43.2378 1214.28 42.6931 1213.99 42.0047C1213.7 41.3162 1213.56 40.5404 1213.56 39.6773C1213.56 38.8116 1213.7 38.0349 1213.99 37.3473C1214.27 36.6598 1214.7 36.1167 1215.25 35.718C1215.81 35.3193 1216.5 35.12 1217.32 35.12C1218.14 35.12 1218.85 35.318 1219.45 35.714C1220.05 36.11 1220.52 36.6509 1220.85 37.3367C1221.17 38.0224 1221.34 38.8027 1221.34 39.6773C1221.34 40.5413 1221.18 41.3176 1220.85 42.006C1220.52 42.6944 1220.07 43.2389 1219.48 43.6393C1218.89 44.0398 1218.19 44.24 1217.39 44.24ZM1213.23 47.84V35.36H1214.93V41.4267H1215.17V47.84H1213.23ZM1217.1 42.5147C1217.6 42.5147 1218.01 42.3885 1218.34 42.136C1218.66 41.8836 1218.9 41.5427 1219.06 41.1133C1219.22 40.684 1219.3 40.2053 1219.3 39.6773C1219.3 39.1547 1219.22 38.6791 1219.06 38.2507C1218.9 37.8222 1218.65 37.4809 1218.31 37.2266C1217.98 36.9724 1217.55 36.8453 1217.03 36.8453C1216.54 36.8453 1216.14 36.964 1215.83 37.2013C1215.52 37.4386 1215.3 37.7704 1215.15 38.1967C1215.01 38.6229 1214.93 39.1164 1214.93 39.6773C1214.93 40.2364 1215.01 40.7296 1215.15 41.1567C1215.3 41.5838 1215.53 41.9169 1215.85 42.156C1216.16 42.3951 1216.58 42.5147 1217.1 42.5147Z" fill="white"/>
</g>
<defs>
<filter id="filter1_d_104_93" x="1136.53" y="16" width="119.45" height="52" filterUnits="userSpaceOnUse" color-interpolation-filters="sRGB">
<feFlood flood-opacity="0" result="BackgroundImageFix"/>
<feColorMatrix in="SourceAlpha" type="matrix" values="0 0 0 0 0 0 0 0 0 0 0 0 0 0 0 0 0 0 127 0" result="hardAlpha"/>
<feOffset dx="8" dy="8"/>
<feComposite in2="hardAlpha" operator="out"/>
<feColorMatrix type="matrix" values="0 0 0 0 0.176471 0 0 0 0 0.184314 0 0 0 0 0.172549 0 0 0 1 0"/>
<feBlend mode="normal" in2="BackgroundImageFix" result="effect1_dropShadow_104_93"/>
<feBlend mode="normal" in="SourceGraphic" in2="effect1_dropShadow_104_93" result="shape"/>
</filter>
</defs>
</svg>
