<svg width="265" height="191" viewBox="0 0 265 191" fill="none" xmlns="http://www.w3.org/2000/svg">
<g filter="url(#filter0_d_102_50)">
<rect y="4.50275" width="258" height="182" rx="26" transform="rotate(-0.999999 0 4.50275)" fill="#FFADBC" fill-opacity="0.3" shape-rendering="crispEdges"/>
<rect x="1.52595" y="5.97634" width="255" height="179" rx="24.5" transform="rotate(-0.999999 1.52595 5.97634)" stroke="#2D2F2C" stroke-width="3" shape-rendering="crispEdges"/>
<path d="M42.6547 65.2608C41.3799 65.283 40.2723 64.8586 39.332 63.9873C38.3916 63.1161 37.848 62.0567 37.7012 60.8091C36.198 60.6353 34.9366 59.9947 33.9171 58.8873C32.8977 57.7799 32.3746 56.4639 32.348 54.9391C32.3388 54.4142 32.3985 53.8943 32.527 53.3795C32.6556 52.8647 32.8534 52.3799 33.1205 51.9251C32.8377 51.48 32.6232 51.0087 32.477 50.5112C32.3308 50.0136 32.2529 49.4899 32.2433 48.94C32.2167 47.4152 32.6936 46.088 33.674 44.9582C34.6544 43.8284 35.8803 43.1506 37.3516 42.9249C37.4043 41.6488 37.8979 40.5588 38.8322 39.6548C39.7666 38.7509 40.8837 38.2876 42.1835 38.2649C42.8334 38.2535 43.4417 38.3679 44.0085 38.6081C44.5753 38.8482 45.0998 39.1766 45.5822 39.5933C46.0247 39.1605 46.5312 38.8141 47.1018 38.5541C47.6723 38.2941 48.2826 38.1584 48.9325 38.1471C50.2323 38.1244 51.3585 38.5423 52.3111 39.4008C53.2637 40.2593 53.7887 41.3253 53.8859 42.5988C55.3642 42.773 56.6193 43.4137 57.6513 44.5209C58.6833 45.6281 59.2126 46.944 59.2392 48.4688C59.2488 49.0187 59.1892 49.5448 59.0604 50.0471C58.9317 50.5495 58.7338 51.028 58.4667 51.4827C58.7495 51.9279 58.9641 52.4054 59.1105 52.9155C59.2569 53.4255 59.3347 53.943 59.3439 54.4679C59.3709 56.0176 58.888 57.3575 57.8951 58.4875C56.9021 59.6175 55.6575 60.2956 54.1612 60.5217C54.0581 61.7737 53.5581 62.8514 52.6612 63.7547C51.7643 64.658 50.6785 65.1207 49.4037 65.143C48.7788 65.1539 48.1705 65.0457 47.579 64.8185C46.9874 64.5913 46.463 64.2692 46.0056 63.8521C45.5381 64.2853 45.019 64.6257 44.4482 64.8732C43.8774 65.1207 43.2796 65.2499 42.6547 65.2608ZM47.1428 43.0541L47.4439 60.3014C47.453 60.8264 47.642 61.2669 48.0108 61.623C48.3795 61.9791 48.8264 62.1526 49.3513 62.1434C49.8512 62.1347 50.2789 61.9272 50.6344 61.5209C50.9899 61.1147 51.1757 60.6614 51.192 60.161C50.6636 59.9702 50.1777 59.7099 49.7344 59.3801C49.2911 59.0503 48.8903 58.651 48.5321 58.1821C48.276 57.8365 48.1757 57.4632 48.2312 57.0622C48.2867 56.6612 48.4873 56.3326 48.8329 56.0766C49.1784 55.8205 49.5517 55.7202 49.9528 55.7757C50.3538 55.8312 50.6824 56.0318 50.9384 56.3774C51.2204 56.7725 51.5757 57.0726 52.0043 57.2776C52.4329 57.4827 52.8972 57.5809 53.3972 57.5721C54.222 57.5577 54.923 57.2517 55.5002 56.654C56.0774 56.0564 56.3587 55.3451 56.3443 54.5202C56.3422 54.3952 56.3337 54.2704 56.319 54.1456C56.3044 54.0209 56.2709 53.8964 56.2188 53.7723C55.7982 54.0297 55.3453 54.2251 54.86 54.3586C54.3748 54.4921 53.8697 54.5634 53.3448 54.5726C52.9199 54.58 52.5612 54.4425 52.2687 54.1601C51.9762 53.8776 51.8263 53.5239 51.8188 53.099C51.8114 52.6741 51.9489 52.3154 52.2314 52.0229C52.5138 51.7304 52.8675 51.5805 53.2924 51.573C54.1173 51.5586 54.8183 51.2526 55.3955 50.6549C55.9726 50.0573 56.254 49.346 56.2396 48.5211C56.2252 47.6963 55.9193 47.0015 55.3219 46.4368C54.7244 45.8722 54.013 45.5846 53.1877 45.574C52.9206 46.0287 52.5713 46.4286 52.1398 46.7737C51.7082 47.1188 51.2317 47.3959 50.7103 47.605C50.313 47.762 49.9253 47.7562 49.5473 47.5878C49.1693 47.4194 48.9143 47.1363 48.7824 46.7385C48.6504 46.3408 48.6624 45.953 48.8183 45.5752C48.9743 45.1974 49.2511 44.9426 49.6489 44.8106C50.0216 44.6791 50.3239 44.4488 50.5557 44.1197C50.7875 43.7906 50.8997 43.4136 50.8923 42.9886C50.8831 42.4637 50.6941 42.0232 50.3254 41.6671C49.9566 41.3109 49.5097 41.1375 48.9848 41.1466C48.4599 41.1558 48.0194 41.3448 47.6633 41.7135C47.3071 42.0823 47.1337 42.5291 47.1428 43.0541ZM44.4443 60.3538L44.1433 43.1064C44.1341 42.5815 43.9451 42.141 43.5764 41.7849C43.2076 41.4287 42.7608 41.2553 42.2358 41.2644C41.7109 41.2736 41.2704 41.4626 40.9143 41.8313C40.5582 42.2001 40.3847 42.647 40.3938 43.1719C40.4008 43.5718 40.5197 43.9385 40.7506 44.2721C40.9815 44.6056 41.2855 44.8316 41.6626 44.95C42.0647 45.068 42.3565 45.3129 42.538 45.6848C42.7196 46.0567 42.7513 46.4437 42.6333 46.8458C42.4903 47.2484 42.2329 47.5404 41.861 47.722C41.4891 47.9035 41.1019 47.9227 40.6993 47.7797C40.1709 47.5889 39.685 47.3286 39.2417 46.9988C38.7984 46.669 38.4353 46.2815 38.1525 45.8364C37.3531 45.8754 36.6648 46.1937 36.0876 46.7913C35.5105 47.389 35.2289 48.0878 35.2428 48.8876C35.2572 49.7125 35.5632 50.4135 36.1609 50.9907C36.7586 51.5678 37.4698 51.8492 38.2947 51.8348C38.7197 51.8274 39.0784 51.9649 39.3708 52.2474C39.6633 52.5298 39.8133 52.8835 39.8207 53.3084C39.8281 53.7334 39.6906 54.0921 39.4081 54.3845C39.1257 54.677 38.772 54.827 38.3471 54.8344C37.8222 54.8435 37.3149 54.7899 36.8253 54.6734C36.3357 54.5569 35.8762 54.3774 35.4469 54.1349C35.3991 54.2607 35.37 54.3863 35.3597 54.5115C35.3494 54.6367 35.3453 54.7617 35.3475 54.8867C35.3619 55.7116 35.668 56.4126 36.2656 56.9898C36.8633 57.5669 37.5746 57.8483 38.3994 57.8339C38.8994 57.8252 39.3599 57.7109 39.7812 57.491C40.2024 57.2711 40.547 56.9588 40.815 56.5541C41.0588 56.1998 41.3802 55.9879 41.779 55.9184C42.1779 55.8489 42.5544 55.9361 42.9088 56.18C43.2631 56.4238 43.475 56.7452 43.5444 57.144C43.6139 57.5429 43.5267 57.9194 43.2829 58.2738C42.9412 58.7548 42.5485 59.1742 42.1046 59.532C41.6608 59.8898 41.1782 60.1733 40.6568 60.3824C40.6905 60.8819 40.8982 61.3221 41.2799 61.703C41.6616 62.0839 42.1024 62.27 42.6023 62.2612C43.1273 62.2521 43.5678 62.0631 43.9239 61.6943C44.28 61.3256 44.4535 60.8787 44.4443 60.3538Z" fill="#884856"/>
<path d="M188.625 53.5713C187.457 53.5917 186.415 53.3718 185.499 52.9117C184.583 52.4517 183.86 51.8082 183.329 50.9813C182.799 50.1544 182.524 49.2051 182.505 48.1333C182.489 47.2214 182.68 46.3579 183.078 45.5429C183.476 44.7278 184.058 44.0575 184.825 43.5321L184.771 44.5412C184.177 43.9834 183.709 43.3915 183.366 42.7654C183.023 42.1393 182.844 41.4303 182.831 40.6384C182.813 39.6386 183.036 38.7626 183.499 38.0104C183.962 37.2582 184.608 36.6688 185.436 36.2423C186.265 35.8158 187.223 35.593 188.311 35.574C189.399 35.555 190.364 35.7442 191.207 36.1416C192.05 36.5389 192.716 37.1054 193.205 37.8409C193.694 38.5765 193.947 39.4442 193.965 40.4441C193.979 41.236 193.835 41.9486 193.534 42.5819C193.233 43.2153 192.768 43.8335 192.138 44.4366L192.121 43.4287C192.889 43.8954 193.486 44.5331 193.912 45.3417C194.339 46.1504 194.56 47.0107 194.576 47.9226C194.594 48.9944 194.351 49.9528 193.846 50.7977C193.34 51.6427 192.636 52.3111 191.732 52.8029C190.829 53.2948 189.793 53.5509 188.625 53.5713ZM188.572 50.4997C189.339 50.4863 189.96 50.2675 190.432 49.8432C190.905 49.4189 191.134 48.7988 191.12 47.9829C191.106 47.175 190.855 46.5613 190.368 46.1417C189.88 45.7222 189.253 45.5191 188.485 45.5325C187.717 45.5459 187.101 45.7707 186.636 46.2069C186.172 46.643 185.947 47.2651 185.961 48.0729C185.975 48.8888 186.222 49.5006 186.701 49.9083C187.18 50.316 187.804 50.5131 188.572 50.4997ZM188.431 42.437C189.055 42.4261 189.56 42.2632 189.947 41.9484C190.333 41.6336 190.521 41.1523 190.509 40.5044C190.498 39.8565 190.294 39.378 189.896 39.0689C189.499 38.7598 188.988 38.6107 188.364 38.6216C187.74 38.6324 187.235 38.7993 186.849 39.1221C186.462 39.4449 186.275 39.9302 186.286 40.5781C186.297 41.226 186.502 41.7005 186.899 42.0016C187.296 42.3028 187.807 42.4479 188.431 42.437ZM202.927 53.3216C202.055 53.3369 201.234 53.1712 200.464 52.8245C199.694 52.4779 199.027 51.9895 198.464 51.3592C197.901 50.729 197.492 49.992 197.237 49.1483L200.366 48.2536C200.477 48.6597 200.669 49.0084 200.943 49.2997C201.216 49.5909 201.532 49.8155 201.89 49.9732C202.249 50.131 202.617 50.2066 202.993 50.2C203.488 50.1914 203.94 50.0635 204.348 49.8163C204.756 49.5692 205.078 49.2395 205.315 48.8273C205.552 48.4151 205.666 47.961 205.657 47.4651C205.649 46.9692 205.519 46.5194 205.268 46.1157C205.017 45.712 204.683 45.3938 204.267 45.161C203.851 44.9282 203.395 44.8162 202.899 44.8248C202.291 44.8354 201.797 44.9461 201.416 45.1568C201.036 45.3674 200.751 45.5664 200.563 45.7538L197.788 44.962L198.156 35.7622L207.586 35.5976L207.64 38.6452L200.009 38.7784L201.142 37.6784L200.885 43.6118L200.322 42.9495C200.747 42.59 201.235 42.3255 201.784 42.1559C202.333 41.9863 202.848 41.8973 203.328 41.8889C204.415 41.8699 205.377 42.0952 206.214 42.5646C207.05 43.0341 207.71 43.6867 208.192 44.5224C208.675 45.3581 208.926 46.3199 208.945 47.4077C208.964 48.4955 208.697 49.4824 208.144 50.3681C207.592 51.2539 206.856 51.9629 205.937 52.495C205.018 53.0271 204.015 53.3027 202.927 53.3216ZM214.559 52.7585L212.362 50.6366L227.215 35.255L229.413 37.401L214.559 52.7585ZM226.083 52.9174C225.292 52.9313 224.566 52.7499 223.908 52.3733C223.249 51.9968 222.718 51.486 222.315 50.8409C221.911 50.1958 221.703 49.4734 221.689 48.6735C221.675 47.8896 221.862 47.1662 222.251 46.5033C222.639 45.8405 223.158 45.3073 223.807 44.9039C224.456 44.5006 225.165 44.2922 225.933 44.2788C226.725 44.2649 227.452 44.4463 228.115 44.8228C228.777 45.1993 229.308 45.7101 229.708 46.3552C230.107 47.0003 230.313 47.7228 230.327 48.5227C230.341 49.3226 230.16 50.0519 229.784 50.7105C229.407 51.3692 228.894 51.8982 228.245 52.2976C227.596 52.697 226.875 52.9036 226.083 52.9174ZM226.033 50.1579C226.315 50.153 226.572 50.0765 226.805 49.9284C227.039 49.7803 227.226 49.5872 227.365 49.3492C227.505 49.1111 227.573 48.8519 227.568 48.5715C227.563 48.2911 227.486 48.0342 227.338 47.8008C227.19 47.5673 226.997 47.3807 226.759 47.2408C226.521 47.1009 226.262 47.0334 225.982 47.0383C225.701 47.0432 225.444 47.1197 225.211 47.2678C224.977 47.4159 224.791 47.609 224.651 47.847C224.511 48.0851 224.443 48.3443 224.448 48.6247C224.453 48.9051 224.53 49.162 224.678 49.3954C224.826 49.6289 225.018 49.8156 225.255 49.9554C225.493 50.0953 225.752 50.1628 226.033 50.1579ZM215.842 43.7348C215.05 43.7486 214.323 43.5673 213.66 43.1908C212.997 42.8143 212.466 42.3035 212.067 41.6583C211.668 41.0132 211.461 40.2907 211.447 39.4908C211.433 38.707 211.621 37.9836 212.009 37.3207C212.398 36.6578 212.916 36.1247 213.565 35.7213C214.215 35.3179 214.923 35.1095 215.691 35.0961C216.483 35.0823 217.208 35.2636 217.867 35.6402C218.525 36.0168 219.056 36.5276 219.46 37.1726C219.863 37.8177 220.072 38.5402 220.086 39.34C220.1 40.1399 219.916 40.8692 219.536 41.528C219.155 42.1867 218.642 42.7158 217.997 43.1151C217.352 43.5144 216.634 43.721 215.842 43.7348ZM215.791 40.9752C216.073 40.9703 216.33 40.8938 216.564 40.7457C216.797 40.5976 216.984 40.4046 217.124 40.1665C217.263 39.9285 217.331 39.6693 217.326 39.3889C217.321 39.1085 217.245 38.8516 217.097 38.6181C216.948 38.3847 216.755 38.198 216.517 38.0581C216.279 37.9183 216.02 37.8508 215.74 37.8557C215.459 37.8606 215.202 37.9371 214.969 38.0852C214.735 38.2333 214.549 38.4263 214.409 38.6644C214.269 38.9024 214.202 39.1616 214.206 39.442C214.211 39.7224 214.288 39.9793 214.436 40.2128C214.584 40.4462 214.777 40.6329 215.014 40.7728C215.251 40.9127 215.51 40.9802 215.791 40.9752Z" fill="#2D2F2C"/>
<path d="M29.2707 106.001L32.352 92.6561L36.7705 92.579L40.2941 105.809L37.4307 105.859L34.5846 94.3184L34.6026 94.3181L32.1341 105.951L29.2707 106.001ZM31.5926 102.879L31.5546 100.703L37.8537 100.593L37.8916 102.769L31.5926 102.879ZM48.6033 105.664L48.5324 101.602C48.5285 101.376 48.5249 101.171 48.5217 100.985C48.5184 100.799 48.5155 100.632 48.5129 100.484C48.506 100.087 48.449 99.7251 48.3419 99.3981C48.2347 99.0711 48.0472 98.8116 47.7792 98.6194C47.5112 98.4273 47.1295 98.3355 46.6339 98.3442C46.2032 98.3517 45.8324 98.4572 45.5215 98.6606C45.2106 98.8641 44.9737 99.1437 44.8107 99.4994C44.6476 99.855 44.5702 100.266 44.5784 100.733L43.7982 100.181C43.7838 99.3558 43.9511 98.6277 44.3002 97.9969C44.6492 97.3661 45.1272 96.8693 45.7342 96.5064C46.3411 96.1436 47.0202 95.9556 47.7712 95.9425C48.5559 95.9288 49.2054 96.0738 49.7195 96.3775C50.2337 96.6811 50.6202 97.1122 50.879 97.6705C51.1377 98.2289 51.2737 98.8824 51.2867 99.6311C51.292 99.9347 51.298 100.277 51.3046 100.657C51.3113 101.037 51.318 101.424 51.3249 101.816L51.3912 105.615L48.6033 105.664ZM41.8778 105.781L41.711 96.2247L44.4988 96.1761L44.6656 105.733L41.8778 105.781ZM56.7308 105.724C56.0301 105.736 55.4073 105.635 54.8623 105.422C54.3173 105.209 53.8875 104.894 53.573 104.478C53.2585 104.062 53.096 103.554 53.0855 102.954C53.0738 102.279 53.2504 101.726 53.6155 101.294C53.9807 100.861 54.4687 100.526 55.0796 100.289C55.6906 100.051 56.3548 99.8925 57.0723 99.8128C58.1204 99.6925 58.844 99.5856 59.2432 99.4922C59.6425 99.3989 59.8403 99.249 59.8367 99.0426C59.8366 99.0402 59.8366 99.0375 59.8365 99.0345C59.8365 99.0315 59.8364 99.0288 59.8364 99.0264C59.8302 98.6725 59.6553 98.3962 59.3116 98.1976C58.9678 97.999 58.4924 97.9049 57.8854 97.9155C57.2423 97.9268 56.7542 98.0502 56.421 98.2858C56.0879 98.5215 55.9255 98.8781 55.9338 99.3556L53.1856 99.4036C53.1722 98.6357 53.369 97.9841 53.7762 97.4489C54.1833 96.9137 54.7423 96.5034 55.4532 96.218C56.1642 95.9325 56.969 95.782 57.8676 95.7663C58.7087 95.7516 59.4881 95.8646 60.2058 96.1053C60.9235 96.346 61.5046 96.7184 61.9491 97.2226C62.3936 97.7267 62.6226 98.3693 62.6363 99.1504C62.6385 99.2764 62.6407 99.4017 62.6428 99.5265C62.645 99.6513 62.6472 99.7767 62.6494 99.9027L62.7085 103.288C62.7127 103.53 62.724 103.765 62.7424 103.991C62.7607 104.218 62.7979 104.424 62.854 104.609C62.9187 104.813 62.9979 104.984 63.0916 105.122C63.1852 105.26 63.2607 105.355 63.318 105.407L60.5751 105.455C60.5299 105.411 60.4636 105.325 60.3762 105.196C60.2887 105.066 60.2129 104.916 60.1487 104.746C60.0742 104.537 60.0186 104.325 59.9818 104.111C59.9451 103.896 59.9242 103.646 59.9193 103.362L60.5021 103.749C60.3374 104.145 60.0701 104.489 59.7001 104.781C59.3302 105.073 58.8901 105.3 58.3798 105.464C57.8696 105.627 57.3199 105.713 56.7308 105.724ZM57.4394 103.616C57.8737 103.608 58.2799 103.522 58.6581 103.357C59.0363 103.192 59.3424 102.936 59.5764 102.591C59.8104 102.245 59.9226 101.797 59.9129 101.245L59.8961 100.28L60.6008 100.947C60.2122 101.096 59.7583 101.222 59.2392 101.324C58.7201 101.426 58.2031 101.508 57.6881 101.57C57.0784 101.639 56.6228 101.751 56.3213 101.906C56.0198 102.061 55.872 102.31 55.878 102.653C55.8838 102.984 56.0177 103.229 56.2797 103.389C56.5417 103.549 56.9283 103.625 57.4394 103.616ZM67.426 91.2662L67.6715 105.331L64.9233 105.379L64.6778 91.3141L67.426 91.2662ZM70.7618 109.412C70.4606 109.418 70.192 109.411 69.9558 109.391C69.7196 109.372 69.5719 109.351 69.5127 109.328L69.4759 107.219C69.5545 107.253 69.6912 107.279 69.8859 107.296C70.0806 107.313 70.2878 107.32 70.5073 107.316C70.8049 107.311 71.0702 107.247 71.3033 107.125C71.5364 107.004 71.7366 106.836 71.9039 106.621C72.0712 106.406 72.2003 106.154 72.2913 105.864L72.4466 105.377L68.984 95.7487L71.8925 95.6979L74.1025 103.501L73.7786 103.507L75.6448 95.6324L78.51 95.5824L75.406 105.669C75.1709 106.432 74.8781 107.09 74.5277 107.644C74.1773 108.197 73.7056 108.626 73.1127 108.93C72.5197 109.235 71.736 109.395 70.7618 109.412ZM83.6118 105.265C83.043 105.275 82.4942 105.22 81.9652 105.099C81.4362 104.978 80.961 104.792 80.5395 104.54C80.1181 104.289 79.7819 103.972 79.5309 103.588C79.28 103.205 79.1501 102.756 79.1411 102.241C79.1406 102.215 79.1401 102.186 79.1396 102.155C79.139 102.124 79.1386 102.097 79.1382 102.076L81.908 102.027C81.9084 102.049 81.9088 102.07 81.9091 102.09C81.9095 102.111 81.9099 102.134 81.9104 102.161C81.9164 102.506 82.0756 102.758 82.388 102.916C82.7004 103.073 83.1223 103.148 83.6538 103.138C83.925 103.134 84.1878 103.1 84.4424 103.037C84.6969 102.975 84.9055 102.878 85.0683 102.747C85.231 102.617 85.3107 102.452 85.3072 102.253C85.3016 101.935 85.1228 101.712 84.7707 101.584C84.4187 101.456 83.8534 101.336 83.0749 101.222C82.6345 101.157 82.1888 101.062 81.7377 100.939C81.2867 100.815 80.8709 100.646 80.4903 100.431C80.1097 100.216 79.8019 99.9423 79.5668 99.6092C79.3317 99.276 79.21 98.8665 79.2015 98.3806C79.1901 97.7303 79.3765 97.1803 79.7605 96.7307C80.1445 96.2812 80.6618 95.937 81.3123 95.6982C81.9629 95.4594 82.6805 95.3332 83.4652 95.3195C84.215 95.3064 84.9167 95.4186 85.5702 95.6563C86.2236 95.8939 86.7554 96.2414 87.1654 96.6987C87.5755 97.156 87.7862 97.7098 87.7975 98.3601C87.7978 98.3769 87.7982 98.3973 87.7986 98.4213C87.799 98.4453 87.7994 98.4669 87.7997 98.4861L85.055 98.534C85.0547 98.5148 85.0544 98.4962 85.0541 98.4782C85.0538 98.4602 85.0535 98.4428 85.0532 98.426C85.049 98.1861 84.9697 97.9927 84.8153 97.846C84.6609 97.6993 84.4655 97.5914 84.2291 97.5223C83.9927 97.4532 83.7473 97.4209 83.4929 97.4253C83.2698 97.4292 83.0359 97.4576 82.7914 97.5105C82.5469 97.5634 82.3417 97.6501 82.1758 97.7706C82.0099 97.8911 81.9288 98.0575 81.9325 98.2699C81.936 98.4714 82.0297 98.6348 82.2138 98.76C82.3978 98.8852 82.6528 98.9867 82.9788 99.0644C83.3048 99.1421 83.6789 99.2121 84.1013 99.2743C84.5067 99.3321 84.9343 99.4164 85.3839 99.5274C85.8335 99.6384 86.2557 99.7963 86.6506 100.001C87.0454 100.206 87.3685 100.48 87.6199 100.821C87.8713 101.163 88.0016 101.596 88.0107 102.119C88.0203 102.67 87.9023 103.141 87.6565 103.533C87.4107 103.925 87.0754 104.247 86.6508 104.499C86.2261 104.752 85.7514 104.94 85.2267 105.064C84.702 105.189 84.1637 105.256 83.6118 105.265ZM89.6857 104.947L89.5189 95.3902L92.2779 95.3421L92.4447 104.899L89.6857 104.947ZM90.8722 93.813C90.4391 93.8206 90.0594 93.7126 89.7332 93.489C89.4071 93.2655 89.2404 92.9455 89.2331 92.5292C89.2258 92.1116 89.3813 91.7864 89.6995 91.5534C90.0176 91.3204 90.3933 91.2001 90.8265 91.1926C91.2596 91.185 91.6386 91.2921 91.9636 91.5139C92.2885 91.7356 92.4546 92.0553 92.4619 92.4728C92.4692 92.8928 92.3144 93.2192 91.9974 93.4522C91.6804 93.6852 91.3053 93.8054 90.8722 93.813ZM98.4865 105.006C97.9178 105.016 97.3689 104.96 96.8399 104.839C96.3109 104.718 95.8357 104.532 95.4143 104.281C94.9928 104.029 94.6566 103.712 94.4057 103.329C94.1548 102.945 94.0248 102.496 94.0158 101.982C94.0153 101.955 94.0148 101.927 94.0143 101.895C94.0138 101.864 94.0133 101.838 94.0129 101.816L96.7828 101.768C96.7831 101.789 96.7835 101.81 96.7839 101.831C96.7842 101.851 96.7846 101.875 96.7851 101.901C96.7911 102.247 96.9503 102.498 97.2627 102.656C97.5751 102.814 97.9971 102.888 98.5286 102.879C98.7997 102.874 99.0626 102.84 99.3171 102.778C99.5716 102.715 99.7803 102.618 99.943 102.488C100.106 102.357 100.185 102.192 100.182 101.993C100.176 101.675 99.9976 101.452 99.6455 101.325C99.2934 101.197 98.7281 101.076 97.9496 100.963C97.5092 100.897 97.0635 100.803 96.6125 100.679C96.1615 100.555 95.7456 100.386 95.365 100.171C94.9844 99.9567 94.6766 99.6827 94.4415 99.3495C94.2065 99.0164 94.0847 98.6068 94.0762 98.1209C94.0649 97.4706 94.2512 96.9207 94.6352 96.4711C95.0192 96.0215 95.5365 95.6773 96.1871 95.4386C96.8376 95.1998 97.5552 95.0735 98.3399 95.0598C99.0898 95.0467 99.7914 95.159 100.445 95.3966C101.098 95.6343 101.63 95.9818 102.04 96.4391C102.45 96.8964 102.661 97.4502 102.672 98.1005C102.673 98.1173 102.673 98.1377 102.673 98.1617C102.674 98.1857 102.674 98.2073 102.674 98.2265L99.9298 98.2744C99.9295 98.2552 99.9291 98.2366 99.9288 98.2186C99.9285 98.2006 99.9282 98.1832 99.9279 98.1664C99.9237 97.9264 99.8444 97.7331 99.69 97.5864C99.5357 97.4397 99.3403 97.3318 99.1038 97.2627C98.8674 97.1936 98.622 97.1613 98.3676 97.1657C98.1445 97.1696 97.9107 97.198 97.6662 97.2509C97.4216 97.3037 97.2164 97.3904 97.0505 97.5109C96.8846 97.6314 96.8035 97.7979 96.8072 98.0102C96.8107 98.2118 96.9045 98.3752 97.0885 98.5004C97.2725 98.6256 97.5275 98.7271 97.8535 98.8048C98.1795 98.8825 98.5537 98.9525 98.976 99.0147C99.3815 99.0724 99.809 99.1568 100.259 99.2678C100.708 99.3787 101.13 99.5367 101.525 99.7416C101.92 99.9466 102.243 100.22 102.495 100.562C102.746 100.904 102.876 101.336 102.885 101.859C102.895 102.41 102.777 102.881 102.531 103.273C102.285 103.665 101.95 103.987 101.525 104.24C101.101 104.492 100.626 104.68 100.101 104.805C99.5767 104.929 99.0384 104.996 98.4865 105.006Z" fill="#2D2F2C"/>
<path d="M30.0668 131.996L29.916 123.357L33.4854 123.295C33.5694 123.294 33.6779 123.295 33.811 123.298C33.9441 123.302 34.0665 123.313 34.1781 123.331C34.6787 123.4 35.0943 123.559 35.4247 123.81C35.7551 124.06 36.0025 124.379 36.167 124.765C36.3314 125.15 36.4177 125.581 36.426 126.056C36.4343 126.531 36.3622 126.965 36.2097 127.356C36.0572 127.748 35.8202 128.074 35.4987 128.336C35.1772 128.598 34.7692 128.772 34.2746 128.858C34.1636 128.876 34.0408 128.89 33.9063 128.901C33.7718 128.911 33.6642 128.917 33.5836 128.918L31.4579 128.955L31.5105 131.971L30.0668 131.996ZM31.4342 127.602L33.4999 127.566C33.5813 127.564 33.6713 127.559 33.7702 127.549C33.869 127.539 33.9613 127.522 34.0468 127.498C34.2844 127.433 34.4707 127.324 34.6057 127.17C34.7407 127.016 34.8354 126.842 34.8897 126.648C34.944 126.454 34.9695 126.266 34.9663 126.082C34.9631 125.898 34.931 125.71 34.8699 125.518C34.8089 125.327 34.7083 125.156 34.568 125.007C34.4277 124.858 34.2377 124.755 33.998 124.698C33.9116 124.677 33.8188 124.663 33.7197 124.657C33.6206 124.651 33.5304 124.649 33.4491 124.65L31.3834 124.686L31.4342 127.602ZM37.1277 131.873L36.9769 123.234L38.4206 123.209L38.4841 126.846L42.5755 126.775L42.5121 123.138L43.9558 123.112L44.1066 131.751L42.6628 131.776L42.5992 128.129L38.5078 128.2L38.5714 131.848L37.1277 131.873ZM45.9413 122.148L47.5481 120.229L48.7599 120.208L50.4326 122.069L49.0828 122.093L48.1683 121.039L47.2911 122.124L45.9413 122.148ZM44.5845 131.743L47.1574 123.056L49.277 123.019L52.1514 131.611L50.6616 131.637L48.0567 123.929L48.3767 123.923L46.0743 131.717L44.5845 131.743ZM46.0716 129.842L46.048 128.493L50.5833 128.414L50.6069 129.763L46.0716 129.842ZM52.6293 131.602L52.4785 122.964L53.9423 122.938L58.054 128.957L57.9477 122.868L59.4115 122.843L59.5623 131.481L58.0985 131.507L53.9868 125.486L54.0931 131.577L52.6293 131.602ZM64.5215 131.395L64.3944 124.11L61.5968 124.159L61.5732 122.805L68.6121 122.682L68.6357 124.036L65.8381 124.085L65.9653 131.37L64.5215 131.395ZM70.3666 121.721L69.2687 121.74L70.1559 119.505L71.2537 119.485L70.3666 121.721ZM69.2408 131.312L69.09 122.674L70.5338 122.648L70.6846 131.287L69.2408 131.312ZM75.545 131.382C74.6818 131.397 73.9383 131.222 73.3144 130.855C72.6906 130.489 72.208 129.97 71.8666 129.3C71.5252 128.63 71.3467 127.848 71.3311 126.955C71.3155 126.062 71.4666 125.275 71.7844 124.593C72.1022 123.911 72.5665 123.376 73.1771 122.988C73.7878 122.6 74.5247 122.399 75.3879 122.384C76.3824 122.366 77.2161 122.601 77.8891 123.087C78.562 123.573 79.0388 124.236 79.3195 125.077L77.8687 125.503C77.6936 124.942 77.4011 124.506 76.9913 124.196C76.5815 123.886 76.0549 123.736 75.4117 123.747C74.8318 123.758 74.3508 123.896 73.9687 124.163C73.5867 124.429 73.3024 124.8 73.116 125.273C72.9295 125.747 72.8412 126.299 72.8508 126.929C72.8605 127.559 72.9667 128.107 73.1696 128.573C73.3724 129.04 73.6701 129.4 74.0626 129.653C74.4551 129.907 74.9413 130.029 75.5212 130.019C76.1644 130.007 76.6854 129.839 77.0841 129.512C77.4828 129.186 77.7599 128.741 77.9154 128.178L79.3802 128.553C79.129 129.403 78.6756 130.083 78.0201 130.593C77.3645 131.102 76.5395 131.365 75.545 131.382ZM80.1471 131.122L79.9964 122.483L81.4401 122.458L81.5036 126.096L85.595 126.024L85.5315 122.387L86.9753 122.361L87.1261 131L85.6823 131.025L85.6186 127.378L81.5272 127.449L81.5909 131.097L80.1471 131.122Z" fill="#5A5C58"/>
<g clip-path="url(#clip0_102_50)">
<rect x="29.5596" y="151.003" width="204.001" height="8.00123" rx="4.00061" transform="rotate(-0.999999 29.5596 151.003)" fill="#E2E3DD"/>
<rect x="29.5596" y="151.003" width="173.396" height="8.00123" transform="rotate(-0.999999 29.5596 151.003)" fill="#884856"/>
</g>
</g>
<defs>
<filter id="filter0_d_102_50" x="0" y="0" width="265.137" height="190.475" filterUnits="userSpaceOnUse" color-interpolation-filters="sRGB">
<feFlood flood-opacity="0" result="BackgroundImageFix"/>
<feColorMatrix in="SourceAlpha" type="matrix" values="0 0 0 0 0 0 0 0 0 0 0 0 0 0 0 0 0 0 127 0" result="hardAlpha"/>
<feOffset dx="4" dy="4"/>
<feComposite in2="hardAlpha" operator="out"/>
<feColorMatrix type="matrix" values="0 0 0 0 0.176471 0 0 0 0 0.184314 0 0 0 0 0.172549 0 0 0 1 0"/>
<feBlend mode="normal" in2="BackgroundImageFix" result="effect1_dropShadow_102_50"/>
<feBlend mode="normal" in="SourceGraphic" in2="effect1_dropShadow_102_50" result="shape"/>
</filter>
<clipPath id="clip0_102_50">
<rect x="29.5596" y="151.003" width="204.001" height="8.00123" rx="4.00061" transform="rotate(-0.999999 29.5596 151.003)" fill="white"/>
</clipPath>
</defs>
</svg>
