<svg width="356" height="230" viewBox="0 0 356 230" fill="none" xmlns="http://www.w3.org/2000/svg">
<g filter="url(#filter0_d_102_26)">
<rect x="3.79601" width="346.66" height="217.506" rx="26" transform="rotate(0.999999 3.79601 0)" fill="white" shape-rendering="crispEdges"/>
<rect x="5.2696" y="1.52595" width="343.66" height="214.506" rx="24.5" transform="rotate(0.999999 5.2696 1.52595)" stroke="#2D2F2C" stroke-width="3" shape-rendering="crispEdges"/>
<path d="M45.7908 41.0942L42.3809 41.0347L43.2725 40.0141L43.1035 49.6936L40.9352 49.6557L41.1041 39.9762L41.9848 41.0278L38.5567 40.9679L38.586 39.2882L45.8201 39.4144L45.7908 41.0942ZM48.3653 49.7854L48.5455 39.462L50.6872 39.4994L50.507 49.8228L48.3653 49.7854ZM54.9706 41.2544L55.9686 40.2357L55.8939 44.5148L55.4091 43.8874L59.2193 43.9539L59.19 45.6337L55.3798 45.5672L55.8861 44.9614L55.8108 49.2713L54.849 48.2183L59.9205 48.3068L59.8912 49.9866L53.6159 49.8771L53.7961 39.5536L60.0713 39.6632L60.042 41.343L54.9706 41.2544ZM54.6431 38.9957L56.3523 37.5791L57.7731 37.6039L59.4277 39.0793L58.0334 39.0549L56.7626 37.9L57.3379 37.91L56.0303 39.02L54.6431 38.9957ZM58.6364 37.9635L60.2253 36.5406L61.6405 36.5653L59.948 37.9864L58.6364 37.9635ZM65.1166 50.0778L63.0014 50.0409L63.1816 39.7175L66.5496 39.7763L69.8447 49.3776L69.4792 49.4609L69.6473 39.8303L71.7624 39.8672L71.5822 50.1907L68.182 50.1313L64.8921 40.5567L65.2842 40.4767L65.1166 50.0778ZM79.5959 50.3306L79.7761 40.0071L83.1133 40.0654C83.8029 40.0774 84.4287 40.213 84.9908 40.472C85.5529 40.7311 86.0339 41.0918 86.4338 41.5544C86.8336 42.0169 87.1387 42.565 87.3488 43.1988C87.559 43.8325 87.6574 44.5302 87.6441 45.2916C87.6309 46.0531 87.5081 46.7483 87.2759 47.3771C87.0437 48.006 86.7197 48.5471 86.3038 49.0005C85.888 49.4539 85.3946 49.8017 84.8238 50.0438C84.2529 50.2858 83.6227 50.4008 82.9331 50.3888L79.5959 50.3306ZM81.7853 49.7247L80.8235 48.6717L82.6796 48.7041C83.1854 48.7129 83.6444 48.5793 84.0567 48.3032C84.469 48.0271 84.7991 47.6293 85.0472 47.11C85.2952 46.5906 85.4255 45.9717 85.438 45.2531C85.4506 44.5299 85.342 43.9077 85.1122 43.3866C84.8823 42.8654 84.5661 42.463 84.1636 42.1792C83.7611 41.8954 83.3069 41.7491 82.8012 41.7402L80.945 41.7078L81.943 40.6891L81.7853 49.7247ZM78.8933 45.6598L78.9105 44.6757L84.0086 44.7647L83.9914 45.7488L78.8933 45.6598ZM94.7472 50.7602C94.1061 50.7491 93.5073 50.6224 92.951 50.3802C92.3947 50.1381 91.9077 49.7865 91.4901 49.3256C91.0725 48.8646 90.7491 48.3003 90.5199 47.6326C90.2907 46.9649 90.1836 46.2013 90.1986 45.3418C90.2137 44.4796 90.3466 43.7206 90.5975 43.065C90.8484 42.4095 91.1898 41.8609 91.6218 41.4195C92.0538 40.978 92.5524 40.6476 93.1177 40.4283C93.683 40.209 94.2881 40.105 94.933 40.1163C95.5797 40.1276 96.1824 40.2527 96.7411 40.4916C97.2998 40.7305 97.7873 41.0781 98.2036 41.5344C98.6199 41.9906 98.9413 42.5507 99.1678 43.2146C99.3942 43.8786 99.4999 44.6417 99.4849 45.5039C99.4699 46.3634 99.3362 47.1228 99.0838 47.7821C98.8315 48.4414 98.4879 48.9941 98.053 49.4401C97.6182 49.8862 97.1181 50.2205 96.5527 50.4431C95.9873 50.6657 95.3855 50.7714 94.7472 50.7602ZM94.7776 49.0189C95.2143 49.0265 95.6197 48.9143 95.9939 48.6824C96.3681 48.4504 96.6715 48.0723 96.9042 47.548C97.1369 47.0237 97.2608 46.3295 97.2759 45.4654C97.2911 44.5966 97.1903 43.8996 96.9736 43.3745C96.7568 42.8494 96.4662 42.4676 96.1016 42.2293C95.7371 41.991 95.3374 41.868 94.9025 41.8604C94.4723 41.8529 94.0697 41.9619 93.6947 42.1873C93.3198 42.4127 93.0148 42.7841 92.7799 43.3013C92.5449 43.8185 92.4199 44.5115 92.4047 45.3803C92.3896 46.2491 92.4903 46.9489 92.7069 47.4796C92.9236 48.0103 93.2153 48.3977 93.5821 48.6417C93.9489 48.8856 94.3474 49.0114 94.7776 49.0189ZM94.6991 53.4801C94.3645 53.4742 94.0734 53.38 93.826 53.1974C93.5785 53.0148 93.4576 52.7631 93.4632 52.4424C93.4689 52.1145 93.5988 51.8648 93.8528 51.6933C94.1069 51.5217 94.4012 51.4389 94.7358 51.4447C95.0704 51.4506 95.3615 51.5436 95.609 51.7239C95.8565 51.9042 95.9774 52.1577 95.9717 52.4843C95.966 52.8109 95.8361 53.06 95.5821 53.2315C95.328 53.4031 95.0337 53.4859 94.6991 53.4801ZM92.548 39.6574L94.2572 38.2408L95.6752 38.2655L97.3325 39.7409L95.9355 39.7165L94.6674 38.5616L95.24 38.5716L93.9352 39.6816L92.548 39.6574ZM107.13 50.8112L107.31 40.4877L110.647 40.546C111.337 40.558 111.963 40.6936 112.525 40.9526C113.087 41.2117 113.568 41.5724 113.968 42.035C114.367 42.4975 114.672 43.0456 114.883 43.6794C115.093 44.3131 115.191 45.0108 115.178 45.7723C115.165 46.5337 115.042 47.2289 114.81 47.8577C114.577 48.4866 114.253 49.0277 113.838 49.4811C113.422 49.9345 112.928 50.2823 112.358 50.5244C111.787 50.7664 111.157 50.8814 110.467 50.8694L107.13 50.8112ZM109.319 50.2053L108.357 49.1523L110.213 49.1847C110.719 49.1935 111.178 49.0599 111.591 48.7838C112.003 48.5077 112.333 48.1099 112.581 47.5906C112.829 47.0712 112.959 46.4523 112.972 45.7337C112.984 45.0105 112.876 44.3883 112.646 43.8672C112.416 43.346 112.1 42.9436 111.697 42.6598C111.295 42.376 110.841 42.2297 110.335 42.2208L108.479 42.1884L109.477 41.1697L109.319 50.2053ZM121.516 54.0672C121.181 54.0613 120.89 53.9671 120.642 53.7845C120.395 53.6019 120.274 53.3502 120.28 53.0295C120.285 52.7016 120.415 52.4519 120.669 52.2804C120.923 52.1088 121.218 52.026 121.552 52.0318C121.887 52.0377 122.178 52.1307 122.425 52.311C122.673 52.4913 122.794 52.7448 122.788 53.0714C122.782 53.398 122.653 53.6471 122.399 53.8186C122.144 53.9902 121.85 54.073 121.516 54.0672ZM124.949 40.7956C125.327 40.8022 125.604 40.6542 125.78 40.3516C125.956 40.0489 126.049 39.599 126.06 39.0017L127.398 39.0251C127.381 40.0096 127.152 40.7286 126.713 41.1821C126.273 41.6355 125.679 41.8557 124.93 41.8427L124.949 40.7956ZM125.728 47.407C125.705 48.7126 125.343 49.6817 124.64 50.3145C123.938 50.9473 122.986 51.2532 121.784 51.2322C120.584 51.2112 119.645 50.8723 118.968 50.2155C118.291 49.5586 117.964 48.5774 117.987 47.2719C117.99 47.0918 117.994 46.9017 117.997 46.7015C118.001 46.5013 118.004 46.2925 118.008 46.0751L118.102 40.6761L120.278 40.7141L120.178 46.4196C120.175 46.5951 120.172 46.7598 120.169 46.9138C120.167 47.0677 120.164 47.211 120.162 47.3435C120.149 48.0714 120.273 48.6093 120.533 48.9574C120.794 49.3054 121.221 49.4846 121.814 49.495C122.41 49.5054 122.845 49.3412 123.122 49.0026C123.398 48.6639 123.542 48.1306 123.555 47.4027L123.671 40.7733L125.843 40.8112L125.728 47.407ZM133.871 51.2779L136.629 40.9883L140.065 41.0483L142.445 51.4276L140.218 51.3887L138.319 42.341L138.333 42.3413L136.098 51.3168L133.871 51.2779ZM135.761 48.9138L135.79 47.2214L140.69 47.3069L140.66 48.9993L135.761 48.9138ZM137.187 40.4268L139.123 39.0127L140.855 39.0429L138.701 40.4532L137.187 40.4268ZM147.158 51.5099L145.043 51.4729L145.223 41.1495L148.591 41.2083L151.886 50.8097L151.521 50.8929L151.689 41.2624L153.804 41.2993L153.624 51.6227L150.224 51.5634L146.934 41.9887L147.326 41.9087L147.158 51.5099Z" fill="#3B644E"/>
<path d="M48.2918 97.8322C46.5401 97.8016 44.9895 97.4175 43.6402 96.6798C42.2909 95.9421 41.2402 94.9397 40.4882 93.6723C39.7362 92.405 39.3742 90.9675 39.4023 89.3597C39.4262 87.9919 39.7576 86.7075 40.3967 85.5065C41.0358 84.3055 41.9439 83.3312 43.1211 82.5836L42.9868 84.0935C42.1258 83.2263 41.4546 82.3145 40.9732 81.3579C40.4918 80.4014 40.2615 79.3292 40.2822 78.1414C40.3084 76.6416 40.6882 75.34 41.4215 74.2367C42.1549 73.1333 43.1539 72.2836 44.4185 71.6876C45.6831 71.0916 47.1313 70.8078 48.763 70.8363C50.3948 70.8648 51.8321 71.1989 53.0752 71.8387C54.3182 72.4785 55.2869 73.3625 55.9813 74.4908C56.6757 75.6191 57.0099 76.9331 56.9837 78.4329C56.963 79.6207 56.7104 80.6815 56.226 81.6152C55.7417 82.5489 55.0118 83.4513 54.0364 84.3224L54.0628 82.8106C55.1901 83.5504 56.052 84.5376 56.6485 85.7722C57.2451 87.0068 57.5314 88.308 57.5076 89.6758C57.4795 91.2835 57.0646 92.7075 56.2628 93.9477C55.461 95.1879 54.37 96.153 52.9898 96.843C51.6095 97.533 50.0435 97.8627 48.2918 97.8322ZM48.3722 93.2249C49.524 93.245 50.4653 92.9494 51.1961 92.338C51.9269 91.7267 52.303 90.8091 52.3243 89.5853C52.3455 88.3735 52.0017 87.4403 51.293 86.7859C50.5844 86.1314 49.6541 85.7941 48.5023 85.774C47.3504 85.7539 46.415 86.0586 45.6959 86.6882C44.9768 87.3177 44.6067 88.2384 44.5855 89.4502C44.5642 90.674 44.902 91.6041 45.599 92.2403C46.296 92.8766 47.2204 93.2048 48.3722 93.2249ZM48.5833 81.1307C49.5192 81.147 50.2851 80.9294 50.8811 80.4777C51.477 80.026 51.7835 79.3143 51.8005 78.3424C51.8174 77.3706 51.5361 76.6426 50.9565 76.1584C50.3768 75.6742 49.6191 75.4239 48.6832 75.4076C47.7474 75.3912 46.9813 75.6149 46.3852 76.0786C45.789 76.5422 45.4824 77.26 45.4654 78.2318C45.4485 79.2037 45.7299 79.9257 46.3098 80.3979C46.8896 80.8701 47.6475 81.1144 48.5833 81.1307ZM69.0545 71.7305L73.9498 71.816L66.5864 97.6114L61.6912 97.526L69.0545 71.7305ZM82.676 97.8923L83.0354 77.3034L78.124 80.2061L78.2182 74.8069L83.1284 71.9762L88.1316 72.0635L87.6792 97.9796L82.676 97.8923ZM93.7989 98.0504L93.8731 93.8031L104.912 84.3463C105.74 83.6406 106.328 82.9728 106.675 82.3427C107.022 81.7127 107.2 81.1217 107.21 80.5698C107.224 79.7779 107.074 79.0702 106.761 78.4466C106.448 77.8231 106 77.3292 105.419 76.965C104.837 76.6008 104.15 76.4118 103.358 76.3979C102.53 76.3835 101.798 76.5597 101.162 76.9267C100.525 77.2936 100.028 77.783 99.6689 78.3949C99.3101 79.0067 99.1365 79.6728 99.1479 80.3931L94.1087 80.3051C94.1397 78.5294 94.5564 77.0004 95.3589 75.7182C96.1614 74.436 97.2647 73.4531 98.6689 72.7695C100.073 72.0859 101.699 71.7603 103.547 71.7925C105.238 71.8221 106.747 72.2174 108.072 72.9787C109.397 73.7399 110.431 74.7871 111.176 76.1203C111.921 77.4535 112.278 78.99 112.248 80.7297C112.226 82.0136 112.027 83.0752 111.652 83.9148C111.278 84.7544 110.73 85.525 110.01 86.2265C109.289 86.9281 108.405 87.7198 107.358 88.6016L100.232 94.6342L99.8544 93.5474L112.021 93.7598L111.94 98.3671L93.7989 98.0504Z" fill="#2D2F2C"/>
<path d="M128.007 98.9836C126.894 98.9641 125.915 98.7178 125.07 98.2447C124.224 97.7715 123.567 97.115 123.099 96.275C122.63 95.435 122.405 94.4551 122.425 93.3353L122.584 84.1967L124.384 84.2181L124.227 93.2167C124.215 93.8966 124.32 94.491 124.541 95C124.762 95.5089 125.059 95.9325 125.432 96.2707C125.804 96.6089 126.218 96.8637 126.674 97.035C127.129 97.2063 127.583 97.2959 128.037 97.3038C128.496 97.3118 128.957 97.2374 129.418 97.0804C129.879 96.9234 130.301 96.6824 130.683 96.3574C131.066 96.0323 131.376 95.6193 131.613 95.1184C131.85 94.6175 131.974 94.0287 131.986 93.3521L132.143 84.3535L133.943 84.3849L133.783 93.5335C133.764 94.65 133.505 95.6198 133.007 96.4429C132.51 97.266 131.83 97.9001 130.969 98.3451C130.108 98.7902 129.12 99.003 128.007 98.9836ZM144.18 98.9658L144.274 93.5566C144.283 93.0467 144.246 92.5543 144.163 92.0795C144.079 91.6046 143.929 91.1761 143.713 90.7939C143.496 90.4117 143.201 90.1074 142.828 89.8808C142.456 89.6543 141.984 89.536 141.414 89.5261C140.968 89.5183 140.561 89.587 140.193 89.7323C139.825 89.8776 139.509 90.1004 139.244 90.4009C138.978 90.7013 138.771 91.0819 138.621 91.5427C138.471 92.0035 138.391 92.5471 138.38 93.1737L137.217 92.7933C137.235 91.7502 137.439 90.8561 137.829 90.1111C138.218 89.3661 138.758 88.798 139.449 88.4066C140.139 88.0153 140.947 87.8277 141.874 87.8439C142.57 87.856 143.164 87.9764 143.655 88.205C144.146 88.4336 144.552 88.7332 144.872 89.1039C145.192 89.4745 145.442 89.8856 145.621 90.3371C145.8 90.7887 145.923 91.2476 145.992 91.7138C146.06 92.1801 146.091 92.6182 146.084 93.0281L145.98 98.9972L144.18 98.9658ZM136.481 98.8314L136.67 88.0331L138.269 88.061L138.219 90.9506L138.419 90.954L138.281 98.8628L136.481 98.8314ZM149.001 86.338L149.033 84.4983L150.813 84.5294L150.781 86.3691L149.001 86.338ZM148.779 99.0461L148.968 88.2477L150.748 88.2788L150.559 99.0772L148.779 99.0461ZM159.588 99.2348C158.942 99.3535 158.309 99.3958 157.688 99.3616C157.066 99.3274 156.514 99.1911 156.03 98.9526C155.545 98.7141 155.182 98.3477 154.941 97.8534C154.735 97.4265 154.628 96.9945 154.619 96.5576C154.61 96.1207 154.61 95.624 154.62 95.0674L154.789 85.3489L156.569 85.38L156.401 95.0185C156.393 95.4618 156.391 95.8393 156.396 96.1511C156.401 96.4629 156.464 96.7332 156.587 96.962C156.819 97.3962 157.197 97.6536 157.719 97.7344C158.241 97.8152 158.872 97.8054 159.614 97.705L159.588 99.2348ZM152.522 89.78L152.547 88.3102L159.776 88.4364L159.75 89.9062L152.522 89.78ZM165.862 99.6343C164.572 99.6118 163.521 99.3117 162.709 98.7342C161.898 98.1566 161.407 97.3596 161.238 96.3431L163.063 96.0849C163.2 96.6741 163.528 97.1449 164.049 97.4973C164.569 97.8498 165.219 98.0329 165.999 98.0465C166.736 98.0593 167.318 97.917 167.745 97.6194C168.172 97.3218 168.39 96.908 168.399 96.3781C168.404 96.0748 168.338 95.827 168.202 95.6345C168.065 95.4421 167.78 95.2588 167.346 95.0845C166.913 94.9103 166.258 94.6971 165.382 94.4451C164.433 94.1752 163.687 93.8997 163.144 93.6185C162.6 93.3373 162.216 93.0147 161.99 92.6507C161.765 92.2867 161.657 91.8464 161.666 91.3298C161.677 90.6966 161.86 90.1455 162.215 89.6766C162.57 89.2078 163.06 88.8479 163.686 88.5972C164.313 88.3464 165.041 88.2282 165.87 88.2427C166.69 88.257 167.42 88.4006 168.061 88.6735C168.701 88.9464 169.215 89.3238 169.604 89.8056C169.992 90.2875 170.219 90.8457 170.285 91.4803L168.459 91.7784C168.383 91.2003 168.111 90.7397 167.646 90.3965C167.18 90.0534 166.579 89.8653 165.843 89.8325C165.143 89.7969 164.573 89.912 164.131 90.1777C163.69 90.4433 163.465 90.8078 163.457 91.2711C163.453 91.5344 163.53 91.7599 163.688 91.9477C163.846 92.1355 164.147 92.3166 164.589 92.491C165.031 92.6654 165.673 92.8667 166.516 93.0947C167.461 93.3546 168.207 93.6302 168.752 93.9214C169.297 94.2126 169.683 94.5527 169.912 94.9418C170.14 95.3308 170.249 95.8036 170.239 96.3602C170.221 97.4034 169.824 98.2157 169.047 98.7973C168.27 99.3788 167.208 99.6578 165.862 99.6343Z" fill="#5A5C58"/>
<g clip-path="url(#clip0_102_26)">
<rect x="36.5831" y="127.092" width="276.659" height="24.0037" rx="12.0018" transform="rotate(0.999999 36.5831 127.092)" fill="#E2E3DD"/>
<mask id="mask0_102_26" style="mask-type:alpha" maskUnits="userSpaceOnUse" x="39" y="130" width="180" height="22">
<g clip-path="url(#clip1_102_26)">
<g clip-path="url(#clip2_102_26)">
<path d="M39.3743 139.074C45.4317 133.225 51.3851 133.329 57.2346 139.386C63.0841 145.443 69.0375 145.547 75.0949 139.698C81.1522 133.848 87.1057 133.952 92.9552 140.01C98.8047 146.067 104.758 146.171 110.815 140.321C116.873 134.472 122.826 134.576 128.676 140.633C134.525 146.69 140.479 146.794 146.536 140.945C152.593 135.095 158.547 135.199 164.396 141.257C170.246 147.314 176.199 147.418 182.257 141.568C188.314 135.719 194.267 135.823 200.117 141.88C205.966 147.937 211.92 148.041 217.977 142.192" stroke="black" stroke-width="17.863"/>
</g>
</g>
</mask>
<g mask="url(#mask0_102_26)">
<rect x="39.5304" y="130.144" width="178.627" height="17.9927" transform="rotate(0.999999 39.5304 130.144)" fill="#3B644E"/>
</g>
</g>
<rect x="38.0567" y="128.618" width="273.659" height="21.0037" rx="10.5018" transform="rotate(0.999999 38.0567 128.618)" stroke="#2D2F2C" stroke-width="3"/>
<path d="M201.727 180.988L201.903 170.91L203.588 170.939L203.514 175.183L208.287 175.266L208.361 171.022L210.045 171.052L209.869 181.13L208.185 181.101L208.259 176.845L203.486 176.762L203.412 181.018L201.727 180.988ZM215.164 181.433C214.406 181.419 213.748 181.238 213.19 180.887C212.632 180.537 212.203 180.059 211.903 179.453C211.603 178.848 211.459 178.155 211.473 177.375C211.487 176.586 211.657 175.895 211.985 175.301C212.313 174.707 212.762 174.248 213.332 173.922C213.902 173.597 214.559 173.441 215.303 173.454C216.062 173.467 216.722 173.649 217.281 173.999C217.841 174.349 218.272 174.826 218.574 175.431C218.876 176.036 219.02 176.728 219.006 177.507C218.992 178.293 218.823 178.983 218.498 179.577C218.173 180.171 217.724 180.632 217.152 180.96C216.58 181.288 215.918 181.446 215.164 181.433ZM215.192 179.853C215.86 179.865 216.362 179.649 216.698 179.205C217.035 178.761 217.209 178.185 217.221 177.476C217.234 176.744 217.078 176.157 216.753 175.714C216.427 175.272 215.935 175.045 215.276 175.033C214.823 175.025 214.449 175.121 214.155 175.319C213.86 175.518 213.639 175.797 213.491 176.155C213.344 176.513 213.266 176.931 213.258 177.406C213.245 178.141 213.402 178.73 213.729 179.173C214.055 179.615 214.543 179.842 215.192 179.853ZM223.132 172.715L222.097 170.107L223.378 170.129L224.412 172.738L223.132 172.715ZM222.59 181.562C222.041 181.553 221.579 181.441 221.205 181.227C220.831 181.013 220.551 180.732 220.364 180.383C220.176 180.034 220.086 179.652 220.094 179.236C220.1 178.871 220.167 178.544 220.293 178.257C220.42 177.969 220.612 177.721 220.868 177.513C221.124 177.305 221.452 177.136 221.853 177.006C222.161 176.911 222.519 176.828 222.926 176.758C223.334 176.688 223.778 176.623 224.258 176.563C224.738 176.503 225.242 176.439 225.768 176.369L225.156 176.697C225.169 176.175 225.059 175.788 224.826 175.537C224.594 175.285 224.195 175.154 223.628 175.144C223.289 175.138 222.96 175.212 222.64 175.367C222.321 175.521 222.094 175.789 221.96 176.172L220.427 175.662C220.625 175.028 220.991 174.522 221.524 174.144C222.057 173.766 222.769 173.584 223.66 173.6C224.333 173.612 224.922 173.731 225.427 173.959C225.933 174.186 226.306 174.552 226.547 175.057C226.678 175.324 226.755 175.597 226.778 175.875C226.801 176.153 226.81 176.457 226.804 176.786L226.723 181.424L225.244 181.399L225.272 179.759L225.513 180.033C225.163 180.571 224.758 180.963 224.298 181.21C223.838 181.457 223.269 181.574 222.59 181.562ZM222.947 180.222C223.33 180.229 223.657 180.167 223.929 180.036C224.201 179.905 224.42 179.743 224.585 179.552C224.75 179.361 224.862 179.178 224.919 179.003C225.011 178.79 225.066 178.545 225.084 178.268C225.103 177.991 225.114 177.766 225.117 177.592L225.632 177.758C225.119 177.831 224.679 177.893 224.314 177.946C223.949 177.999 223.636 178.05 223.375 178.098C223.114 178.147 222.883 178.203 222.68 178.266C222.485 178.335 222.319 178.414 222.182 178.503C222.044 178.593 221.939 178.698 221.864 178.819C221.79 178.94 221.751 179.082 221.748 179.244C221.745 179.429 221.788 179.594 221.878 179.74C221.967 179.885 222.102 180.001 222.28 180.087C222.459 180.172 222.681 180.217 222.947 180.222ZM233.768 181.547L233.832 177.906C233.836 177.672 233.824 177.41 233.795 177.12C233.766 176.83 233.695 176.549 233.583 176.279C233.47 176.008 233.297 175.784 233.065 175.608C232.832 175.431 232.514 175.339 232.11 175.332C231.897 175.328 231.685 175.359 231.475 175.425C231.264 175.491 231.072 175.607 230.9 175.773C230.727 175.94 230.587 176.171 230.479 176.467C230.37 176.763 230.312 177.141 230.304 177.601L229.311 177.155C229.322 176.513 229.457 175.933 229.716 175.413C229.975 174.894 230.349 174.484 230.839 174.184C231.329 173.883 231.929 173.739 232.64 173.752C233.197 173.762 233.657 173.862 234.018 174.054C234.379 174.245 234.664 174.488 234.874 174.782C235.083 175.076 235.237 175.388 235.333 175.717C235.43 176.045 235.491 176.356 235.517 176.649C235.542 176.941 235.553 177.177 235.55 177.357L235.476 181.577L233.768 181.547ZM228.529 181.456L228.661 173.897L230.163 173.923L230.122 176.268L230.327 176.272L230.236 181.486L228.529 181.456ZM244.526 181.735C244.026 181.822 243.536 181.855 243.057 181.833C242.578 181.812 242.151 181.716 241.777 181.545C241.403 181.374 241.122 181.107 240.933 180.744C240.764 180.412 240.678 180.076 240.674 179.736C240.67 179.396 240.672 179.01 240.679 178.578L240.794 172.009L242.478 172.038L242.365 178.514C242.36 178.814 242.359 179.078 242.362 179.308C242.365 179.538 242.409 179.727 242.495 179.875C242.658 180.155 242.924 180.315 243.291 180.354C243.658 180.392 244.078 180.382 244.55 180.324L244.526 181.735ZM239.365 175.407L239.388 174.084L244.658 174.176L244.635 175.499L239.365 175.407ZM251.385 181.855L251.448 178.213C251.452 177.979 251.44 177.717 251.411 177.427C251.383 177.137 251.312 176.857 251.199 176.586C251.086 176.316 250.914 176.092 250.681 175.915C250.448 175.738 250.13 175.646 249.727 175.639C249.514 175.636 249.302 175.667 249.091 175.733C248.88 175.799 248.688 175.915 248.516 176.081C248.343 176.247 248.203 176.478 248.095 176.774C247.987 177.07 247.928 177.448 247.92 177.909L246.927 177.462C246.938 176.821 247.073 176.24 247.332 175.721C247.591 175.201 247.965 174.791 248.455 174.491C248.945 174.191 249.545 174.047 250.256 174.059C250.814 174.069 251.273 174.17 251.634 174.361C251.995 174.553 252.28 174.795 252.49 175.09C252.7 175.384 252.853 175.695 252.95 176.024C253.047 176.353 253.108 176.664 253.133 176.956C253.158 177.249 253.169 177.485 253.166 177.664L253.093 181.885L251.385 181.855ZM246.145 181.763L246.321 171.685L247.823 171.711L247.731 177.019L247.936 177.022L247.853 181.793L246.145 181.763ZM257.566 173.316L256.531 170.708L257.812 170.73L258.847 173.339L257.566 173.316ZM257.025 182.163C256.476 182.154 256.014 182.042 255.64 181.828C255.266 181.614 254.986 181.333 254.798 180.984C254.611 180.635 254.521 180.253 254.529 179.837C254.535 179.472 254.601 179.145 254.728 178.858C254.855 178.57 255.046 178.322 255.302 178.114C255.559 177.906 255.887 177.737 256.287 177.607C256.596 177.512 256.953 177.429 257.361 177.359C257.769 177.289 258.213 177.224 258.693 177.164C259.173 177.104 259.676 177.04 260.203 176.97L259.59 177.298C259.603 176.776 259.494 176.39 259.261 176.138C259.029 175.886 258.629 175.755 258.063 175.745C257.724 175.739 257.395 175.813 257.075 175.968C256.755 176.122 256.529 176.391 256.395 176.773L254.862 176.263C255.06 175.629 255.426 175.123 255.959 174.745C256.492 174.367 257.204 174.185 258.095 174.201C258.767 174.213 259.357 174.332 259.862 174.56C260.368 174.787 260.741 175.153 260.982 175.658C261.112 175.925 261.189 176.198 261.213 176.476C261.236 176.754 261.244 177.058 261.239 177.388L261.158 182.026L259.679 182L259.707 180.36L259.947 180.634C259.597 181.172 259.192 181.564 258.733 181.811C258.273 182.058 257.704 182.175 257.025 182.163ZM257.382 180.823C257.764 180.83 258.092 180.768 258.364 180.637C258.636 180.506 258.855 180.345 259.02 180.153C259.185 179.962 259.296 179.779 259.354 179.604C259.446 179.391 259.501 179.146 259.519 178.869C259.538 178.592 259.548 178.367 259.551 178.194L260.066 178.359C259.553 178.432 259.114 178.494 258.749 178.547C258.383 178.6 258.07 178.651 257.81 178.699C257.549 178.748 257.317 178.804 257.115 178.867C256.92 178.936 256.754 179.015 256.617 179.104C256.479 179.194 256.373 179.299 256.299 179.42C256.224 179.541 256.186 179.683 256.183 179.845C256.18 180.03 256.223 180.195 256.313 180.341C256.402 180.486 256.536 180.602 256.715 180.688C256.893 180.773 257.116 180.818 257.382 180.823ZM268.203 182.148L268.267 178.507C268.271 178.273 268.259 178.011 268.23 177.721C268.201 177.431 268.13 177.151 268.018 176.88C267.905 176.609 267.732 176.385 267.499 176.209C267.267 176.032 266.949 175.94 266.545 175.933C266.332 175.929 266.12 175.96 265.909 176.026C265.699 176.092 265.507 176.208 265.334 176.374C265.162 176.541 265.022 176.772 264.913 177.068C264.805 177.364 264.747 177.742 264.739 178.202L263.746 177.756C263.757 177.114 263.892 176.534 264.151 176.014C264.409 175.495 264.784 175.085 265.273 174.785C265.763 174.484 266.364 174.341 267.074 174.353C267.632 174.363 268.091 174.463 268.452 174.655C268.814 174.846 269.099 175.089 269.308 175.383C269.518 175.677 269.671 175.989 269.768 176.318C269.865 176.646 269.926 176.957 269.952 177.25C269.977 177.542 269.988 177.778 269.985 177.958L269.911 182.178L268.203 182.148ZM262.963 182.057L263.095 174.498L264.598 174.524L264.557 176.869L264.762 176.873L264.671 182.087L262.963 182.057ZM276.959 182.301L277.023 178.66C277.027 178.425 277.014 178.163 276.985 177.874C276.957 177.584 276.886 177.303 276.773 177.033C276.66 176.762 276.488 176.538 276.255 176.361C276.023 176.185 275.704 176.093 275.301 176.086C275.088 176.082 274.876 176.113 274.665 176.179C274.454 176.245 274.263 176.361 274.09 176.527C273.918 176.693 273.777 176.925 273.669 177.221C273.561 177.517 273.503 177.895 273.495 178.355L272.501 177.909C272.512 177.267 272.647 176.686 272.906 176.167C273.165 175.648 273.539 175.238 274.029 174.938C274.519 174.637 275.119 174.493 275.83 174.506C276.388 174.515 276.847 174.616 277.208 174.808C277.569 174.999 277.855 175.242 278.064 175.536C278.274 175.83 278.427 176.142 278.524 176.47C278.621 176.799 278.682 177.11 278.707 177.402C278.732 177.695 278.743 177.931 278.74 178.111L278.667 182.331L276.959 182.301ZM271.719 182.21L271.895 172.131L273.397 172.158L273.305 177.465L273.51 177.469L273.427 182.24L271.719 182.21ZM286.77 182.683C286.111 182.671 285.522 182.505 285.001 182.185C284.48 181.865 284.071 181.427 283.774 180.872C283.476 180.318 283.334 179.684 283.346 178.971L283.4 175.903C283.413 175.139 283.578 174.477 283.895 173.918C284.211 173.358 284.648 172.929 285.205 172.629C285.761 172.33 286.406 172.186 287.14 172.199C287.651 172.208 288.132 172.302 288.585 172.482C289.037 172.662 289.437 172.941 289.785 173.319L288.549 174.478C288.373 174.266 288.16 174.097 287.909 173.973C287.658 173.848 287.392 173.783 287.112 173.779C286.721 173.772 286.377 173.858 286.081 174.038C285.784 174.217 285.552 174.454 285.384 174.749C285.216 175.044 285.129 175.36 285.123 175.699L285.094 177.372L284.794 177.031C285.09 176.7 285.442 176.444 285.85 176.263C286.258 176.082 286.685 175.995 287.132 176.003C287.763 176.014 288.32 176.168 288.802 176.464C289.284 176.76 289.66 177.159 289.929 177.661C290.199 178.163 290.328 178.729 290.317 179.361C290.306 179.992 290.137 180.56 289.809 181.065C289.481 181.57 289.051 181.969 288.517 182.261C287.984 182.553 287.402 182.694 286.77 182.683ZM286.798 181.068C287.125 181.074 287.425 181 287.698 180.847C287.971 180.694 288.189 180.485 288.354 180.219C288.518 179.954 288.604 179.657 288.609 179.331C288.615 179.004 288.541 178.704 288.388 178.431C288.235 178.158 288.026 177.94 287.76 177.775C287.495 177.611 287.199 177.526 286.872 177.52C286.545 177.514 286.245 177.589 285.972 177.744C285.699 177.899 285.481 178.11 285.316 178.378C285.152 178.645 285.066 178.942 285.061 179.269C285.055 179.588 285.129 179.883 285.282 180.154C285.435 180.425 285.645 180.644 285.91 180.81C286.176 180.976 286.472 181.063 286.798 181.068ZM295.47 182.834C294.811 182.823 294.221 182.657 293.701 182.337C293.18 182.017 292.771 181.579 292.473 181.024C292.176 180.47 292.033 179.836 292.046 179.122L292.099 176.055C292.113 175.291 292.278 174.629 292.594 174.07C292.911 173.51 293.348 173.081 293.904 172.781C294.461 172.482 295.106 172.338 295.839 172.351C296.35 172.36 296.832 172.454 297.284 172.634C297.737 172.814 298.137 173.093 298.485 173.471L297.249 174.63C297.073 174.418 296.859 174.249 296.608 174.125C296.357 174 296.092 173.935 295.812 173.93C295.421 173.924 295.077 174.01 294.781 174.19C294.484 174.369 294.252 174.606 294.084 174.901C293.916 175.195 293.829 175.512 293.823 175.851L293.794 177.524L293.494 177.183C293.79 176.852 294.142 176.596 294.55 176.415C294.958 176.234 295.385 176.147 295.831 176.155C296.463 176.166 297.02 176.319 297.502 176.616C297.984 176.912 298.36 177.311 298.629 177.813C298.898 178.314 299.028 178.881 299.017 179.513C299.006 180.144 298.836 180.712 298.508 181.217C298.181 181.722 297.75 182.121 297.217 182.413C296.684 182.705 296.101 182.845 295.47 182.834ZM295.498 181.22C295.825 181.226 296.124 181.152 296.397 180.999C296.67 180.846 296.889 180.636 297.054 180.371C297.218 180.105 297.303 179.809 297.309 179.483C297.315 179.156 297.241 178.856 297.088 178.583C296.935 178.31 296.725 178.092 296.46 177.927C296.194 177.763 295.898 177.677 295.572 177.672C295.245 177.666 294.945 177.741 294.672 177.896C294.399 178.051 294.18 178.262 294.016 178.53C293.851 178.797 293.766 179.094 293.76 179.421C293.755 179.74 293.829 180.035 293.982 180.306C294.135 180.577 294.344 180.795 294.61 180.962C294.875 181.128 295.171 181.214 295.498 181.22ZM302.085 182.74L300.985 181.601L310.105 172.798L311.205 173.947L302.085 182.74ZM308.945 183.07C308.483 183.062 308.064 182.941 307.688 182.708C307.311 182.475 307.012 182.167 306.79 181.782C306.568 181.398 306.461 180.973 306.469 180.506C306.477 180.049 306.601 179.631 306.841 179.252C307.081 178.874 307.395 178.574 307.781 178.352C308.168 178.13 308.585 178.023 309.033 178.03C309.495 178.038 309.915 178.159 310.294 178.392C310.673 178.625 310.972 178.934 311.191 179.318C311.411 179.702 311.517 180.127 311.509 180.594C311.501 181.061 311.38 181.482 311.147 181.858C310.914 182.235 310.604 182.533 310.218 182.752C309.831 182.972 309.407 183.078 308.945 183.07ZM308.969 181.63C309.164 181.634 309.345 181.587 309.51 181.491C309.675 181.395 309.809 181.266 309.911 181.104C310.013 180.942 310.066 180.764 310.069 180.569C310.073 180.375 310.026 180.195 309.93 180.029C309.834 179.864 309.705 179.73 309.543 179.628C309.381 179.526 309.203 179.473 309.008 179.47C308.814 179.466 308.634 179.513 308.469 179.609C308.304 179.706 308.17 179.835 308.068 179.996C307.965 180.158 307.912 180.336 307.909 180.531C307.905 180.726 307.952 180.906 308.049 181.071C308.145 181.236 308.274 181.37 308.435 181.472C308.596 181.574 308.774 181.627 308.969 181.63ZM303.157 177.508C302.695 177.5 302.274 177.379 301.896 177.146C301.517 176.913 301.218 176.605 300.998 176.22C300.779 175.836 300.673 175.411 300.681 174.944C300.689 174.487 300.813 174.069 301.053 173.69C301.293 173.312 301.606 173.012 301.993 172.79C302.379 172.568 302.797 172.461 303.245 172.469C303.706 172.477 304.126 172.597 304.502 172.83C304.878 173.063 305.177 173.372 305.399 173.756C305.621 174.14 305.728 174.566 305.72 175.032C305.712 175.499 305.59 175.92 305.355 176.296C305.12 176.673 304.81 176.971 304.426 177.19C304.042 177.41 303.619 177.516 303.157 177.508ZM303.181 176.068C303.376 176.072 303.556 176.025 303.721 175.929C303.887 175.833 304.021 175.704 304.123 175.542C304.225 175.38 304.277 175.202 304.281 175.007C304.284 174.813 304.238 174.633 304.141 174.467C304.045 174.302 303.916 174.168 303.754 174.066C303.593 173.964 303.414 173.911 303.22 173.908C303.025 173.905 302.845 173.951 302.68 174.047C302.515 174.144 302.381 174.273 302.279 174.434C302.177 174.596 302.124 174.774 302.12 174.969C302.117 175.164 302.164 175.344 302.26 175.509C302.357 175.675 302.486 175.808 302.647 175.91C302.808 176.012 302.986 176.065 303.181 176.068Z" fill="#3B644E"/>
</g>
<defs>
<filter id="filter0_d_102_26" x="0.000106986" y="0" width="356.403" height="229.523" filterUnits="userSpaceOnUse" color-interpolation-filters="sRGB">
<feFlood flood-opacity="0" result="BackgroundImageFix"/>
<feColorMatrix in="SourceAlpha" type="matrix" values="0 0 0 0 0 0 0 0 0 0 0 0 0 0 0 0 0 0 127 0" result="hardAlpha"/>
<feOffset dx="6" dy="6"/>
<feComposite in2="hardAlpha" operator="out"/>
<feColorMatrix type="matrix" values="0 0 0 0 0.176471 0 0 0 0 0.184314 0 0 0 0 0.172549 0 0 0 1 0"/>
<feBlend mode="normal" in2="BackgroundImageFix" result="effect1_dropShadow_102_26"/>
<feBlend mode="normal" in="SourceGraphic" in2="effect1_dropShadow_102_26" result="shape"/>
</filter>
<clipPath id="clip0_102_26">
<rect x="36.5831" y="127.092" width="276.659" height="24.0037" rx="12.0018" transform="rotate(0.999999 36.5831 127.092)" fill="white"/>
</clipPath>
<clipPath id="clip1_102_26">
<rect width="178.627" height="17.9927" fill="white" transform="translate(39.5304 130.144) rotate(0.999999)"/>
</clipPath>
<clipPath id="clip2_102_26">
<rect width="178.63" height="17.863" fill="white" transform="translate(39.5304 130.144) rotate(0.999999)"/>
</clipPath>
</defs>
</svg>
