<svg width="268" height="194" viewBox="0 0 268 194" fill="none" xmlns="http://www.w3.org/2000/svg">
<g filter="url(#filter0_d_102_70)">
<rect y="9.00409" width="258" height="182" rx="26" transform="rotate(-2 0 9.00409)" fill="#CAF9DC" fill-opacity="0.3" shape-rendering="crispEdges"/>
<rect x="1.55144" y="10.4508" width="255" height="179" rx="24.5" transform="rotate(-2 1.55144 10.4508)" stroke="#2D2F2C" stroke-width="3" shape-rendering="crispEdges"/>
<path d="M37.6917 58.7144L42.264 58.5547L49.4976 50.7975C49.7146 50.5648 49.8744 50.3028 49.9768 50.0116C50.0791 49.7203 50.1256 49.4373 50.116 49.1625C50.1064 48.8876 50.0345 48.6212 49.9004 48.3632C49.7663 48.1053 49.5954 47.8673 49.3877 47.6495L47.9888 46.2724C47.7561 46.0554 47.5003 45.8955 47.2216 45.7927C46.9428 45.6898 46.6535 45.6437 46.3537 45.6541C46.0789 45.6637 45.7998 45.7298 45.5164 45.8522C45.233 45.9747 44.9828 46.1523 44.7658 46.385L37.5321 54.1422L37.6917 58.7144ZM47.8673 49.241L46.4322 47.9028L47.8673 49.241ZM39.8618 56.3872L39.8121 54.9631L43.4651 51.0457L44.2382 51.6941L44.939 52.4201L41.286 56.3375L39.8618 56.3872ZM44.2382 51.6941L44.939 52.4201L43.4651 51.0457L44.2382 51.6941ZM45.4495 58.4435L55.6808 58.0862L55.5761 55.088L48.343 55.3406L45.4495 58.4435ZM32.1142 70.9165L31.1719 43.9329C31.1431 43.1084 31.412 42.3923 31.9787 41.7847C32.5453 41.177 33.2409 40.8588 34.0654 40.83L58.0508 39.9924C58.8753 39.9637 59.5913 40.2326 60.199 40.7992C60.8066 41.3659 61.1248 42.0614 61.1536 42.8859L61.7818 60.875C61.8106 61.6995 61.5417 62.4155 60.9751 63.0232C60.4084 63.6308 59.7128 63.949 58.8883 63.9778L37.9011 64.7107L32.1142 70.9165ZM36.5222 61.757L58.7836 60.9797L58.1555 42.9906L34.1701 43.8282L34.8572 63.5037L36.5222 61.757ZM34.7983 61.8172L34.1701 43.8282L34.7983 61.8172Z" fill="#3B644E"/>
<path d="M187.664 54.8402C186.521 54.8801 185.486 54.6481 184.56 54.1441C183.634 53.6401 182.891 52.9196 182.329 51.9826C181.768 51.0456 181.466 49.9495 181.422 48.6943L181.247 43.6813C181.2 42.3221 181.422 41.1396 181.916 40.1338C182.409 39.128 183.126 38.3425 184.067 37.7773C185.008 37.2121 186.126 36.9069 187.421 36.8617C188.26 36.8324 189.064 36.9284 189.832 37.1497C190.601 37.371 191.311 37.7665 191.963 38.3361L189.718 40.7439C189.42 40.4661 189.08 40.2539 188.699 40.1071C188.318 39.9603 187.927 39.8939 187.527 39.9078C186.904 39.9296 186.367 40.0944 185.918 40.4023C185.468 40.7102 185.125 41.1024 184.89 41.5789C184.654 42.0554 184.546 42.5575 184.564 43.0852L184.654 45.6516L184.081 45.0713C184.559 44.5502 185.12 44.1445 185.762 43.8539C186.404 43.5633 187.073 43.4058 187.769 43.3815C188.856 43.3436 189.822 43.554 190.666 44.0128C191.511 44.4716 192.182 45.1166 192.679 45.9477C193.176 46.7789 193.444 47.7381 193.482 48.8255C193.52 49.9128 193.278 50.9038 192.757 51.7986C192.236 52.6933 191.529 53.4144 190.636 53.9619C189.742 54.5094 188.752 54.8022 187.664 54.8402ZM187.556 51.7221C188.051 51.7047 188.501 51.569 188.904 51.3147C189.308 51.0605 189.624 50.7253 189.854 50.309C190.083 49.8927 190.189 49.4367 190.172 48.941C190.155 48.4453 190.019 47.9958 189.765 47.5924C189.511 47.1891 189.175 46.8726 188.759 46.643C188.343 46.4133 187.887 46.3072 187.391 46.3245C186.895 46.3418 186.446 46.4796 186.043 46.7378C185.639 46.996 185.323 47.3353 185.094 47.7556C184.864 48.1758 184.758 48.6338 184.775 49.1295C184.792 49.6092 184.928 50.0488 185.182 50.4481C185.436 50.8475 185.771 51.164 186.187 51.3976C186.604 51.6312 187.06 51.7394 187.556 51.7221ZM202.967 54.3058C201.688 54.3504 200.559 54.1217 199.581 53.6195C198.603 53.1174 197.829 52.3959 197.26 51.4552C196.691 50.5145 196.384 49.4045 196.339 48.1253L196.158 42.9445C196.114 41.6652 196.343 40.5366 196.845 39.5585C197.347 38.5803 198.068 37.8067 199.009 37.2375C199.95 36.6683 201.06 36.3614 202.339 36.3167C203.618 36.2721 204.747 36.5008 205.725 37.003C206.703 37.5052 207.477 38.2266 208.046 39.1673C208.615 40.108 208.922 41.218 208.967 42.4972L209.148 47.678C209.192 48.9573 208.963 50.0859 208.461 51.0641C207.959 52.0422 207.238 52.8158 206.297 53.385C205.356 53.9542 204.246 54.2611 202.967 54.3058ZM202.859 51.2117C203.435 51.1916 203.95 51.0375 204.404 50.7495C204.858 50.4614 205.213 50.0808 205.469 49.6076C205.724 49.1344 205.842 48.61 205.822 48.0343L205.623 42.3498C205.603 41.7741 205.449 41.2592 205.161 40.805C204.873 40.3507 204.493 39.9958 204.019 39.7402C203.546 39.4845 203.022 39.3668 202.446 39.3869C201.87 39.407 201.356 39.561 200.901 39.8491C200.447 40.1371 200.092 40.5177 199.837 40.9909C199.581 41.4641 199.463 41.9886 199.483 42.5642L199.682 48.2487C199.702 48.8244 199.856 49.3393 200.144 49.7936C200.432 50.2478 200.813 50.6027 201.286 50.8584C201.759 51.114 202.283 51.2318 202.859 51.2117ZM215.355 53.513L213.121 51.4297L227.704 35.7912L229.939 37.8985L215.355 53.513ZM226.881 53.4707C226.089 53.4983 225.361 53.3297 224.696 52.9646C224.03 52.5996 223.491 52.0982 223.076 51.4602C222.662 50.8223 222.44 50.1036 222.412 49.3041C222.385 48.5206 222.56 47.794 222.937 47.1245C223.314 46.4549 223.823 45.9128 224.465 45.4981C225.107 45.0835 225.811 44.8628 226.579 44.836C227.371 44.8083 228.101 44.9769 228.77 45.3418C229.439 45.7067 229.979 46.2081 230.389 46.8462C230.8 47.4843 231.019 48.2031 231.047 49.0026C231.075 49.8021 230.907 50.5344 230.542 51.1995C230.177 51.8647 229.673 52.4026 229.031 52.8133C228.389 53.2239 227.672 53.4431 226.881 53.4707ZM226.782 50.7125C227.063 50.7026 227.319 50.6216 227.55 50.4695C227.781 50.3174 227.964 50.1211 228.1 49.8806C228.236 49.6402 228.299 49.3798 228.289 49.0995C228.279 48.8193 228.198 48.5637 228.046 48.3329C227.894 48.1021 227.697 47.9188 227.457 47.7831C227.217 47.6474 226.956 47.5845 226.676 47.5943C226.396 47.604 226.14 47.685 225.909 47.8372C225.679 47.9893 225.495 48.1856 225.36 48.4261C225.224 48.6665 225.161 48.9269 225.171 49.2071C225.18 49.4874 225.261 49.7429 225.414 49.9738C225.566 50.2046 225.762 50.3879 226.001 50.5236C226.24 50.6593 226.501 50.7223 226.782 50.7125ZM216.48 44.4682C215.689 44.4958 214.958 44.3272 214.289 43.9623C213.62 43.5975 213.08 43.096 212.67 42.4579C212.259 41.8199 212.04 41.1011 212.012 40.3016C211.985 39.5181 212.159 38.7915 212.536 38.122C212.913 37.4524 213.422 36.9103 214.064 36.4956C214.706 36.081 215.411 35.8603 216.178 35.8334C216.97 35.8058 217.698 35.9745 218.363 36.3395C219.029 36.7045 219.568 37.206 219.983 37.8439C220.397 38.4818 220.619 39.2005 220.647 40.0001C220.675 40.7996 220.504 41.532 220.135 42.1972C219.766 42.8625 219.262 43.4004 218.624 43.8109C217.986 44.2215 217.272 44.4405 216.48 44.4682ZM216.382 41.7099C216.663 41.7001 216.919 41.6191 217.15 41.467C217.381 41.3148 217.564 41.1185 217.699 40.8781C217.835 40.6376 217.898 40.3773 217.888 40.097C217.879 39.8168 217.798 39.5612 217.645 39.3304C217.493 39.0996 217.297 38.9163 217.057 38.7806C216.816 38.6449 216.556 38.582 216.275 38.5917C215.995 38.6015 215.74 38.6825 215.509 38.8346C215.278 38.9868 215.095 39.1831 214.959 39.4235C214.823 39.664 214.76 39.9243 214.77 40.2046C214.78 40.4849 214.861 40.7404 215.013 40.9713C215.165 41.2021 215.361 41.3854 215.6 41.5211C215.84 41.6568 216.1 41.7198 216.382 41.7099Z" fill="#2D2F2C"/>
<path d="M42.3273 104.723C42.3475 105.3 42.2591 105.889 42.0621 106.49C41.8651 107.09 41.5544 107.648 41.13 108.164C40.7055 108.679 40.1607 109.102 39.4956 109.432C38.8305 109.762 38.0381 109.943 37.1182 109.975C35.889 110.018 34.8291 109.763 33.9386 109.208C33.0481 108.654 32.3561 107.871 31.8627 106.858C31.3692 105.845 31.0991 104.669 31.0524 103.332C31.0057 101.993 31.1931 100.802 31.6148 99.76C32.0365 98.718 32.6722 97.891 33.522 97.279C34.3718 96.667 35.4113 96.3395 36.6405 96.2966C37.6623 96.2609 38.541 96.4169 39.2766 96.7647C40.0122 97.1124 40.6077 97.5755 41.0632 98.154C41.5186 98.7324 41.8358 99.3481 42.0147 100.001C42.1272 100.402 42.1899 100.788 42.2029 101.16L39.4019 101.258C39.3956 101.078 39.3763 100.903 39.344 100.734C39.2676 100.301 39.1149 99.9156 38.8858 99.579C38.6567 99.2424 38.3603 98.9805 37.9966 98.7933C37.6328 98.6061 37.2069 98.521 36.7188 98.5381C36.1408 98.5582 35.6332 98.7405 35.1962 99.0847C34.7591 99.429 34.4232 99.9444 34.1884 100.631C33.9537 101.318 33.8546 102.185 33.8912 103.233C33.9277 104.278 34.087 105.137 34.3693 105.81C34.6516 106.483 35.0228 106.979 35.4829 107.297C35.9431 107.614 36.4622 107.763 37.0402 107.743C37.4552 107.728 37.8198 107.64 38.1341 107.477C38.4484 107.314 38.7107 107.097 38.9209 106.825C39.1312 106.554 39.2879 106.246 39.3912 105.902C39.4945 105.558 39.5395 105.198 39.5264 104.821L42.3273 104.723ZM44.3244 109.511L43.9908 99.9591L46.7828 99.8616L46.8978 103.155L46.3112 102.812C46.364 102.362 46.4701 101.945 46.6295 101.56C46.789 101.175 47.0021 100.838 47.2688 100.55C47.5355 100.261 47.8571 100.033 48.2337 99.8658C48.6103 99.6984 49.042 99.6062 49.5289 99.5892C49.9163 99.5757 50.2198 99.593 50.4394 99.6411C50.659 99.6893 50.7958 99.7286 50.8497 99.7592L50.4819 102.276C50.4243 102.243 50.302 102.198 50.1151 102.14C49.9282 102.082 49.6884 102.058 49.3958 102.069C48.9161 102.085 48.5165 102.179 48.1971 102.351C47.8777 102.522 47.6255 102.745 47.4406 103.02C47.2557 103.295 47.1263 103.596 47.0525 103.924C46.9787 104.251 46.9475 104.578 46.9589 104.906L47.1163 109.414L44.3244 109.511ZM52.4896 109.226L52.156 99.6739L54.9138 99.5776L55.2474 109.13L52.4896 109.226ZM53.4816 98.0733C53.0486 98.0885 52.6672 97.9871 52.3372 97.7693C52.0071 97.5515 51.8349 97.2345 51.8203 96.8183C51.8058 96.401 51.9555 96.073 52.2696 95.8345C52.5837 95.596 52.9572 95.4692 53.3901 95.4541C53.8231 95.439 54.2039 95.5394 54.5327 95.7555C54.8614 95.9716 55.0331 96.2883 55.0476 96.7056C55.0623 97.1254 54.9132 97.4545 54.6003 97.693C54.2874 97.9314 53.9145 98.0582 53.4816 98.0733ZM62.0145 109.092C61.6488 109.104 61.2708 109.085 60.8806 109.035C60.4903 108.984 60.1265 108.871 59.7889 108.696C59.4514 108.52 59.1743 108.253 58.9577 107.895C58.741 107.537 58.6222 107.057 58.6012 106.455C58.5965 106.322 58.5918 106.187 58.5871 106.05C58.5823 105.914 58.5775 105.776 58.5726 105.637L58.4322 101.616L56.2214 101.693L56.146 99.5346L56.7702 99.5128C57.1323 99.5002 57.4193 99.4745 57.6311 99.4359C57.8429 99.3973 57.9982 99.315 58.0971 99.1891C58.196 99.0632 58.2567 98.8683 58.2793 98.6046C58.3019 98.3408 58.3052 97.9775 58.289 97.5145L58.247 96.3129L61.0426 96.2153L61.1524 99.3598L63.9281 99.2629L64.0035 101.422L61.2278 101.519L61.3477 104.953C61.3514 105.059 61.3551 105.164 61.3587 105.266C61.3623 105.369 61.3657 105.469 61.3691 105.566C61.3835 105.979 61.445 106.313 61.5536 106.568C61.6622 106.824 61.9126 106.945 62.3047 106.931C62.5038 106.924 62.6914 106.899 62.8676 106.855C63.0438 106.812 63.1757 106.77 63.2631 106.73L63.3365 108.833C63.2148 108.888 63.0399 108.942 62.8118 108.995C62.5837 109.049 62.318 109.081 62.0145 109.092ZM65.8374 108.76L65.5039 99.2078L68.2617 99.1115L68.5952 108.664L65.8374 108.76ZM66.8295 97.6072C66.3965 97.6223 66.015 97.521 65.685 97.3032C65.355 97.0854 65.1827 96.7684 65.1682 96.3522C65.1536 95.9349 65.3034 95.6069 65.6175 95.3684C65.9315 95.1299 66.305 95.0031 66.738 94.988C67.1709 94.9729 67.5518 95.0733 67.8805 95.2894C68.2093 95.5055 68.3809 95.8222 68.3955 96.2395C68.4102 96.6593 68.2611 96.9884 67.9482 97.2269C67.6353 97.4653 67.2624 97.5921 66.8295 97.6072ZM74.6559 108.665C73.8632 108.692 73.1235 108.527 72.4368 108.17C71.7501 107.813 71.1898 107.268 70.756 106.534C70.3221 105.801 70.086 104.886 70.0477 103.79C70.011 102.737 70.1885 101.837 70.5803 101.091C70.9721 100.345 71.499 99.7705 72.1609 99.368C72.8229 98.9655 73.5388 98.7507 74.3088 98.7238C75.0643 98.6975 75.7629 98.864 76.4047 99.2234C77.0464 99.5828 77.5678 100.088 77.9688 100.74C78.3697 101.392 78.5853 102.148 78.6153 103.01C78.6164 103.038 78.6173 103.066 78.6183 103.093C78.6192 103.12 78.6202 103.148 78.6212 103.177L77.4165 103.237C77.4159 103.219 77.4152 103.199 77.4145 103.178C77.4138 103.158 77.4131 103.138 77.4125 103.12C77.3968 102.67 77.2747 102.288 77.0464 101.973C76.8181 101.658 76.5302 101.418 76.1829 101.253C75.8355 101.088 75.4753 101.012 75.1024 101.025C74.4884 101.046 73.9637 101.27 73.5283 101.697C73.0929 102.123 72.891 102.787 72.9225 103.689C72.9539 104.589 73.2024 105.242 73.6681 105.648C74.1337 106.054 74.6724 106.247 75.284 106.226C75.6701 106.212 76.03 106.107 76.3636 105.911C76.6971 105.715 76.9639 105.446 77.1638 105.103C77.3637 104.759 77.4558 104.361 77.44 103.908L78.6475 103.931C78.6774 104.786 78.5191 105.567 78.1728 106.273C77.8264 106.98 77.3474 107.548 76.7356 107.979C76.1239 108.409 75.4306 108.638 74.6559 108.665ZM77.7323 112.28L77.2615 98.7972L80.0535 98.6997L80.5243 112.183L77.7323 112.28ZM85.9214 108.241C85.245 108.264 84.6832 108.173 84.2359 107.968C83.7887 107.763 83.4333 107.479 83.1697 107.117C82.9061 106.756 82.7154 106.349 82.5976 105.897C82.4797 105.446 82.4126 104.985 82.3962 104.517C82.3887 104.299 82.3807 104.071 82.3723 103.832C82.364 103.593 82.3555 103.348 82.3467 103.099L82.1905 98.6251L84.9807 98.5277L85.1213 102.555C85.1286 102.763 85.1355 102.962 85.1422 103.153C85.1489 103.343 85.155 103.52 85.1607 103.683C85.1747 104.083 85.2316 104.449 85.3315 104.782C85.4314 105.116 85.606 105.38 85.8554 105.576C86.1048 105.772 86.4549 105.862 86.9059 105.847C87.3424 105.831 87.7092 105.693 88.0063 105.433C88.3033 105.172 88.5269 104.844 88.677 104.449C88.8271 104.054 88.895 103.651 88.8806 103.24L89.6799 103.846C89.7009 104.449 89.6302 105.012 89.4678 105.534C89.3053 106.056 89.062 106.516 88.7379 106.915C88.4138 107.313 88.0148 107.629 87.5408 107.861C87.0668 108.093 86.527 108.219 85.9214 108.241ZM89.0451 107.95L88.7115 98.3974L91.4981 98.3001L91.8317 107.852L89.0451 107.95ZM94.8548 103.804L94.7905 101.962L101.123 101.741L100.869 102.211C100.867 102.168 100.866 102.122 100.864 102.075C100.862 102.028 100.861 101.985 100.86 101.948C100.848 101.605 100.755 101.279 100.581 100.97C100.408 100.661 100.148 100.412 99.8025 100.224C99.4567 100.035 99.0182 99.9503 98.487 99.9688C97.9605 99.9872 97.5117 100.115 97.1405 100.351C96.7693 100.587 96.4903 100.919 96.3035 101.346C96.1168 101.774 96.0337 102.284 96.0544 102.876C96.0757 103.488 96.1912 104.008 96.4007 104.438C96.6102 104.868 96.9121 105.192 97.3064 105.411C97.7006 105.629 98.185 105.728 98.7594 105.708C99.1336 105.695 99.455 105.65 99.7237 105.574C99.9924 105.497 100.21 105.401 100.377 105.284C100.544 105.168 100.67 105.043 100.753 104.909C100.837 104.776 100.885 104.645 100.897 104.517L103.657 104.421C103.634 104.827 103.509 105.227 103.282 105.621C103.055 106.014 102.733 106.373 102.317 106.696C101.901 107.02 101.392 107.283 100.79 107.485C100.188 107.686 99.4995 107.801 98.7236 107.828C97.667 107.865 96.7386 107.686 95.9384 107.292C95.1381 106.898 94.5084 106.334 94.0494 105.6C93.5903 104.866 93.3437 104.013 93.3098 103.04C93.2751 102.049 93.4655 101.172 93.8807 100.411C94.296 99.6493 94.8913 99.0467 95.6665 98.603C96.4416 98.1593 97.3461 97.9194 98.3799 97.8833C99.4425 97.8462 100.368 98.0249 101.157 98.4194C101.946 98.8139 102.563 99.3825 103.01 100.125C103.456 100.868 103.697 101.745 103.732 102.757C103.737 102.904 103.739 103.046 103.738 103.184C103.737 103.322 103.731 103.426 103.722 103.494L94.8548 103.804Z" fill="#2D2F2C"/>
<path d="M32.2883 135.957L31.9868 127.322L35.5546 127.198C35.6385 127.195 35.7471 127.194 35.8802 127.195C36.0133 127.197 36.1359 127.205 36.2478 127.222C36.7496 127.281 37.1678 127.434 37.5025 127.679C37.8373 127.923 38.0902 128.237 38.2614 128.62C38.4325 129.003 38.5264 129.432 38.543 129.907C38.5595 130.382 38.495 130.817 38.3493 131.211C38.2037 131.605 37.9724 131.935 37.6555 132.203C37.3387 132.47 36.9338 132.652 36.4408 132.746C36.3301 132.766 36.2075 132.782 36.0732 132.795C35.9389 132.808 35.8315 132.815 35.7509 132.818L33.6261 132.892L33.7314 135.907L32.2883 135.957ZM33.5789 131.539L35.6436 131.467C35.7249 131.464 35.8149 131.457 35.9136 131.446C36.0122 131.434 36.1041 131.416 36.1893 131.39C36.4257 131.321 36.61 131.208 36.7423 131.052C36.8746 130.896 36.9662 130.72 37.0171 130.526C37.068 130.331 37.0903 130.142 37.0839 129.958C37.0774 129.774 37.0421 129.587 36.9777 129.396C36.9133 129.206 36.8097 129.037 36.6668 128.89C36.524 128.744 36.3322 128.644 36.0916 128.592C36.0048 128.571 35.9118 128.559 35.8126 128.555C35.7134 128.551 35.6232 128.55 35.5419 128.553L33.4771 128.625L33.5789 131.539ZM39.346 135.711L39.0445 127.076L40.4876 127.025L40.6145 130.661L44.7041 130.518L44.5771 126.883L46.0202 126.832L46.3217 135.467L44.8786 135.517L44.7513 131.872L40.6618 132.014L40.7891 135.66L39.346 135.711ZM47.3991 135.429L47.0976 126.795L52.6742 126.6L52.7214 127.953L48.5879 128.097L48.6624 130.23L52.0763 130.111L52.1236 131.464L48.7096 131.583L48.7949 134.026L52.9284 133.881L52.9757 135.235L47.3991 135.429ZM54.8406 135.169L54.539 126.535L56.0021 126.484L60.2182 132.43L60.0057 126.344L61.4688 126.293L61.7703 134.927L60.3072 134.979L56.091 129.03L56.3036 135.118L54.8406 135.169ZM64.6506 134.827L64.349 126.192L67.773 126.073C68.3553 126.052 68.8381 126.153 69.2214 126.374C69.6047 126.596 69.8936 126.885 70.0882 127.242C70.2827 127.598 70.3868 127.97 70.4003 128.356C70.417 128.835 70.3183 129.244 70.1043 129.582C69.8903 129.92 69.5911 130.154 69.2068 130.283L69.1924 129.985C69.7417 130.09 70.1644 130.333 70.4606 130.714C70.7567 131.095 70.9135 131.536 70.9311 132.038C70.9489 132.55 70.8668 133.001 70.6847 133.392C70.5025 133.783 70.2218 134.093 69.8426 134.322C69.4634 134.551 68.9899 134.675 68.4223 134.695L64.6506 134.827ZM66.0661 133.413L68.1948 133.338C68.4473 133.33 68.6712 133.271 68.8666 133.162C69.0619 133.054 69.2133 132.905 69.3207 132.715C69.4282 132.526 69.4774 132.303 69.4685 132.047C69.4604 131.815 69.4033 131.608 69.2973 131.427C69.1912 131.246 69.0407 131.105 68.8457 131.003C68.6507 130.901 68.4183 130.855 68.1484 130.864L65.9797 130.94L66.0661 133.413ZM65.9325 129.589L67.8734 129.521C68.0806 129.514 68.2653 129.468 68.4274 129.383C68.5895 129.298 68.7162 129.176 68.8074 129.017C68.8985 128.858 68.9401 128.663 68.932 128.432C68.9215 128.132 68.8161 127.886 68.6156 127.694C68.4151 127.502 68.1433 127.412 67.8002 127.424L65.8593 127.492L65.9325 129.589ZM71.7383 134.579L71.4367 125.945L72.8798 125.894L73.1814 134.529L71.7383 134.579ZM76.5127 136.744L76.4664 135.417L77.9455 135.365L77.9918 136.692L76.5127 136.744ZM74.5124 124.907L76.0854 122.961L77.2967 122.918L79.0016 124.75L77.6525 124.797L76.7197 123.759L75.8616 124.86L74.5124 124.907ZM74.3826 134.487L74.0811 125.852L79.6577 125.658L79.705 127.011L75.5715 127.155L75.6459 129.288L79.0599 129.169L79.1071 130.522L75.6932 130.641L75.7785 133.084L79.912 132.939L79.9592 134.292L74.3826 134.487ZM80.7987 134.263L80.4972 125.628L81.9603 125.577L86.1764 131.524L85.9639 125.437L87.427 125.386L87.7285 134.021L86.2654 134.072L82.0492 128.124L82.2618 134.212L80.7987 134.263Z" fill="#5A5C58"/>
<g clip-path="url(#clip0_102_70)">
<rect x="32.1201" y="154.974" width="203.994" height="7.9949" rx="3.99745" transform="rotate(-2 32.1201 154.974)" fill="#E2E3DD"/>
<rect x="32.1201" y="154.974" width="122.385" height="7.9949" transform="rotate(-2 32.1201 154.974)" fill="#3B644E"/>
</g>
</g>
<defs>
<filter id="filter0_d_102_70" x="0" y="0" width="268.194" height="194.893" filterUnits="userSpaceOnUse" color-interpolation-filters="sRGB">
<feFlood flood-opacity="0" result="BackgroundImageFix"/>
<feColorMatrix in="SourceAlpha" type="matrix" values="0 0 0 0 0 0 0 0 0 0 0 0 0 0 0 0 0 0 127 0" result="hardAlpha"/>
<feOffset dx="4" dy="4"/>
<feComposite in2="hardAlpha" operator="out"/>
<feColorMatrix type="matrix" values="0 0 0 0 0.176471 0 0 0 0 0.184314 0 0 0 0 0.172549 0 0 0 1 0"/>
<feBlend mode="normal" in2="BackgroundImageFix" result="effect1_dropShadow_102_70"/>
<feBlend mode="normal" in="SourceGraphic" in2="effect1_dropShadow_102_70" result="shape"/>
</filter>
<clipPath id="clip0_102_70">
<rect x="32.1201" y="154.974" width="203.994" height="7.9949" rx="3.99745" transform="rotate(-2 32.1201 154.974)" fill="white"/>
</clipPath>
</defs>
</svg>
