<svg width="265" height="191" viewBox="0 0 265 191" fill="none" xmlns="http://www.w3.org/2000/svg">
<g filter="url(#filter0_d_102_80)">
<rect x="3.17676" width="258" height="182" rx="26" transform="rotate(0.999999 3.17676 0)" fill="#E2E3DD" fill-opacity="0.5" shape-rendering="crispEdges"/>
<rect x="4.65035" y="1.52595" width="255" height="179" rx="24.5" transform="rotate(0.999999 4.65035 1.52595)" stroke="#2D2F2C" stroke-width="3" shape-rendering="crispEdges"/>
<path d="M59.1867 54.9116L56.9026 52.5464C58.0203 51.5408 58.9039 50.3435 59.5532 48.9546C60.2025 47.5657 60.541 46.0839 60.5684 44.5092C60.5959 42.9344 60.3092 41.4542 59.7083 40.0685C59.1074 38.6828 58.266 37.4679 57.184 36.4239L59.5506 34.0648C60.9272 35.414 62.0123 36.9957 62.8057 38.8098C63.5992 40.624 63.9783 42.5434 63.9429 44.5681C63.9076 46.5928 63.4618 48.4978 62.6055 50.2831C61.7492 52.0684 60.6096 53.6113 59.1867 54.9116ZM54.4712 50.0286L52.1134 47.5871C52.5708 47.17 52.9416 46.6951 53.226 46.1625C53.5103 45.6299 53.6581 45.0386 53.6695 44.3887C53.6808 43.7388 53.5537 43.1428 53.2881 42.6006C53.0226 42.0584 52.6685 41.5708 52.226 41.1381L54.6675 38.7803C55.4547 39.5192 56.0649 40.3737 56.4981 41.3439C56.9312 42.3141 57.1382 43.3491 57.119 44.449C57.0998 45.5488 56.8568 46.576 56.3901 47.5305C55.9233 48.485 55.2837 49.3177 54.4712 50.0286ZM42.8414 50.2007C41.1917 50.1719 39.7896 49.5598 38.6353 48.3645C37.481 47.1691 36.9182 45.7466 36.947 44.0969C36.9758 42.4471 37.5879 41.0451 38.7832 39.8908C39.9785 38.7364 41.4011 38.1737 43.0508 38.2025C44.7006 38.2313 46.1026 38.8433 47.2569 40.0387C48.4112 41.234 48.974 42.6565 48.9452 44.3063C48.9164 45.956 48.3043 47.3581 47.109 48.5124C45.9137 49.6667 44.4912 50.2295 42.8414 50.2007ZM30.6338 61.9894L30.7071 57.79C30.7215 56.9652 30.9475 56.194 31.3851 55.4765C31.8227 54.759 32.4197 54.2194 33.1761 53.8575C34.4623 53.2299 35.9091 52.7051 37.5167 52.283C39.1244 51.861 40.8905 51.6668 42.8152 51.7004C44.7399 51.734 46.4982 51.9898 48.0901 52.4676C49.682 52.9455 51.1097 53.5205 52.3732 54.1926C53.1165 54.5807 53.6943 55.1408 54.1066 55.8731C54.5189 56.6054 54.7178 57.384 54.7035 58.2089L54.6302 62.4083L30.6338 61.9894ZM33.6857 59.0422L51.683 59.3564L51.7039 58.1565C51.7087 57.8816 51.6443 57.6304 51.5108 57.4031C51.3772 57.1757 51.1991 56.9976 50.9763 56.8686C50.0843 56.403 48.936 55.9329 47.5316 55.4583C46.1272 54.9837 44.5376 54.731 42.7629 54.7C40.9881 54.669 39.3907 54.8661 37.9706 55.2914C36.5504 55.7167 35.3865 56.1465 34.4788 56.5807C34.2516 56.7017 34.0674 56.8735 33.926 57.0961C33.7845 57.3187 33.7114 57.5674 33.7066 57.8424L33.6857 59.0422ZM42.8938 47.2011C43.7186 47.2155 44.4299 46.9341 45.0276 46.357C45.6252 45.7798 45.9313 45.0788 45.9457 44.2539C45.9601 43.4291 45.6787 42.7178 45.1015 42.1201C44.5244 41.5225 43.8233 41.2164 42.9985 41.202C42.1736 41.1876 41.4623 41.469 40.8647 42.0462C40.267 42.6233 39.961 43.3243 39.9466 44.1492C39.9322 44.9741 40.2136 45.6854 40.7907 46.283C41.3679 46.8807 42.0689 47.1867 42.8938 47.2011Z" fill="#5A5C58"/>
<path d="M191.471 55.2958L191.518 52.6082L184.007 52.4771L184.06 49.4296L189.709 37.9824L193.452 38.0478L187.803 49.4949L191.571 49.5607L191.646 45.2414L194.958 45.2992L194.882 49.6185L196.418 49.6453L196.365 52.6928L194.829 52.666L194.782 55.3536L191.471 55.2958ZM204.326 55.8803C203.455 55.8651 202.64 55.6708 201.882 55.2975C201.125 54.9243 200.475 54.4128 199.935 53.7633C199.394 53.1138 199.011 52.363 198.786 51.5109L201.944 50.7259C202.041 51.1357 202.221 51.4909 202.483 51.7915C202.746 52.0921 203.054 52.3275 203.407 52.4977C203.76 52.6679 204.125 52.7563 204.501 52.7628C204.997 52.7715 205.453 52.6594 205.869 52.4267C206.285 52.1939 206.619 51.8757 206.87 51.472C207.121 51.0683 207.251 50.6185 207.259 50.1226C207.268 49.6267 207.154 49.1726 206.917 48.7604C206.68 48.3482 206.358 48.0185 205.95 47.7714C205.542 47.5242 205.091 47.3963 204.595 47.3877C203.987 47.3771 203.489 47.4704 203.102 47.6677C202.714 47.8649 202.423 48.0539 202.228 48.2345L199.483 47.3464L200.171 38.1651L209.602 38.3297L209.548 41.3772L201.917 41.244L203.088 40.1843L202.625 46.1051L202.085 45.4236C202.523 45.0792 203.019 44.8318 203.574 44.6814C204.128 44.5311 204.646 44.4601 205.126 44.4685C206.214 44.4875 207.167 44.7462 207.987 45.2445C208.806 45.7429 209.442 46.4181 209.896 47.2702C210.349 48.1222 210.566 49.0921 210.547 50.18C210.528 51.2678 210.227 52.2447 209.644 53.1107C209.06 53.9766 208.3 54.6594 207.363 55.1592C206.427 55.6589 205.414 55.8993 204.326 55.8803ZM215.971 55.7235L213.849 53.5261L229.231 38.6723L231.352 40.8937L215.971 55.7235ZM227.483 56.2845C226.691 56.2707 225.973 56.0641 225.327 55.6648C224.682 55.2654 224.169 54.7364 223.789 54.0777C223.408 53.4189 223.225 52.6896 223.239 51.8897C223.253 51.1059 223.465 50.3895 223.877 49.7405C224.288 49.0916 224.825 48.5769 225.488 48.1964C226.15 47.8159 226.866 47.6324 227.634 47.6458C228.426 47.6596 229.146 47.8662 229.795 48.2656C230.444 48.665 230.957 49.194 231.334 49.8527C231.71 50.5114 231.892 51.2407 231.878 52.0405C231.864 52.8404 231.657 53.5629 231.258 54.208C230.858 54.8532 230.327 55.364 229.665 55.7405C229.002 56.117 228.275 56.2983 227.483 56.2845ZM227.529 53.5249C227.81 53.5298 228.07 53.4623 228.309 53.3224C228.547 53.1826 228.74 52.9961 228.889 52.7631C229.037 52.5301 229.113 52.2734 229.118 51.993C229.123 51.7126 229.055 51.4532 228.916 51.2147C228.776 50.9762 228.589 50.7829 228.356 50.6349C228.123 50.4868 227.867 50.4103 227.586 50.4054C227.306 50.4005 227.046 50.468 226.808 50.6078C226.569 50.7477 226.376 50.9341 226.228 51.1671C226.08 51.4002 226.003 51.6569 225.999 51.9373C225.994 52.2177 226.061 52.4771 226.201 52.7156C226.341 52.954 226.527 53.1473 226.759 53.2954C226.991 53.4435 227.247 53.5199 227.529 53.5249ZM217.568 46.75C216.776 46.7362 216.055 46.5296 215.406 46.1302C214.757 45.7308 214.244 45.2017 213.868 44.5431C213.491 43.8844 213.31 43.1551 213.324 42.3552C213.338 41.5714 213.55 40.855 213.961 40.206C214.373 39.5571 214.91 39.0424 215.573 38.6619C216.235 38.2814 216.951 38.0979 217.719 38.1113C218.51 38.1251 219.229 38.3317 219.874 38.731C220.519 39.1303 221.032 39.6594 221.413 40.3181C221.793 40.9768 221.976 41.7062 221.963 42.506C221.949 43.3059 221.74 44.0284 221.337 44.6734C220.933 45.3185 220.402 45.8293 219.744 46.2059C219.085 46.5824 218.36 46.7638 217.568 46.75ZM217.614 43.9904C217.895 43.9953 218.155 43.9278 218.394 43.7879C218.632 43.6481 218.825 43.4616 218.973 43.2286C219.122 42.9956 219.198 42.7389 219.203 42.4585C219.208 42.1781 219.14 41.9187 219 41.6802C218.861 41.4417 218.674 41.2485 218.441 41.1004C218.208 40.9523 217.951 40.8758 217.671 40.8709C217.391 40.866 217.131 40.9335 216.893 41.0733C216.654 41.2132 216.461 41.3996 216.313 41.6326C216.165 41.8657 216.088 42.1224 216.083 42.4028C216.079 42.6832 216.146 42.9426 216.286 43.1811C216.426 43.4195 216.612 43.6128 216.844 43.7609C217.076 43.909 217.332 43.9855 217.614 43.9904Z" fill="#2D2F2C"/>
<path d="M29.4917 102.476L29.7233 89.2033L32.477 89.2513L32.2453 102.524L29.4917 102.476ZM41.1575 102.68L41.2284 98.6179C41.2323 98.3924 41.2359 98.1866 41.2391 98.0006C41.2424 97.8147 41.2453 97.6479 41.2479 97.5003C41.2548 97.1032 41.2105 96.7394 41.1148 96.4088C41.0192 96.0783 40.8408 95.8124 40.5797 95.611C40.3186 95.4096 39.9402 95.3046 39.4447 95.2959C39.014 95.2884 38.6397 95.3809 38.3219 95.5734C38.0041 95.7659 37.7576 96.037 37.5822 96.3868C37.4069 96.7366 37.3152 97.1448 37.307 97.6115L36.5466 97.033C36.561 96.2075 36.7536 95.4856 37.1245 94.8674C37.4953 94.2492 37.9904 93.7694 38.6096 93.4279C39.2289 93.0865 39.9141 92.9223 40.6652 92.9354C41.4498 92.9491 42.0938 93.1167 42.5971 93.4381C43.1003 93.7595 43.4715 94.2038 43.7107 94.7709C43.9498 95.3379 44.0628 95.9958 44.0498 96.7445C44.0445 97.048 44.0385 97.39 44.0319 97.7703C44.0252 98.1507 44.0185 98.537 44.0116 98.9294L43.9453 102.729L41.1575 102.68ZM34.4319 102.562L34.5987 93.006L37.3866 93.0546L37.2198 102.611L34.4319 102.562ZM50.5181 103.041C50.1521 103.035 49.7756 102.996 49.3886 102.925C49.0016 102.854 48.6441 102.722 48.3162 102.529C47.9883 102.336 47.7256 102.056 47.528 101.687C47.3304 101.318 47.2369 100.832 47.2474 100.23C47.2497 100.097 47.252 99.9616 47.2544 99.8248C47.2568 99.6881 47.2592 99.5501 47.2617 99.4109L47.3319 95.3886L45.12 95.35L45.1577 93.1903L45.7822 93.2012C46.1445 93.2075 46.4325 93.1969 46.646 93.1694C46.8595 93.142 47.0189 93.0679 47.1242 92.9473C47.2296 92.8268 47.3004 92.6354 47.3368 92.3731C47.3732 92.1109 47.3954 91.7482 47.4035 91.2851L47.4245 90.0829L50.2213 90.1318L50.1664 93.2777L52.9434 93.3262L52.9057 95.4859L50.1287 95.4374L50.0688 98.873C50.0669 98.9798 50.0651 99.0845 50.0633 99.1871C50.0615 99.2896 50.0597 99.3895 50.058 99.4867C50.0508 99.8994 50.0948 100.236 50.1898 100.497C50.2849 100.758 50.5286 100.892 50.9209 100.899C51.1201 100.902 51.3088 100.887 51.487 100.853C51.6652 100.819 51.7991 100.784 51.8885 100.748L51.8518 102.852C51.7273 102.9 51.5498 102.945 51.3192 102.987C51.0887 103.028 50.8216 103.047 50.5181 103.041ZM55.3703 98.9872L55.4025 97.1442L61.7375 97.2548L61.4595 97.7108C61.4602 97.6676 61.461 97.6224 61.4618 97.575C61.4627 97.5276 61.4634 97.4853 61.4641 97.4481C61.47 97.1049 61.3945 96.7745 61.2374 96.4567C61.0804 96.1389 60.8341 95.8769 60.4987 95.6706C60.1632 95.4643 59.7297 95.3565 59.1982 95.3473C58.6715 95.3381 58.2166 95.4418 57.8336 95.6583C57.4506 95.8748 57.1546 96.1916 56.9457 96.6086C56.7368 97.0256 56.6272 97.5305 56.6168 98.1232C56.6062 98.7351 56.6942 99.2611 56.8809 99.7012C57.0677 100.141 57.3522 100.481 57.7345 100.72C58.1167 100.959 58.5952 101.083 59.1699 101.093C59.5443 101.1 59.8676 101.072 60.1399 101.009C60.4123 100.947 60.6349 100.862 60.8078 100.755C60.9807 100.647 61.1123 100.529 61.2028 100.4C61.2933 100.27 61.348 100.142 61.367 100.015L64.1279 100.064C64.0836 100.468 63.9378 100.861 63.6905 101.242C63.4433 101.623 63.1034 101.964 62.6708 102.266C62.2383 102.567 61.7163 102.803 61.1048 102.973C60.4934 103.143 59.7995 103.221 59.0232 103.208C57.9662 103.189 57.0484 102.962 56.2699 102.527C55.4913 102.091 54.892 101.495 54.472 100.738C54.0519 99.9816 53.8504 99.1167 53.8674 98.1436C53.8847 97.1514 54.1206 96.286 54.5752 95.5474C55.0298 94.8088 55.6557 94.2382 56.4531 93.8357C57.2504 93.4331 58.1662 93.2409 59.2005 93.2589C60.2635 93.2775 61.1786 93.5044 61.9457 93.9397C62.7128 94.3749 63.2998 94.9751 63.7065 95.7401C64.1132 96.5051 64.3077 97.3939 64.29 98.4066C64.2875 98.553 64.282 98.6951 64.2736 98.833C64.2652 98.9708 64.2544 99.0739 64.2412 99.142L55.3703 98.9872ZM65.9451 103.113L66.1119 93.556L68.9052 93.6048L68.8477 96.9001L68.2799 96.5265C68.3561 96.0802 68.4839 95.6689 68.6633 95.2928C68.8427 94.9167 69.0731 94.5916 69.3545 94.3174C69.6359 94.0433 69.9691 93.8325 70.3539 93.685C70.7387 93.5375 71.1747 93.468 71.6618 93.4765C72.0494 93.4832 72.3515 93.5164 72.5683 93.576C72.7851 93.6356 72.9196 93.682 72.9719 93.7154L72.4729 96.2091C72.4171 96.1733 72.2974 96.1217 72.1137 96.0543C71.9301 95.9869 71.6919 95.9506 71.3991 95.9455C70.9192 95.9371 70.5152 96.0102 70.1873 96.1647C69.8593 96.3192 69.5958 96.5288 69.3968 96.7936C69.1977 97.0584 69.0528 97.3523 68.9619 97.6753C68.8711 97.9984 68.8228 98.3237 68.8171 98.6512L68.7384 103.161L65.9451 103.113ZM83.159 93.8536L80.0964 103.36L76.3349 103.294L73.5394 93.6857L76.419 93.7359L78.4518 102.488L78.0144 102.481L80.274 93.8032L83.159 93.8536ZM84.2195 103.432L84.3863 93.875L87.1454 93.9232L86.9786 103.48L84.2195 103.432ZM85.7939 92.346C85.3607 92.3384 84.9851 92.2172 84.6669 91.9824C84.3488 91.7476 84.1933 91.4221 84.2006 91.0057C84.2079 90.5882 84.3746 90.2685 84.7007 90.0468C85.0268 89.825 85.4065 89.718 85.8396 89.7255C86.2728 89.7331 86.6478 89.8533 86.9648 90.0863C87.2818 90.3193 87.4366 90.6445 87.4294 91.0621C87.422 91.482 87.2559 91.8029 86.931 92.0247C86.606 92.2464 86.227 92.3535 85.7939 92.346ZM90.186 99.5949L90.2182 97.752L96.5532 97.8625L96.2752 98.3185C96.2759 98.2754 96.2767 98.2301 96.2775 98.1827C96.2784 98.1353 96.2791 98.093 96.2798 98.0558C96.2858 97.7127 96.2102 97.3822 96.0531 97.0644C95.8961 96.7466 95.6498 96.4846 95.3144 96.2783C94.9789 96.072 94.5454 95.9643 94.0139 95.955C93.4872 95.9458 93.0323 96.0495 92.6493 96.266C92.2663 96.4826 91.9703 96.7993 91.7614 97.2163C91.5525 97.6334 91.4429 98.1382 91.4325 98.7309C91.4219 99.3428 91.5099 99.8688 91.6966 100.309C91.8834 100.749 92.1679 101.089 92.5502 101.327C92.9325 101.566 93.4109 101.691 93.9856 101.701C94.36 101.707 94.6833 101.679 94.9556 101.617C95.228 101.555 95.4506 101.47 95.6235 101.362C95.7964 101.255 95.928 101.137 96.0185 101.007C96.109 100.878 96.1637 100.75 96.1827 100.623L98.9436 100.671C98.8993 101.076 98.7535 101.469 98.5063 101.85C98.259 102.231 97.9191 102.572 97.4865 102.874C97.054 103.175 96.532 103.411 95.9205 103.581C95.3091 103.751 94.6152 103.829 93.8389 103.815C92.7819 103.797 91.8641 103.57 91.0856 103.135C90.307 102.699 89.7078 102.103 89.2877 101.346C88.8676 100.589 88.6661 99.7244 88.6831 98.7513C88.7004 97.7591 88.9363 96.8937 89.3909 96.1551C89.8455 95.4165 90.4714 94.8459 91.2688 94.4434C92.0661 94.0409 92.9819 93.8486 94.0162 93.8667C95.0792 93.8852 95.9943 94.1121 96.7614 94.5474C97.5286 94.9826 98.1155 95.5828 98.5222 96.3478C98.9289 97.1128 99.1234 98.0016 99.1057 99.0143C99.1032 99.1607 99.0977 99.3028 99.0893 99.4407C99.0809 99.5785 99.0701 99.6816 99.0569 99.7497L90.186 99.5949ZM108.276 103.851L106.446 94.26L108.479 94.2955L110.326 103.099L109.874 103.102L111.274 94.3443L114.158 94.3947L112.081 103.918L108.276 103.851ZM101.632 103.735L99.8874 94.1456L102.771 94.1959L103.866 102.997L103.42 102.978L105.557 94.2445L107.59 94.28L105.451 103.802L101.632 103.735ZM115.211 103.972L115.378 94.416L118.137 94.4641L117.97 104.021L115.211 103.972ZM116.785 92.8869C116.352 92.8794 115.976 92.7582 115.658 92.5234C115.34 92.2886 115.185 91.963 115.192 91.5467C115.199 91.1291 115.366 90.8095 115.692 90.5877C116.018 90.366 116.398 90.2589 116.831 90.2665C117.264 90.274 117.639 90.3943 117.956 90.6273C118.273 90.8602 118.428 91.1855 118.421 91.603C118.413 92.023 118.247 92.3438 117.922 92.5656C117.597 92.7874 117.218 92.8945 116.785 92.8869ZM126.761 104.174L126.832 100.112C126.836 99.8866 126.84 99.6808 126.843 99.4949C126.846 99.3089 126.849 99.1421 126.852 98.9945C126.859 98.5974 126.814 98.2336 126.719 97.9031C126.623 97.5725 126.445 97.3066 126.184 97.1052C125.923 96.9038 125.544 96.7988 125.049 96.7902C124.618 96.7826 124.244 96.8751 123.926 97.0676C123.608 97.2601 123.362 97.5312 123.186 97.881C123.011 98.2308 122.919 98.639 122.911 99.1058L122.151 98.5272C122.165 97.7017 122.358 96.9799 122.728 96.3616C123.099 95.7434 123.594 95.2636 124.214 94.9221C124.833 94.5807 125.518 94.4165 126.269 94.4296C127.054 94.4433 127.698 94.6109 128.201 94.9323C128.704 95.2538 129.076 95.698 129.315 96.2651C129.554 96.8321 129.667 97.49 129.654 98.2387C129.648 98.5423 129.642 98.8842 129.636 99.2646C129.629 99.6449 129.622 100.031 129.616 100.424L129.549 104.223L126.761 104.174ZM120.036 104.057L120.203 94.5002L122.991 94.5488L122.824 104.105L120.036 104.057ZM138.256 103.244C138.843 103.314 139.356 103.435 139.795 103.606C140.233 103.777 140.573 104.025 140.815 104.35C141.057 104.675 141.173 105.107 141.163 105.644C141.153 106.259 140.94 106.779 140.525 107.207C140.11 107.634 139.511 107.955 138.729 108.171C137.947 108.386 137.001 108.484 135.891 108.465C134.255 108.437 132.992 108.18 132.102 107.694C131.212 107.209 130.774 106.571 130.788 105.78C130.791 105.562 130.821 105.364 130.875 105.187C130.93 105.011 130.998 104.861 131.079 104.737L133.605 105.149C133.575 105.189 133.542 105.253 133.508 105.341C133.474 105.428 133.456 105.539 133.454 105.672C133.448 105.99 133.683 106.23 134.158 106.392C134.633 106.553 135.247 106.641 136 106.654C136.538 106.663 136.997 106.634 137.377 106.566C137.758 106.497 138.05 106.394 138.254 106.256C138.458 106.118 138.562 105.956 138.565 105.77C138.57 105.499 138.443 105.318 138.184 105.228C137.925 105.137 137.624 105.073 137.282 105.035L133.669 104.604C133.003 104.523 132.454 104.321 132.023 103.997C131.592 103.673 131.381 103.239 131.391 102.696C131.396 102.361 131.495 102.056 131.686 101.782C131.876 101.507 132.093 101.28 132.336 101.1C132.578 100.92 132.78 100.808 132.942 100.764L134.351 101.511C134.237 101.526 134.103 101.594 133.951 101.717C133.798 101.84 133.72 101.986 133.717 102.157C133.714 102.325 133.796 102.469 133.962 102.59C134.129 102.71 134.441 102.797 134.898 102.851L138.256 103.244ZM139.348 94.8344L141.808 94.8773L140.745 98.5349C140.546 99.2263 140.258 99.8406 139.882 100.378C139.505 100.915 139.01 101.334 138.398 101.634C137.785 101.935 137.015 102.078 136.088 102.061C135.117 102.044 134.279 101.88 133.574 101.568C132.869 101.257 132.329 100.822 131.953 100.264C131.578 99.7056 131.397 99.054 131.41 98.3089C131.423 97.5554 131.631 96.8978 132.034 96.3359C132.436 95.7741 132.982 95.3404 133.67 95.035C134.358 94.7296 135.133 94.5844 135.995 94.5994C136.65 94.6108 137.247 94.7272 137.786 94.9484C138.325 95.1697 138.758 95.4571 139.084 95.8109C139.409 96.1646 139.576 96.551 139.583 96.97L139.069 97.0942L139.348 94.8344ZM136.109 100.013C136.507 100.02 136.857 99.9615 137.157 99.8377C137.458 99.714 137.694 99.53 137.865 99.2857C138.037 99.0415 138.126 98.743 138.132 98.3903C138.138 98.0411 138.06 97.7418 137.897 97.4924C137.734 97.2429 137.504 97.0501 137.208 96.9142C136.912 96.7782 136.567 96.7067 136.171 96.6998C135.788 96.6931 135.444 96.7538 135.139 96.8817C134.835 97.0096 134.593 97.1968 134.415 97.4433C134.237 97.6898 134.144 97.9894 134.138 98.3422C134.132 98.6901 134.212 98.9876 134.377 99.2347C134.541 99.4818 134.773 99.6716 135.07 99.804C135.368 99.9364 135.714 100.006 136.109 100.013Z" fill="#2D2F2C"/>
<path d="M28.7722 128.473L28.923 119.834L32.4924 119.896C32.5764 119.898 32.6848 119.902 32.8177 119.911C32.9506 119.919 33.0725 119.934 33.1835 119.956C33.6814 120.042 34.0911 120.216 34.4125 120.478C34.734 120.74 34.9702 121.067 35.121 121.458C35.2719 121.85 35.3432 122.283 35.3349 122.758C35.3266 123.233 35.2394 123.664 35.0733 124.05C34.9072 124.436 34.659 124.754 34.3285 125.004C33.9981 125.255 33.5843 125.415 33.087 125.483C32.9754 125.497 32.8522 125.507 32.7174 125.513C32.5826 125.519 32.4749 125.521 32.3943 125.519L30.2686 125.482L30.2159 128.498L28.7722 128.473ZM30.2922 124.128L32.3579 124.164C32.4392 124.166 32.5294 124.163 32.6286 124.157C32.7277 124.151 32.8204 124.137 32.9068 124.116C33.1465 124.06 33.3365 123.957 33.4768 123.807C33.6171 123.658 33.7178 123.488 33.7788 123.296C33.8398 123.104 33.8719 122.917 33.8751 122.733C33.8783 122.549 33.8528 122.36 33.7985 122.166C33.7442 121.973 33.6496 121.799 33.5146 121.645C33.3796 121.491 33.1933 121.381 32.9557 121.316C32.8701 121.292 32.7779 121.274 32.679 121.265C32.5802 121.256 32.4901 121.25 32.4088 121.249L30.3431 121.213L30.2922 124.128ZM35.8331 128.596L35.9839 119.957L37.4276 119.982L37.3642 123.62L41.4556 123.691L41.519 120.054L42.9628 120.079L42.812 128.718L41.3683 128.692L41.4319 125.045L37.3405 124.974L37.2769 128.621L35.8331 128.596ZM48.3232 119.242L47.2254 119.223L48.19 117.02L49.2878 117.039L48.3232 119.242ZM47.5422 128.98C46.679 128.965 45.942 128.764 45.3314 128.376C44.7207 127.987 44.2565 127.453 43.9387 126.771C43.6209 126.089 43.4697 125.302 43.4853 124.409C43.5009 123.515 43.6794 122.734 44.0208 122.064C44.3623 121.394 44.8449 120.875 45.4687 120.509C46.0925 120.142 46.836 119.966 47.6992 119.982C48.5624 119.997 49.2994 120.198 49.91 120.586C50.5207 120.974 50.9849 121.509 51.3027 122.191C51.6205 122.872 51.7717 123.66 51.7561 124.553C51.7405 125.446 51.562 126.228 51.2206 126.898C50.8792 127.568 50.3965 128.087 49.7727 128.453C49.1489 128.82 48.4054 128.995 47.5422 128.98ZM47.566 127.616C48.1458 127.633 48.6308 127.515 49.0209 127.261C49.4111 127.008 49.7068 126.646 49.908 126.176C50.1092 125.706 50.2153 125.156 50.2263 124.526C50.2373 123.896 50.1504 123.346 49.9656 122.876C49.7808 122.406 49.4978 122.037 49.1167 121.771C48.7357 121.504 48.2552 121.362 47.6754 121.345C47.0956 121.329 46.611 121.447 46.2215 121.7C45.832 121.953 45.5367 122.315 45.3354 122.785C45.1342 123.255 45.0274 123.805 45.0151 124.435C45.0028 125.065 45.089 125.615 45.2738 126.085C45.4587 126.555 45.7419 126.924 46.1237 127.191C46.5054 127.458 46.9862 127.6 47.566 127.616ZM52.2826 128.883L52.4334 120.244L53.8971 120.27L57.7963 126.429L57.9026 120.34L59.3663 120.365L59.2155 129.004L57.7518 128.978L53.8527 122.817L53.7464 128.908L52.2826 128.883ZM63.8597 129.265C63.2991 129.255 62.7753 129.147 62.2881 128.94C61.801 128.733 61.3763 128.435 61.014 128.045C60.6518 127.655 60.3712 127.18 60.1723 126.618C59.9734 126.056 59.8803 125.415 59.8928 124.695C59.9093 123.752 60.0999 122.948 60.4645 122.284C60.8292 121.619 61.3199 121.114 61.9367 120.768C62.5535 120.421 63.2468 120.255 64.0167 120.268C65.0806 120.287 65.9188 120.549 66.5314 121.054C67.144 121.559 67.5519 122.258 67.755 123.15L66.2792 123.358C66.1234 122.846 65.8617 122.433 65.4941 122.121C65.1265 121.81 64.6561 121.647 64.0829 121.634C63.5031 121.617 63.0185 121.735 62.629 121.988C62.2395 122.241 61.9442 122.602 61.7429 123.072C61.5417 123.542 61.4349 124.092 61.4226 124.722C61.4103 125.352 61.4965 125.902 61.6813 126.372C61.8662 126.842 62.1494 127.21 62.5312 127.477C62.9129 127.744 63.3937 127.886 63.9735 127.903C64.4066 127.917 64.7884 127.846 65.1189 127.689C65.4494 127.533 65.7216 127.291 65.9357 126.964C66.1498 126.637 66.2978 126.226 66.3797 125.732L64.856 125.706L64.8757 124.572L67.9353 124.625C67.9429 124.688 67.9474 124.781 67.9489 124.906C67.9504 125.03 67.9509 125.106 67.9504 125.132C67.9362 125.947 67.7626 126.669 67.4296 127.297C67.0966 127.924 66.6271 128.413 66.0213 128.763C65.4154 129.112 64.6949 129.28 63.8597 129.265ZM72.2236 129.231L69.6508 120.545L71.1405 120.571L73.2919 127.847L75.7278 120.651L77.2176 120.677L74.3432 129.268L72.2236 129.231ZM78.4497 119.768L80.1224 117.907L81.3342 117.928L82.941 119.847L81.5912 119.823L80.714 118.738L79.7994 119.792L78.4497 119.768ZM83.7898 118.601L82.692 118.582L83.6566 116.379L84.7544 116.398L83.7898 118.601ZM76.7649 129.31L79.6393 120.719L81.7589 120.756L84.3317 129.442L82.842 129.416L80.5076 121.622L80.8276 121.628L78.2546 129.336L76.7649 129.31ZM78.3173 127.463L78.3409 126.113L82.8762 126.192L82.8526 127.542L78.3173 127.463ZM84.8097 129.451L84.9604 120.812L86.4242 120.838L90.3233 126.997L90.4296 120.907L91.8934 120.933L91.7426 129.572L90.2788 129.546L86.3797 123.385L86.2734 129.476L84.8097 129.451Z" fill="#5A5C58"/>
<g clip-path="url(#clip0_102_80)">
<rect x="27.6064" y="147.45" width="204.001" height="8.00123" rx="4.00061" transform="rotate(0.999999 27.6064 147.45)" fill="#E2E3DD"/>
<rect x="27.6064" y="147.45" width="91.7939" height="8.00123" transform="rotate(0.999999 27.6064 147.45)" fill="#5A5C58"/>
</g>
</g>
<defs>
<filter id="filter0_d_102_80" x="0" y="0" width="265.138" height="190.475" filterUnits="userSpaceOnUse" color-interpolation-filters="sRGB">
<feFlood flood-opacity="0" result="BackgroundImageFix"/>
<feColorMatrix in="SourceAlpha" type="matrix" values="0 0 0 0 0 0 0 0 0 0 0 0 0 0 0 0 0 0 127 0" result="hardAlpha"/>
<feOffset dx="4" dy="4"/>
<feComposite in2="hardAlpha" operator="out"/>
<feColorMatrix type="matrix" values="0 0 0 0 0.176471 0 0 0 0 0.184314 0 0 0 0 0.172549 0 0 0 1 0"/>
<feBlend mode="normal" in2="BackgroundImageFix" result="effect1_dropShadow_102_80"/>
<feBlend mode="normal" in="SourceGraphic" in2="effect1_dropShadow_102_80" result="shape"/>
</filter>
<clipPath id="clip0_102_80">
<rect x="27.6064" y="147.45" width="204.001" height="8.00123" rx="4.00061" transform="rotate(0.999999 27.6064 147.45)" fill="white"/>
</clipPath>
</defs>
</svg>
