<svg width="266" height="193" viewBox="0 0 266 193" fill="none" xmlns="http://www.w3.org/2000/svg">
<g filter="url(#filter0_d_102_60)">
<rect x="4.76465" width="258" height="182" rx="26" transform="rotate(1.5 4.76465 0)" fill="#F8E288" fill-opacity="0.3" shape-rendering="crispEdges"/>
<rect x="6.22487" y="1.53875" width="255" height="179" rx="24.5" transform="rotate(1.5 6.22487 1.53875)" stroke="#2D2F2C" stroke-width="3" shape-rendering="crispEdges"/>
<path d="M43.3874 62.5366L37.6894 62.3873C36.8646 62.3657 36.1663 62.0536 35.5944 61.4509C35.0225 60.8483 34.7473 60.1346 34.7689 59.3098L34.9181 53.6118C36.1177 53.6432 37.1773 53.2896 38.097 52.5509C39.0166 51.8122 39.4918 50.8556 39.5226 49.681C39.5534 48.5064 39.1289 47.5262 38.2491 46.7404C37.3694 45.9546 36.3297 45.546 35.1302 45.5146L35.2794 39.8165C35.301 38.9918 35.6131 38.2935 36.2158 37.7216C36.8184 37.1497 37.5321 36.8745 38.3569 36.8961L44.3548 37.0532C44.3823 36.0035 44.7679 35.1258 45.5116 34.42C46.2554 33.7143 47.152 33.3751 48.2017 33.4026C49.2513 33.4301 50.129 33.8157 50.8348 34.5594C51.5406 35.3032 51.8797 36.1998 51.8522 37.2495L57.8502 37.4065C58.6749 37.4281 59.3732 37.7403 59.9451 38.343C60.517 38.9456 60.7922 39.6593 60.7706 40.484L60.6136 46.482C61.6632 46.5095 62.5409 46.8951 63.2467 47.6388C63.9524 48.3825 64.2916 49.2792 64.2641 50.3289C64.2366 51.3785 63.851 52.2562 63.1073 52.962C62.3635 53.6678 61.4669 54.0069 60.4172 53.9794L60.2602 59.9774C60.2386 60.8021 59.9264 61.5004 59.3238 62.0723C58.7211 62.6442 58.0074 62.9194 57.1827 62.8978L51.4846 62.7486C51.5173 61.499 51.1515 60.4266 50.3872 59.5313C49.6229 58.6359 48.6784 58.1736 47.5538 58.1441C46.4292 58.1147 45.4618 58.527 44.6517 59.3811C43.8415 60.2352 43.4201 61.287 43.3874 62.5366ZM37.7679 59.3884L40.9543 59.4718C41.5973 57.8381 42.5899 56.7012 43.9321 56.0611C45.2743 55.421 46.5077 55.1157 47.6323 55.1451C48.7569 55.1746 49.9727 55.544 51.2796 56.2535C52.5864 56.9629 53.5182 58.1502 54.0748 59.8154L57.2612 59.8988L57.4968 50.9019L60.4958 50.9804C60.6957 50.9857 60.8726 50.9153 61.0265 50.7693C61.1803 50.6232 61.2599 50.4503 61.2651 50.2503C61.2704 50.0504 61.2 49.8735 61.054 49.7196C60.9079 49.5657 60.735 49.4862 60.535 49.481L57.5361 49.4024L57.7716 40.4055L48.7747 40.1699L48.8533 37.1709C48.8585 36.971 48.7881 36.7941 48.6421 36.6402C48.4961 36.4864 48.3231 36.4068 48.1232 36.4016C47.9232 36.3963 47.7463 36.4667 47.5924 36.6128C47.4386 36.7588 47.359 36.9318 47.3538 37.1317L47.2752 40.1307L38.2783 39.8951L38.1919 43.1939C39.5284 43.7291 40.5936 44.5948 41.3876 45.791C42.1815 46.9872 42.5595 48.31 42.5216 49.7595C42.4843 51.184 42.0379 52.4728 41.1824 53.6258C40.3269 54.7788 39.2175 55.6 37.8543 56.0895L37.7679 59.3884Z" fill="#6A5B0C"/>
<path d="M186.064 56.7688L192.241 42.7177L184.852 42.5242L184.932 39.4532L195.825 39.7385L195.744 42.8094L189.59 56.8611L186.064 56.7688ZM204.648 57.6155C203.368 57.582 202.256 57.2848 201.31 56.7239C200.364 56.1629 199.636 55.3956 199.125 54.4219C198.615 53.4482 198.376 52.3216 198.41 51.042L198.545 45.8598C198.579 44.5802 198.876 43.4676 199.437 42.522C199.998 41.5763 200.765 40.8482 201.739 40.3375C202.713 39.8268 203.839 39.5882 205.119 39.6217C206.398 39.6552 207.511 39.9524 208.457 40.5134C209.402 41.0743 210.13 41.8417 210.641 42.8154C211.152 43.7891 211.39 44.9157 211.357 46.1953L211.221 51.3775C211.188 52.657 210.891 53.7696 210.33 54.7153C209.769 55.6609 209.001 56.3891 208.028 56.8998C207.054 57.4105 205.927 57.649 204.648 57.6155ZM204.729 54.5206C205.305 54.5357 205.828 54.4133 206.299 54.1536C206.77 53.8938 207.147 53.5356 207.431 53.0789C207.715 52.6221 207.865 52.1059 207.88 51.5301L208.029 45.844C208.044 45.2682 207.922 44.7448 207.662 44.2739C207.402 43.8029 207.044 43.4254 206.587 43.1414C206.131 42.8573 205.614 42.7077 205.038 42.6927C204.463 42.6776 203.939 42.7999 203.468 43.0597C202.997 43.3194 202.62 43.6777 202.336 44.1344C202.052 44.5911 201.902 45.1074 201.887 45.6832L201.738 51.3692C201.723 51.945 201.845 52.4684 202.105 52.9394C202.365 53.4103 202.723 53.7879 203.18 54.0719C203.637 54.356 204.153 54.5055 204.729 54.5206ZM217.061 57.5805L214.958 55.3647L230.469 40.6456L232.571 42.8854L217.061 57.5805ZM228.567 58.2419C227.776 58.2212 227.059 58.0083 226.417 57.6034C225.776 57.1985 225.268 56.665 224.893 56.0029C224.518 55.3409 224.341 54.61 224.362 53.8103C224.383 53.0266 224.601 52.312 225.018 51.6667C225.435 51.0214 225.977 50.5114 226.643 50.1367C227.309 49.7621 228.026 49.5848 228.794 49.6049C229.585 49.6256 230.304 49.8385 230.95 50.2435C231.595 50.6486 232.104 51.182 232.474 51.844C232.845 52.5059 233.02 53.2367 232.999 54.0365C232.978 54.8362 232.765 55.5569 232.36 56.1985C231.955 56.8401 231.42 57.3463 230.754 57.717C230.088 58.0877 229.359 58.2626 228.567 58.2419ZM228.638 55.4828C228.919 55.4902 229.179 55.425 229.419 55.2872C229.659 55.1494 229.854 54.9647 230.004 54.733C230.154 54.5012 230.233 54.2452 230.24 53.9649C230.247 53.6845 230.182 53.4245 230.044 53.1848C229.907 52.9451 229.722 52.7502 229.49 52.6001C229.258 52.45 229.002 52.3713 228.722 52.3639C228.442 52.3566 228.182 52.4218 227.942 52.5596C227.702 52.6974 227.507 52.8821 227.357 53.1138C227.207 53.3455 227.128 53.6016 227.121 53.8819C227.114 54.1622 227.179 54.4222 227.317 54.6619C227.455 54.9016 227.639 55.0965 227.869 55.2466C228.1 55.3967 228.356 55.4754 228.638 55.4828ZM218.736 48.6212C217.944 48.6005 217.226 48.3876 216.58 47.9826C215.934 47.5776 215.426 47.0441 215.055 46.3821C214.685 45.7202 214.51 44.9894 214.531 44.1896C214.551 43.4059 214.77 42.6914 215.187 42.0461C215.604 41.4008 216.145 40.8908 216.811 40.5161C217.478 40.1414 218.194 39.9641 218.962 39.9842C219.754 40.0049 220.471 40.2178 221.112 40.6227C221.754 41.0276 222.262 41.5611 222.637 42.2232C223.012 42.8852 223.189 43.6161 223.168 44.4158C223.147 45.2155 222.932 45.9362 222.523 46.5777C222.114 47.2192 221.578 47.7253 220.916 48.0961C220.255 48.4669 219.528 48.642 218.736 48.6212ZM218.806 45.8621C219.087 45.8695 219.348 45.8043 219.588 45.6665C219.827 45.5288 220.022 45.344 220.172 45.1123C220.322 44.8806 220.401 44.6246 220.409 44.3442C220.416 44.0639 220.351 43.8039 220.213 43.5642C220.075 43.3245 219.89 43.1296 219.659 42.9795C219.427 42.8294 219.171 42.7506 218.891 42.7433C218.61 42.7359 218.35 42.8012 218.111 42.9389C217.871 43.0767 217.676 43.2614 217.526 43.4932C217.376 43.7249 217.297 43.9809 217.29 44.2612C217.282 44.5416 217.347 44.8016 217.485 45.0413C217.623 45.281 217.807 45.4759 218.038 45.626C218.269 45.776 218.525 45.8548 218.806 45.8621Z" fill="#2D2F2C"/>
<path d="M34.6656 103.032C33.7083 103.007 32.8696 102.833 32.1494 102.508C31.4293 102.184 30.8718 101.712 30.4768 101.091C30.0819 100.471 29.8963 99.709 29.92 98.8045C29.9225 98.7097 29.9248 98.6221 29.9269 98.5418C29.929 98.4614 29.9313 98.3738 29.9338 98.2791L32.7247 98.3521C32.7225 98.4373 32.7204 98.5153 32.7186 98.5861C32.7167 98.6568 32.7146 98.736 32.7123 98.8236C32.6961 99.4425 32.8579 99.9221 33.1977 100.262C33.5375 100.603 34.0511 100.782 34.7385 100.8C35.427 100.818 35.9604 100.721 36.3387 100.509C36.7169 100.298 36.9126 99.9425 36.9257 99.4435C36.9351 99.0848 36.8038 98.7675 36.532 98.4915C36.2601 98.2155 35.8873 97.9644 35.4137 97.7383C34.94 97.5123 34.4022 97.2977 33.8001 97.0947C33.1362 96.8672 32.5247 96.5757 31.9657 96.2202C31.4066 95.8646 30.9612 95.4187 30.6295 94.8824C30.2978 94.3462 30.1421 93.6912 30.1624 92.9174C30.1829 92.1365 30.4072 91.4764 30.8355 90.9373C31.2637 90.3981 31.8389 89.9927 32.5608 89.7211C33.2828 89.4495 34.093 89.3255 34.9915 89.349C35.9308 89.3736 36.758 89.5417 37.4731 89.8533C38.1882 90.165 38.7445 90.6153 39.142 91.2043C39.5395 91.7933 39.727 92.5185 39.7044 93.3798C39.7018 93.4793 39.6995 93.5693 39.6974 93.6497C39.6953 93.73 39.6929 93.82 39.6903 93.9196L36.8994 93.8465C36.901 93.7829 36.9028 93.7142 36.9048 93.6405C36.9067 93.5667 36.9085 93.498 36.9102 93.4344C36.9255 92.8503 36.7767 92.3992 36.4639 92.0813C36.1512 91.7634 35.6535 91.5956 34.971 91.5777C34.3064 91.5603 33.7908 91.6656 33.4241 91.8937C33.0574 92.1218 32.8675 92.4847 32.8545 92.9825C32.845 93.346 32.9671 93.6574 33.2208 93.9167C33.4745 94.176 33.8264 94.4094 34.2765 94.6169C34.7266 94.8243 35.2387 95.0364 35.8128 95.2531C36.6022 95.5463 37.2877 95.8676 37.8691 96.2172C38.4506 96.5667 38.897 96.9958 39.2084 97.5046C39.5198 98.0133 39.6653 98.6545 39.6451 99.4283C39.6243 100.224 39.4014 100.894 38.9766 101.439C38.5518 101.984 37.9688 102.393 37.2276 102.664C36.4865 102.935 35.6325 103.058 34.6656 103.032ZM42.0681 107.15C41.767 107.142 41.4989 107.123 41.2638 107.094C41.0287 107.064 40.8821 107.036 40.8239 107.011L40.8792 104.902C40.9562 104.94 41.0916 104.972 41.2854 104.997C41.4792 105.023 41.6859 105.038 41.9054 105.044C42.2029 105.052 42.4707 105 42.7089 104.889C42.9471 104.777 43.1545 104.618 43.331 104.411C43.5074 104.203 43.6474 103.957 43.7509 103.672L43.9273 103.192L40.8881 93.4215L43.796 93.4977L45.6636 101.39L45.3397 101.382L47.5476 93.5959L50.4123 93.6709L46.8712 103.613C46.6031 104.365 46.2819 105.009 45.9077 105.547C45.5335 106.084 45.0435 106.492 44.4378 106.771C43.8321 107.049 43.0422 107.175 42.0681 107.15ZM58.2232 103.437L58.3296 99.3756C58.3355 99.1501 58.3409 98.9443 58.3457 98.7584C58.3506 98.5725 58.355 98.4057 58.3588 98.2582C58.3692 97.8611 58.3281 97.4969 58.2353 97.1656C58.1425 96.8342 57.9665 96.5667 57.7071 96.3631C57.4478 96.1594 57.0704 96.0511 56.575 96.0381C56.1443 96.0269 55.7693 96.1161 55.4498 96.3058C55.1303 96.4955 54.8814 96.7644 54.703 97.1127C54.5247 97.4609 54.4294 97.8684 54.4172 98.335L53.6618 97.7498C53.6834 96.9245 53.8824 96.2044 54.2586 95.5894C54.6348 94.9744 55.134 94.4989 55.7562 94.1629C56.3784 93.8269 57.065 93.6687 57.816 93.6884C58.6005 93.7089 59.243 93.8821 59.7434 94.2079C60.2439 94.5337 60.6112 94.9812 60.8454 95.5503C61.0795 96.1194 61.1868 96.7783 61.1672 97.5268C61.1593 97.8303 61.1503 98.1722 61.1404 98.5525C61.1304 98.9327 61.1203 99.319 61.11 99.7113L61.0106 103.51L58.2232 103.437ZM51.4989 103.261L51.7491 93.706L54.5365 93.7789L54.2863 103.334L51.4989 103.261ZM67.5803 103.88C67.2144 103.87 66.8383 103.828 66.4519 103.754C66.0655 103.68 65.7092 103.545 65.383 103.349C65.0568 103.153 64.7965 102.87 64.6022 102.499C64.4078 102.128 64.3185 101.642 64.3343 101.04C64.3378 100.907 64.3413 100.772 64.3449 100.635C64.3485 100.498 64.3521 100.36 64.3557 100.221L64.461 96.1996L62.2496 96.1417L62.3061 93.9824L62.9305 93.9987C63.2927 94.0082 63.5808 94.0002 63.7945 93.9746C64.0083 93.9489 64.1683 93.8763 64.2747 93.7566C64.3811 93.637 64.4536 93.4462 64.4923 93.1843C64.5309 92.9224 64.5563 92.56 64.5685 92.0969L64.5999 90.895L67.3962 90.9682L67.3139 94.1135L70.0903 94.1862L70.0338 96.3455L67.2573 96.2728L67.1674 99.7078C67.1646 99.8146 67.1619 99.9192 67.1592 100.022C67.1565 100.124 67.1539 100.224 67.1513 100.321C67.1405 100.734 67.1815 101.071 67.2743 101.333C67.3671 101.595 67.6096 101.731 68.0018 101.741C68.201 101.746 68.3898 101.732 68.5683 101.7C68.7468 101.667 68.881 101.634 68.9707 101.599L68.9156 103.702C68.7907 103.749 68.6128 103.793 68.3819 103.832C68.151 103.872 67.8838 103.888 67.5803 103.88ZM78.254 103.961L78.3429 100.564C78.3462 100.439 78.3506 100.272 78.356 100.063C78.3615 99.8536 78.3671 99.6413 78.3727 99.426C78.3784 99.2106 78.3829 99.037 78.3864 98.905C78.4055 98.1745 78.2877 97.606 78.0331 97.1996C77.7785 96.7932 77.3027 96.5809 76.6057 96.5627C76.1475 96.5507 75.76 96.6317 75.4434 96.8059C75.1267 96.9801 74.8846 97.23 74.717 97.5557C74.5494 97.8815 74.4598 98.2656 74.4482 98.7083L73.653 98.1365C73.6739 97.3375 73.8626 96.6405 74.2191 96.0455C74.5756 95.4504 75.0606 94.9907 75.6741 94.6665C76.2876 94.3422 76.9908 94.1905 77.7837 94.2112C78.9509 94.2418 79.8191 94.6078 80.3884 95.3094C80.9576 96.0109 81.2262 96.9741 81.1941 98.1989C81.1859 98.5096 81.1762 98.8835 81.1647 99.3208C81.1533 99.758 81.14 100.264 81.125 100.839L81.0413 104.034L78.254 103.961ZM71.5261 103.785L71.8943 89.7229L74.6816 89.7959L74.3134 103.858L71.5261 103.785ZM84.3077 100.178L84.356 98.3357L90.6897 98.5015L90.4077 98.9551C90.4089 98.9119 90.4101 98.8666 90.4113 98.8192C90.4125 98.7719 90.4137 98.7296 90.4146 98.6924C90.4236 98.3493 90.351 98.0182 90.1967 97.6991C90.0424 97.3799 89.7984 97.1158 89.4648 96.9066C89.1311 96.6974 88.6986 96.5858 88.1672 96.5719C87.6406 96.5581 87.1848 96.6578 86.7999 96.871C86.415 97.0842 86.1163 97.3984 85.9038 97.8135C85.6912 98.2287 85.5772 98.7326 85.5617 99.3252C85.5457 99.937 85.6291 100.464 85.812 100.905C85.9949 101.347 86.2764 101.689 86.6566 101.931C87.0368 102.174 87.5142 102.302 88.0888 102.317C88.4631 102.327 88.7866 102.302 89.0595 102.242C89.3323 102.182 89.5557 102.099 89.7295 101.993C89.9033 101.887 90.036 101.77 90.1276 101.641C90.2192 101.513 90.2751 101.385 90.2952 101.259L93.0555 101.331C93.0077 101.736 92.8585 102.127 92.6079 102.506C92.3573 102.885 92.0144 103.223 91.5793 103.521C91.1442 103.818 90.6201 104.05 90.0072 104.214C89.3943 104.379 88.6997 104.451 87.9236 104.431C86.8668 104.403 85.951 104.168 85.1763 103.726C84.4016 103.283 83.8076 102.682 83.3941 101.922C82.9807 101.161 82.7867 100.294 82.8122 99.3216C82.8382 98.3296 83.0816 97.4662 83.5426 96.7316C84.0036 95.9971 84.6345 95.432 85.4354 95.0364C86.2362 94.6408 87.1536 94.4566 88.1877 94.4837C89.2505 94.5115 90.1636 94.7464 90.9269 95.1883C91.6902 95.6302 92.2718 96.2355 92.6719 97.004C93.0719 97.7726 93.2586 98.6631 93.2321 99.6755C93.2283 99.8219 93.2216 99.9639 93.212 100.102C93.2024 100.24 93.1907 100.342 93.1769 100.411L84.3077 100.178ZM98.8118 104.712C98.2432 104.697 97.6973 104.618 97.174 104.474C96.6508 104.33 96.1842 104.123 95.7741 103.854C95.364 103.584 95.042 103.253 94.808 102.859C94.574 102.465 94.4638 102.011 94.4772 101.496C94.4779 101.47 94.4787 101.441 94.4795 101.41C94.4803 101.379 94.481 101.352 94.4816 101.331L97.2509 101.403C97.2503 101.425 97.2498 101.446 97.2493 101.466C97.2487 101.486 97.2481 101.51 97.2474 101.536C97.2384 101.882 97.3865 102.14 97.6917 102.311C97.9969 102.483 98.4152 102.575 98.9466 102.589C99.2177 102.596 99.4817 102.574 99.7388 102.522C99.9958 102.471 100.208 102.384 100.377 102.26C100.545 102.137 100.632 101.975 100.637 101.776C100.645 101.458 100.476 101.228 100.13 101.085C99.7841 100.942 99.2246 100.797 98.4518 100.649C98.0146 100.565 97.5735 100.451 97.1283 100.308C96.6831 100.165 96.275 99.9776 95.9041 99.7464C95.5333 99.5152 95.2377 99.2281 95.0174 98.885C94.7971 98.5419 94.6933 98.1274 94.706 97.6416C94.723 96.9914 94.9332 96.4501 95.3364 96.0177C95.7397 95.5853 96.2715 95.264 96.9318 95.0539C97.5922 94.8437 98.3146 94.7489 99.0991 94.7694C99.8489 94.789 100.545 94.9318 101.187 95.1977C101.83 95.4636 102.346 95.834 102.736 96.3087C103.125 96.7835 103.312 97.346 103.295 97.9961C103.294 98.0129 103.294 98.0333 103.293 98.0573C103.292 98.0813 103.292 98.1029 103.291 98.1221L100.547 98.0502C100.548 98.031 100.548 98.0125 100.549 97.9945C100.549 97.9765 100.55 97.9591 100.55 97.9423C100.556 97.7024 100.486 97.5058 100.338 97.3524C100.19 97.1991 99.9995 97.0828 99.7663 97.0035C99.5331 96.9241 99.2893 96.8811 99.035 96.8745C98.8119 96.8686 98.577 96.8868 98.3305 96.929C98.0839 96.9711 97.8751 97.0488 97.7041 97.1619C97.5331 97.2751 97.4448 97.4378 97.4392 97.6501C97.4339 97.8517 97.5205 98.019 97.6988 98.1521C97.8772 98.2852 98.1276 98.3977 98.4499 98.4896C98.7722 98.5814 99.1429 98.6677 99.5621 98.7483C99.9647 98.8236 100.388 98.9265 100.832 99.057C101.277 99.1875 101.692 99.3637 102.077 99.5857C102.463 99.8076 102.774 100.095 103.01 100.447C103.246 100.8 103.357 101.238 103.344 101.761C103.329 102.311 103.191 102.777 102.928 103.158C102.666 103.539 102.317 103.846 101.881 104.079C101.446 104.313 100.964 104.48 100.434 104.582C99.9043 104.683 99.3636 104.727 98.8118 104.712ZM104.894 104.659L105.144 95.1041L107.903 95.1764L107.652 104.731L104.894 104.659ZM106.565 93.5875C106.132 93.5761 105.757 93.4517 105.441 93.2141C105.125 92.9766 104.972 92.6496 104.983 92.2334C104.994 91.8159 105.164 91.4977 105.492 91.2788C105.82 91.0599 106.2 90.9562 106.633 90.9675C107.067 90.9788 107.441 91.1024 107.755 91.3381C108.07 91.5738 108.222 91.9004 108.211 92.3179C108.2 92.7378 108.032 93.0572 107.705 93.2761C107.378 93.495 106.998 93.5988 106.565 93.5875ZM113.684 105.102C113.115 105.087 112.569 105.007 112.046 104.863C111.523 104.719 111.056 104.513 110.646 104.243C110.236 103.974 109.914 103.642 109.68 103.248C109.446 102.854 109.336 102.4 109.349 101.886C109.35 101.859 109.351 101.83 109.351 101.799C109.352 101.768 109.353 101.742 109.353 101.72L112.123 101.793C112.122 101.814 112.122 101.835 112.121 101.855C112.121 101.876 112.12 101.899 112.119 101.926C112.11 102.271 112.258 102.529 112.564 102.701C112.869 102.872 113.287 102.965 113.818 102.978C114.09 102.986 114.354 102.963 114.611 102.912C114.868 102.86 115.08 102.773 115.249 102.65C115.417 102.526 115.504 102.365 115.509 102.166C115.517 101.848 115.348 101.617 115.002 101.474C114.656 101.332 114.096 101.186 113.324 101.039C112.887 100.954 112.445 100.84 112 100.697C111.555 100.554 111.147 100.367 110.776 100.136C110.405 99.9046 110.11 99.6175 109.889 99.2744C109.669 98.9313 109.565 98.5169 109.578 98.031C109.595 97.3808 109.805 96.8396 110.208 96.4072C110.612 95.9748 111.143 95.6535 111.804 95.4433C112.464 95.2331 113.187 95.1383 113.971 95.1588C114.721 95.1785 115.417 95.3212 116.059 95.5871C116.702 95.8531 117.218 96.2234 117.608 96.6982C117.997 97.1729 118.184 97.7354 118.167 98.3856C118.166 98.4024 118.166 98.4228 118.165 98.4468C118.164 98.4707 118.164 98.4923 118.163 98.5115L115.419 98.4397C115.42 98.4205 115.42 98.4019 115.421 98.3839C115.421 98.3659 115.422 98.3485 115.422 98.3317C115.428 98.0918 115.358 97.8952 115.21 97.7419C115.062 97.5886 114.871 97.4722 114.638 97.3929C114.405 97.3136 114.161 97.2706 113.907 97.2639C113.684 97.2581 113.449 97.2762 113.202 97.3184C112.956 97.3605 112.747 97.4382 112.576 97.5514C112.405 97.6645 112.317 97.8273 112.311 98.0396C112.306 98.2411 112.392 98.4084 112.571 98.5415C112.749 98.6746 112.999 98.7871 113.322 98.879C113.644 98.9709 114.015 99.0571 114.434 99.1377C114.837 99.2131 115.26 99.316 115.704 99.4465C116.149 99.5769 116.564 99.7531 116.949 99.9751C117.335 100.197 117.646 100.484 117.882 100.837C118.118 101.189 118.229 101.627 118.216 102.15C118.201 102.701 118.063 103.166 117.8 103.547C117.537 103.928 117.188 104.235 116.753 104.469C116.318 104.702 115.835 104.87 115.306 104.971C114.776 105.073 114.235 105.116 113.684 105.102Z" fill="#2D2F2C"/>
<path d="M31.315 128.742L31.5057 121.458L28.7087 121.385L28.7441 120.032L35.7817 120.216L35.7462 121.569L32.9492 121.496L32.7585 128.78L31.315 128.742ZM35.9134 128.862L36.1396 120.225L37.603 120.263L41.4483 126.456L41.6077 120.368L43.0712 120.407L42.845 129.044L41.3815 129.005L37.5363 122.811L37.3769 128.901L35.9134 128.862ZM44.3045 129.082L44.5307 120.445L45.9942 120.483L49.8394 126.676L49.9988 120.588L51.4623 120.626L51.2361 129.263L49.7727 129.225L45.9275 123.03L45.768 129.12L44.3045 129.082ZM55.8778 129.565C55.3174 129.55 54.7945 129.437 54.3092 129.226C53.8239 129.015 53.4018 128.713 53.0429 128.32C52.6841 127.928 52.4077 127.449 52.2137 126.886C52.0197 126.322 51.9322 125.68 51.951 124.961C51.9757 124.018 52.1733 123.216 52.5437 122.554C52.9141 121.893 53.4093 121.392 54.0291 121.051C54.6489 120.71 55.3436 120.55 56.1134 120.57C57.177 120.598 58.0129 120.867 58.6211 121.378C59.2293 121.888 59.631 122.59 59.8263 123.484L58.3488 123.68C58.1975 123.166 57.9394 122.751 57.5745 122.436C57.2097 122.121 56.7407 121.954 56.1676 121.936C55.588 121.914 55.1024 122.028 54.7107 122.277C54.319 122.527 54.0205 122.886 53.8152 123.354C53.6099 123.822 53.4983 124.371 53.4805 125.001C53.4626 125.63 53.5441 126.181 53.7248 126.653C53.9055 127.124 54.1856 127.495 54.565 127.766C54.9444 128.036 55.4239 128.182 56.0035 128.204C56.4365 128.222 56.8189 128.154 57.1507 128C57.4825 127.847 57.7569 127.607 57.9738 127.282C58.1907 126.957 58.3423 126.548 58.4286 126.055L56.9051 126.015L56.9348 124.881L59.9937 124.961C60.0008 125.023 60.0045 125.117 60.0049 125.242C60.0053 125.366 60.0052 125.442 60.0045 125.468C59.9832 126.283 59.8032 127.003 59.4648 127.628C59.1263 128.253 58.6526 128.737 58.0437 129.082C57.4348 129.426 56.7129 129.587 55.8778 129.565ZM62.2983 129.553L62.5245 120.916L63.968 120.954L63.8728 124.591L67.9634 124.698L68.0586 121.061L69.5021 121.099L69.2759 129.736L67.8325 129.698L67.9279 126.051L63.8373 125.944L63.7418 129.591L62.2983 129.553ZM73.3276 132.173L73.3623 130.845L74.8418 130.884L74.807 132.211L73.3276 132.173ZM76.5576 120.217L77.6514 120.241C77.6973 120.678 77.6675 121.039 77.562 121.324C77.4565 121.609 77.2693 121.815 77.0006 121.942C76.7495 122.058 76.4612 122.102 76.1359 122.074C75.8105 122.047 75.532 121.96 75.3004 121.813L75.3168 121.188C75.4976 121.237 75.6521 121.269 75.7804 121.286C75.9087 121.302 76.0288 121.286 76.1407 121.239C76.3472 121.149 76.468 121.008 76.5034 120.818C76.5387 120.627 76.5568 120.427 76.5576 120.217ZM74.0036 130.04C73.1406 130.017 72.4054 129.809 71.7982 129.416C71.191 129.022 70.7314 128.483 70.4195 127.799C70.1077 127.115 69.9635 126.326 69.9868 125.433C70.0102 124.54 70.1955 123.76 70.5428 123.093C70.89 122.426 71.3772 121.911 72.0042 121.55C72.6312 121.189 73.3762 121.02 74.2392 121.043C75.1022 121.065 75.8374 121.273 76.4446 121.667C77.0519 122.06 77.5114 122.599 77.8233 123.283C78.1351 123.968 78.2794 124.756 78.256 125.649C78.2326 126.543 78.0473 127.323 77.7 127.99C77.3528 128.657 76.8657 129.171 76.2387 129.532C75.6117 129.893 74.8667 130.062 74.0036 130.04ZM74.0393 128.676C74.6189 128.698 75.1049 128.584 75.4973 128.334C75.8896 128.084 76.1885 127.724 76.3938 127.256C76.5991 126.788 76.71 126.239 76.7265 125.609C76.743 124.98 76.6609 124.429 76.4802 123.957C76.2995 123.485 76.0198 123.114 75.641 122.844C75.2623 122.574 74.7831 122.428 74.2035 122.406C73.6239 122.384 73.1382 122.498 72.7465 122.748C72.3549 122.998 72.0564 123.357 71.851 123.826C71.6457 124.294 71.5341 124.843 71.5163 125.473C71.4985 126.103 71.5799 126.653 71.7606 127.125C71.9413 127.597 72.2214 127.968 72.6008 128.238C72.9802 128.508 73.4597 128.654 74.0393 128.676ZM78.7447 129.984L78.9709 121.347L82.5396 121.44C82.6236 121.442 82.732 121.448 82.8648 121.458C82.9976 121.467 83.1194 121.483 83.2301 121.506C83.7273 121.597 84.1354 121.774 84.4546 122.039C84.7738 122.304 85.0071 122.633 85.1545 123.025C85.302 123.418 85.3695 123.852 85.357 124.327C85.3446 124.802 85.2536 125.232 85.0842 125.616C84.9147 126.001 84.6637 126.317 84.3311 126.564C83.9985 126.812 83.5833 126.968 83.0854 127.032C82.9737 127.045 82.8504 127.054 82.7156 127.059C82.5808 127.063 82.4731 127.064 82.3924 127.062L80.2671 127.007L80.1882 130.022L78.7447 129.984ZM80.3026 125.653L82.3679 125.707C82.4492 125.709 82.5394 125.708 82.6386 125.702C82.7378 125.697 82.8307 125.684 82.9172 125.664C83.1574 125.609 83.3483 125.508 83.4899 125.36C83.6315 125.212 83.7336 125.042 83.7963 124.851C83.859 124.66 83.8927 124.473 83.8976 124.289C83.9024 124.105 83.8785 123.916 83.8259 123.722C83.7733 123.528 83.6801 123.353 83.5465 123.198C83.4128 123.042 83.2275 122.931 82.9905 122.864C82.9052 122.839 82.8131 122.821 82.7143 122.811C82.6156 122.8 82.5255 122.794 82.4442 122.792L80.3789 122.738L80.3026 125.653Z" fill="#5A5C58"/>
<g clip-path="url(#clip0_102_60)">
<rect x="27.9043" y="147.66" width="204" height="8.00276" rx="4.00138" transform="rotate(1.5 27.9043 147.66)" fill="#E2E3DD"/>
<rect x="27.9043" y="147.66" width="142.799" height="8.00276" transform="rotate(1.5 27.9043 147.66)" fill="#6A5B0C"/>
</g>
</g>
<defs>
<filter id="filter0_d_102_60" x="0" y="0" width="266.676" height="192.691" filterUnits="userSpaceOnUse" color-interpolation-filters="sRGB">
<feFlood flood-opacity="0" result="BackgroundImageFix"/>
<feColorMatrix in="SourceAlpha" type="matrix" values="0 0 0 0 0 0 0 0 0 0 0 0 0 0 0 0 0 0 127 0" result="hardAlpha"/>
<feOffset dx="4" dy="4"/>
<feComposite in2="hardAlpha" operator="out"/>
<feColorMatrix type="matrix" values="0 0 0 0 0.176471 0 0 0 0 0.184314 0 0 0 0 0.172549 0 0 0 1 0"/>
<feBlend mode="normal" in2="BackgroundImageFix" result="effect1_dropShadow_102_60"/>
<feBlend mode="normal" in="SourceGraphic" in2="effect1_dropShadow_102_60" result="shape"/>
</filter>
<clipPath id="clip0_102_60">
<rect x="27.9043" y="147.66" width="204" height="8.00276" rx="4.00138" transform="rotate(1.5 27.9043 147.66)" fill="white"/>
</clipPath>
</defs>
</svg>
